<svg width="25" height="25" viewBox="0 0 25 25" fill="none" xmlns="http://www.w3.org/2000/svg">
<rect width="25" height="25" rx="4.54545" fill="#2F53DE"/>
<g clip-path="url(#clip0_1754_1113)">
<path d="M5.3 6.8125C5.7425 6.8125 6.1 7.17559 6.1 7.625V14.125H11.7V10.0625C11.7 9.61309 12.0575 9.25 12.5 9.25H18.1C19.425 9.25 20.5 10.3418 20.5 11.6875V17.375C20.5 17.8244 20.1425 18.1875 19.7 18.1875C19.2575 18.1875 18.9 17.8244 18.9 17.375V16.5625H6.1V17.375C6.1 17.8244 5.7425 18.1875 5.3 18.1875C4.8575 18.1875 4.5 17.8244 4.5 17.375V7.625C4.5 7.17559 4.8575 6.8125 5.3 6.8125ZM8.9 9.25C9.43043 9.25 9.93914 9.46401 10.3142 9.84494C10.6893 10.2259 10.9 10.7425 10.9 11.2812C10.9 11.82 10.6893 12.3366 10.3142 12.7176C9.93914 13.0985 9.43043 13.3125 8.9 13.3125C8.36957 13.3125 7.86086 13.0985 7.48579 12.7176C7.11071 12.3366 6.9 11.82 6.9 11.2812C6.9 10.7425 7.11071 10.2259 7.48579 9.84494C7.86086 9.46401 8.36957 9.25 8.9 9.25Z" fill="white"/>
</g>
<defs>
<clipPath id="clip0_1754_1113">
<rect width="16" height="13" fill="white" transform="translate(4.5 6)"/>
</clipPath>
</defs>
</svg>
