<svg width="25" height="25" viewBox="0 0 25 25" fill="none" xmlns="http://www.w3.org/2000/svg">
<rect width="25" height="25" rx="4.54545" fill="#2F53DE"/>
<g clip-path="url(#clip0_1751_1915)">
<path d="M10.33 16C11.0045 16.009 11.6562 16.245 12.18 16.67L12.44 16.9H12.49L12.8 16.62C13.2781 16.2247 13.8708 15.9939 14.4903 15.9614C15.1097 15.929 15.7232 16.0968 16.24 16.44L18.5 12L17 11V7.44998C16.9775 7.06415 16.8108 6.70089 16.5329 6.43228C16.2551 6.16367 15.8864 6.00936 15.5 5.99998H15C15.0088 5.86637 14.989 5.73241 14.9419 5.60708C14.8948 5.48174 14.8214 5.36793 14.7267 5.27324C14.632 5.17856 14.5182 5.1052 14.3929 5.05807C14.2676 5.01094 14.1336 4.99114 14 4.99998H11C10.8664 4.99114 10.7324 5.01094 10.6071 5.05807C10.4818 5.1052 10.368 5.17856 10.2733 5.27324C10.1786 5.36793 10.1052 5.48174 10.0581 5.60708C10.011 5.73241 9.99116 5.86637 10 5.99998H9.5C9.11364 6.00936 8.74493 6.16367 8.46706 6.43228C8.18919 6.70089 8.02247 7.06415 8 7.44998V11L6.5 12L8.75 16.53C9.21426 16.2041 9.76313 16.02 10.33 16ZM9 7.44998C9.00254 7.38735 9.01757 7.32586 9.04423 7.26913C9.07088 7.2124 9.10861 7.16157 9.1552 7.11964C9.20179 7.07771 9.2563 7.04553 9.31551 7.02497C9.37473 7.00442 9.43745 6.99592 9.5 6.99998H15.5C15.5668 6.99556 15.6338 7.00546 15.6964 7.02902C15.7591 7.05259 15.816 7.08927 15.8634 7.13661C15.9107 7.18395 15.9474 7.24086 15.971 7.30353C15.9945 7.36619 16.0044 7.43317 16 7.49998V10.5L12.5 8.49998L9 10.45V7.44998ZM19 18V19C18.7374 19.0194 18.4931 19.1415 18.32 19.34C18.0483 19.6283 17.7022 19.8359 17.32 19.94C17.0174 20.0293 16.6973 20.0423 16.3884 19.9777C16.0796 19.9131 15.7915 19.7731 15.55 19.57L15.16 19.22C15.0138 19.0746 14.8161 18.9931 14.61 18.9931C14.4039 18.9931 14.2062 19.0746 14.06 19.22C13.92 19.34 13.79 19.47 13.64 19.59C13.2851 19.8736 12.8412 20.0222 12.3872 20.0093C11.9331 19.9965 11.4983 19.8231 11.16 19.52L10.77 19.17C10.6315 19.049 10.4539 18.9823 10.27 18.9823C10.0861 18.9823 9.90848 19.049 9.77 19.17C9.58 19.32 9.41 19.49 9.22 19.64C8.87769 19.8934 8.46047 20.0252 8.03468 20.0143C7.60888 20.0035 7.19893 19.8506 6.87 19.58L6.56 19.31C6.41535 19.1443 6.21718 19.0346 6 19V18C6.259 17.968 6.52 18.017 6.75 18.14C7.02871 18.3114 7.29292 18.5054 7.54 18.72C7.64072 18.8297 7.76881 18.9107 7.91115 18.9546C8.05349 18.9986 8.20495 19.0039 8.35 18.97C8.46278 18.9374 8.56809 18.883 8.66 18.81C8.82 18.69 8.95 18.55 9.11 18.42C9.45443 18.1346 9.8877 17.9784 10.335 17.9784C10.7823 17.9784 11.2156 18.1346 11.56 18.42C11.72 18.55 11.87 18.7 12.03 18.83C12.1685 18.9509 12.3461 19.0176 12.53 19.0176C12.7139 19.0176 12.8915 18.9509 13.03 18.83C13.19 18.7 13.34 18.55 13.5 18.42C13.8452 18.132 14.2805 17.9743 14.73 17.9743C15.1795 17.9743 15.6148 18.132 15.96 18.42C16.11 18.55 16.25 18.69 16.4 18.81C16.5385 18.9309 16.7161 18.9976 16.9 18.9976C17.0839 18.9976 17.2615 18.9309 17.4 18.81L17.87 18.4C18.19 18.14 18.589 18 19 18Z" fill="white"/>
</g>
<defs>
<clipPath id="clip0_1751_1915">
<rect width="15" height="15" fill="white" transform="translate(5 5)"/>
</clipPath>
</defs>
</svg>
