<svg width="25" height="25" viewBox="0 0 25 25" fill="none" xmlns="http://www.w3.org/2000/svg">
<rect width="25" height="25" rx="4.54545" fill="#2F53DE"/>
<path d="M19.1666 8.5V10.8333L18.1666 11.1667L17.1399 9.52667C17.0533 9.38667 16.8333 9.44667 16.8333 9.61333V12C16.8333 12.6533 16.5733 13.24 16.1666 13.6867V18.5H14.4999V14.5H14.3333C14.1933 14.5 14.0533 14.48 13.9199 14.46L10.9599 13.9667L10.2133 15.3067L10.8533 18.5H9.1666L8.49994 15.3333C8.47994 15.1333 8.49994 14.9333 8.6066 14.76L9.2866 13.5533C8.9556 13.3693 8.67823 13.1023 8.48184 12.7784C8.28545 12.4546 8.1768 12.0852 8.1666 11.7067C8.13994 11.8067 8.1266 11.9533 8.1466 12.1667C8.1666 12.46 8.23994 12.8933 8.19327 13.3733C8.1666 13.8533 7.9466 14.3467 7.6666 14.6733C7.37994 15 7.0666 15.2267 6.73327 15.4L6.2666 14.9333C6.39327 14.62 6.51994 14.34 6.5466 14.08C6.5866 13.8333 6.53994 13.6333 6.4666 13.4533L6.11327 12.7C5.97327 12.36 5.79994 11.8667 5.83327 11.2867C5.85327 10.72 6.1666 9.98 6.75994 9.57333C7.35994 9.16667 8.0066 9.11333 8.53327 9.22C8.8666 9.28667 9.2066 9.44667 9.49994 9.67333C9.7466 9.56 10.0333 9.5 10.3333 9.5H14.1666V9.16667C14.1666 7.69333 15.3599 6.5 16.8333 6.5H19.1666L18.5733 7.39333C18.9333 7.63333 19.1666 8.04 19.1666 8.5Z" fill="white"/>
</svg>
