<svg width="25" height="25" viewBox="0 0 25 25" fill="none" xmlns="http://www.w3.org/2000/svg">
<rect width="25" height="25" rx="4.54545" fill="#2F53DE"/>
<path d="M17.3648 5.11938C17.3565 5.11938 17.3481 5.11966 17.3398 5.1202C16.9691 5.14498 15.2736 5.25073 15.5425 7.58692C15.689 8.8602 16.6577 11.7987 15.8151 11.8976C15.4999 11.9346 15.1438 10.327 12.452 10.3618C9.98189 10.3938 9.16523 11.8007 8.43323 12.7386C7.15536 13.305 6.46533 13.557 6.13867 14.703C6.78564 14.6088 7.33189 14.075 8.29633 13.8425C9.83402 14.242 11.7911 15.311 14.0749 13.9744C15.6314 13.5759 17.3675 13.3525 17.4593 11.3959C17.3472 10.0343 16.959 8.82376 16.5689 7.63404C16.4306 7.21217 16.2173 6.67623 16.7727 6.45592C17.0345 6.58104 17.2699 6.72029 17.7929 6.63967C18.2387 6.81935 18.4146 7.75398 18.7362 7.7356C18.7731 7.26995 18.9465 6.8066 18.8089 6.33673C18.7485 6.13067 18.2165 5.90935 17.9147 5.69813C17.865 5.40304 17.6227 5.12051 17.3648 5.11938ZM10.6956 15.0692L9.53845 16.8112L11.822 18.0412V19.9376H12.3844V18.3442L14.7805 19.6348L15.0473 19.1397L12.3844 17.7054V15.1454C12.1956 15.1761 12.0073 15.1912 11.822 15.1935V17.4024L10.3483 16.6085L11.3043 15.1693C11.0916 15.1472 10.8872 15.112 10.6956 15.0692Z" fill="white"/>
</svg>
