<svg width="25" height="25" viewBox="0 0 25 25" fill="none" xmlns="http://www.w3.org/2000/svg">
<rect width="25" height="25" rx="4.54545" fill="#2F53DE"/>
<path d="M12.4997 17.8333C12.0997 17.8333 11.783 17.9444 11.5497 18.1667C11.3163 18.3889 10.8886 18.5 10.2663 18.5C9.64412 18.5 9.21634 18.3889 8.98301 18.1667C8.74968 17.9444 8.43301 17.8333 8.03301 17.8333C7.71079 17.8333 7.46634 17.9084 7.29968 18.0587C7.13301 18.2089 6.8719 18.3282 6.51634 18.4167C6.33857 18.4611 6.18034 18.4222 6.04168 18.3C5.90301 18.1778 5.83345 18.0222 5.83301 17.8333C5.83257 17.6444 5.89923 17.4807 6.03301 17.342C6.16679 17.2033 6.31679 17.0893 6.48301 17C6.6719 16.9 6.8719 16.7916 7.08301 16.6747C7.29412 16.5578 7.61079 16.4996 8.03301 16.5C8.65523 16.5 9.08301 16.6111 9.31634 16.8333C9.54968 17.0556 9.86634 17.1667 10.2663 17.1667C10.6663 17.1667 10.983 17.0556 11.2163 16.8333C11.4497 16.6111 11.8775 16.5 12.4997 16.5C13.1219 16.5 13.5497 16.6111 13.783 16.8333C14.0163 17.0556 14.333 17.1667 14.733 17.1667C15.133 17.1667 15.4497 17.0556 15.683 16.8333C15.9163 16.6111 16.3441 16.5 16.9663 16.5C17.3886 16.5 17.7052 16.5584 17.9163 16.6753C18.1275 16.7922 18.3275 16.9004 18.5163 17C18.683 17.0889 18.833 17.2029 18.9663 17.342C19.0997 17.4811 19.1663 17.6449 19.1663 17.8333C19.1663 18.0218 19.097 18.1773 18.9583 18.3C18.8197 18.4227 18.6612 18.4616 18.483 18.4167C18.1275 18.3278 17.8663 18.2084 17.6997 18.0587C17.533 17.9089 17.2886 17.8338 16.9663 17.8333C16.5663 17.8333 16.2497 17.9444 16.0163 18.1667C15.783 18.3889 15.3552 18.5 14.733 18.5C14.1108 18.5 13.683 18.3889 13.4497 18.1667C13.2163 17.9444 12.8997 17.8333 12.4997 17.8333ZM12.4997 14.8333C12.0775 14.8333 11.7635 14.9444 11.5577 15.1667C11.3519 15.3889 10.9215 15.5 10.2663 15.5C9.61123 15.5 9.17501 15.3889 8.95768 15.1667C8.74034 14.9444 8.43212 14.8333 8.03301 14.8333C7.71079 14.8333 7.46634 14.9084 7.29968 15.0587C7.13301 15.2089 6.8719 15.3282 6.51634 15.4167C6.33857 15.4611 6.18034 15.4222 6.04168 15.3C5.90301 15.1778 5.83345 15.0222 5.83301 14.8333C5.83257 14.6444 5.89923 14.4807 6.03301 14.342C6.16679 14.2033 6.31679 14.0893 6.48301 14C6.6719 13.9 6.8719 13.7916 7.08301 13.6747C7.29412 13.5578 7.61079 13.4996 8.03301 13.5C8.65523 13.5 9.0859 13.6111 9.32501 13.8333C9.56412 14.0556 9.8779 14.1667 10.2663 14.1667C10.6663 14.1667 10.983 14.0556 11.2163 13.8333C11.4497 13.6111 11.8775 13.5 12.4997 13.5C13.1219 13.5 13.5497 13.6111 13.783 13.8333C14.0163 14.0556 14.333 14.1667 14.733 14.1667C15.133 14.1667 15.4497 14.0556 15.683 13.8333C15.9163 13.6111 16.3441 13.5 16.9663 13.5C17.3886 13.5 17.7052 13.5584 17.9163 13.6753C18.1275 13.7922 18.3275 13.9004 18.5163 14C18.683 14.0889 18.833 14.2029 18.9663 14.342C19.0997 14.4811 19.1663 14.6449 19.1663 14.8333C19.1663 15.0218 19.097 15.1773 18.9583 15.3C18.8197 15.4227 18.6612 15.4616 18.483 15.4167C18.1275 15.3278 17.8663 15.2084 17.6997 15.0587C17.533 14.9089 17.2886 14.8338 16.9663 14.8333C16.5663 14.8333 16.2579 14.9444 16.041 15.1667C15.8241 15.3889 15.3881 15.5 14.733 15.5C14.0997 15.5 13.6692 15.3889 13.4417 15.1667C13.2141 14.9444 12.9001 14.8333 12.4997 14.8333ZM9.09968 12.1L11.3163 9.88333L10.6497 9.21667C10.3719 8.93889 10.0859 8.71933 9.79168 8.558C9.49745 8.39667 9.16123 8.28845 8.78301 8.23333C8.56079 8.18889 8.36923 8.08333 8.20834 7.91667C8.04745 7.75 7.96679 7.55556 7.96634 7.33333C7.96634 7.1 8.04968 6.90267 8.21634 6.74133C8.38301 6.58 8.57745 6.51067 8.79968 6.53333C9.39968 6.58889 9.91634 6.714 10.3497 6.90867C10.783 7.10333 11.2108 7.41156 11.633 7.83333L15.8997 12.1C15.7108 12.2222 15.5275 12.3196 15.3497 12.392C15.1719 12.4644 14.9663 12.5004 14.733 12.5C14.333 12.5 14.0163 12.3889 13.783 12.1667C13.5497 11.9444 13.1219 11.8333 12.4997 11.8333C11.8775 11.8333 11.4497 11.9444 11.2163 12.1667C10.983 12.3889 10.6663 12.5 10.2663 12.5C10.033 12.5 9.82745 12.464 9.64968 12.392C9.4719 12.32 9.28857 12.2227 9.09968 12.1ZM16.8163 6.99133C17.1386 7.31933 17.2997 7.71111 17.2997 8.16667C17.2997 8.63333 17.1386 9.02778 16.8163 9.35C16.4941 9.67222 16.0997 9.83333 15.633 9.83333C15.1663 9.83333 14.7719 9.67222 14.4497 9.35C14.1275 9.02778 13.9663 8.63333 13.9663 8.16667C13.9663 7.71111 14.1275 7.31933 14.4497 6.99133C14.7719 6.66333 15.1663 6.49956 15.633 6.5C16.0997 6.50045 16.4941 6.66378 16.8163 6.99133Z" fill="white"/>
</svg>
