<svg width="25" height="25" viewBox="0 0 25 25" fill="none" xmlns="http://www.w3.org/2000/svg">
<rect width="25" height="25" rx="4.54545" fill="#2F53DE"/>
<path d="M7.16634 7.16663L8.49967 9.83329H10.4997L9.16634 7.16663H10.4997L11.833 9.83329H13.833L12.4997 7.16663H13.833L15.1663 9.83329H17.1663L15.833 7.16663H17.833C18.1997 7.16663 18.5137 7.29729 18.775 7.55863C19.0363 7.81996 19.1668 8.13374 19.1663 8.49996V16.5C19.1663 16.8666 19.0359 17.1806 18.775 17.442C18.5141 17.7033 18.2001 17.8337 17.833 17.8333H7.16634C6.79967 17.8333 6.4859 17.7028 6.22501 17.442C5.96412 17.1811 5.83345 16.8671 5.83301 16.5V8.49996C5.83301 8.13329 5.96367 7.81951 6.22501 7.55863C6.48634 7.29774 6.80012 7.16707 7.16634 7.16663Z" fill="white"/>
</svg>
