<svg width="25" height="25" viewBox="0 0 25 25" fill="none" xmlns="http://www.w3.org/2000/svg">
<rect width="25" height="25" rx="4.54545" fill="#2F53DE"/>
<path d="M7.83333 18.5C7.46667 18.5 7.15289 18.3696 6.892 18.1087C6.63111 17.8478 6.50044 17.5338 6.5 17.1667V7.83333C6.5 7.46667 6.63067 7.15289 6.892 6.892C7.15333 6.63111 7.46711 6.50044 7.83333 6.5H17.1667C17.5333 6.5 17.8473 6.63067 18.1087 6.892C18.37 7.15333 18.5004 7.46711 18.5 7.83333V17.1667C18.5 17.5333 18.3696 17.8473 18.1087 18.1087C17.8478 18.37 17.5338 18.5004 17.1667 18.5H7.83333ZM7.83333 17.1667H17.1667V7.83333H7.83333V17.1667ZM8.5 15.8333H16.5L14 12.5L12 15.1667L10.5 13.1667L8.5 15.8333Z" fill="white"/>
</svg>
