<svg width="25" height="25" viewBox="0 0 25 25" fill="none" xmlns="http://www.w3.org/2000/svg">
<rect width="25" height="25" rx="4.54545" fill="#2F53DE"/>
<path d="M17.1663 8.49996H16.109L15.4423 7.83329C15.0563 7.44729 14.379 7.16663 13.833 7.16663H11.1663C10.6203 7.16663 9.94301 7.44729 9.55701 7.83329L8.89034 8.49996H7.83301C6.73034 8.49996 5.83301 9.39729 5.83301 10.5V15.8333C5.83301 16.936 6.73034 17.8333 7.83301 17.8333H17.1663C18.269 17.8333 19.1663 16.936 19.1663 15.8333V10.5C19.1663 9.39729 18.269 8.49996 17.1663 8.49996ZM12.4997 15.1666C11.8807 15.1665 11.2872 14.9206 10.8496 14.4829C10.412 14.0452 10.1663 13.4516 10.1663 12.8326C10.1664 12.2137 10.4124 11.6202 10.8501 11.1826C11.2878 10.745 11.8814 10.4992 12.5003 10.4993C13.1193 10.4994 13.7128 10.7453 14.1504 11.183C14.588 11.6208 14.8338 12.2144 14.8337 12.8333C14.8336 13.4522 14.5876 14.0458 14.1499 14.4833C13.7122 14.9209 13.1186 15.1667 12.4997 15.1666ZM16.4997 12.0326C16.3859 12.0326 16.2732 12.0102 16.168 11.9667C16.0629 11.9231 15.9673 11.8593 15.8868 11.7788C15.8064 11.6983 15.7425 11.6028 15.699 11.4976C15.6554 11.3925 15.633 11.2798 15.633 11.166C15.633 11.0521 15.6554 10.9394 15.699 10.8343C15.7425 10.7292 15.8064 10.6336 15.8868 10.5531C15.9673 10.4727 16.0629 10.4088 16.168 10.3653C16.2732 10.3217 16.3859 10.2993 16.4997 10.2993C16.7295 10.2993 16.95 10.3906 17.1125 10.5531C17.275 10.7157 17.3663 10.9361 17.3663 11.166C17.3663 11.3958 17.275 11.6163 17.1125 11.7788C16.95 11.9413 16.7295 12.0326 16.4997 12.0326Z" fill="white"/>
</svg>
