<svg width="25" height="25" viewBox="0 0 25 25" fill="none" xmlns="http://www.w3.org/2000/svg">
<rect width="25" height="25" rx="4.54545" fill="#2F53DE"/>
<path d="M17.833 12.5H19.1663V13.8333H17.833C16.913 13.8333 16.0063 13.6 15.1663 13.1667C13.4997 14.0333 11.4997 14.0333 9.83301 13.1667C8.99301 13.6 8.07967 13.8333 7.16634 13.8333H5.83301V12.5H7.16634C8.09301 12.5 9.01967 12.1867 9.83301 11.6133C11.4597 12.7533 13.5397 12.7533 15.1663 11.6133C15.9797 12.1867 16.9063 12.5 17.833 12.5ZM17.833 8.50001H19.1663V9.83334H17.833C16.913 9.83334 16.0063 9.60001 15.1663 9.16668C13.4997 10.0333 11.4997 10.0333 9.83301 9.16668C8.99301 9.60001 8.07967 9.83334 7.16634 9.83334H5.83301V8.50001H7.16634C8.09301 8.50001 9.01967 8.18668 9.83301 7.61334C11.4597 8.75334 13.5397 8.75334 15.1663 7.61334C15.9797 8.18668 16.9063 8.50001 17.833 8.50001ZM17.833 16.5H19.1663V17.8333H17.833C16.913 17.8333 16.0063 17.6 15.1663 17.1667C13.4997 18.0333 11.4997 18.0333 9.83301 17.1667C8.99301 17.6 8.07967 17.8333 7.16634 17.8333H5.83301V16.5H7.16634C8.09301 16.5 9.01967 16.1867 9.83301 15.6133C11.4597 16.7533 13.5397 16.7533 15.1663 15.6133C15.9797 16.1867 16.9063 16.5 17.833 16.5Z" fill="white"/>
</svg>
