<svg width="25" height="25" viewBox="0 0 25 25" fill="none" xmlns="http://www.w3.org/2000/svg">
<rect width="25" height="25" rx="4.54545" fill="#2F53DE"/>
<g clip-path="url(#clip0_1751_1864)">
<path d="M12.146 5.64604C12.1924 5.59948 12.2476 5.56253 12.3084 5.53733C12.3691 5.51212 12.4342 5.49915 12.5 5.49915C12.5658 5.49915 12.6309 5.51212 12.6916 5.53733C12.7524 5.56253 12.8076 5.59948 12.854 5.64604L14.354 7.14604C14.4005 7.19253 14.4374 7.24772 14.4625 7.30846C14.4877 7.3692 14.5006 7.4343 14.5006 7.50004C14.5006 7.56578 14.4877 7.63088 14.4625 7.69162C14.4374 7.75236 14.4005 7.80755 14.354 7.85404C14.3075 7.90053 14.2523 7.9374 14.1916 7.96256C14.1308 7.98772 14.0657 8.00067 14 8.00067C13.9343 8.00067 13.8692 7.98772 13.8084 7.96256C13.7477 7.9374 13.6925 7.90053 13.646 7.85404L13 7.20704V9.00004C13 9.13265 12.9473 9.25982 12.8536 9.35359C12.7598 9.44736 12.6326 9.50004 12.5 9.50004C12.3674 9.50004 12.2402 9.44736 12.1464 9.35359C12.0527 9.25982 12 9.13265 12 9.00004V7.20704L11.354 7.85404C11.3075 7.90053 11.2523 7.9374 11.1916 7.96256C11.1308 7.98772 11.0657 8.00067 11 8.00067C10.9343 8.00067 10.8692 7.98772 10.8084 7.96256C10.7477 7.9374 10.6925 7.90053 10.646 7.85404C10.5995 7.80755 10.5626 7.75236 10.5375 7.69162C10.5123 7.63088 10.4994 7.56578 10.4994 7.50004C10.4994 7.4343 10.5123 7.3692 10.5375 7.30846C10.5626 7.24772 10.5995 7.19253 10.646 7.14604L12.146 5.64604ZM6.843 8.84304C6.93676 8.7493 7.06392 8.69665 7.1965 8.69665C7.32908 8.69665 7.45624 8.7493 7.55 8.84304L8.964 10.257C9.05508 10.3513 9.10548 10.4776 9.10434 10.6087C9.1032 10.7398 9.05061 10.8652 8.95791 10.9579C8.8652 11.0507 8.7398 11.1032 8.6087 11.1044C8.4776 11.1055 8.3513 11.0551 8.257 10.964L6.843 9.55004C6.74926 9.45628 6.69661 9.32912 6.69661 9.19654C6.69661 9.06396 6.74926 8.9368 6.843 8.84304ZM18.157 8.84304C18.2507 8.9368 18.3034 9.06396 18.3034 9.19654C18.3034 9.32912 18.2507 9.45628 18.157 9.55004L16.743 10.964C16.6969 11.0118 16.6417 11.0499 16.5807 11.0761C16.5197 11.1023 16.4541 11.1161 16.3877 11.1167C16.3213 11.1172 16.2555 11.1046 16.194 11.0795C16.1326 11.0543 16.0767 11.0172 16.0298 10.9702C15.9829 10.9233 15.9457 10.8675 15.9206 10.806C15.8954 10.7446 15.8828 10.6787 15.8834 10.6123C15.884 10.5459 15.8977 10.4803 15.9239 10.4193C15.9502 10.3583 15.9882 10.3032 16.036 10.257L17.45 8.84304C17.5438 8.7493 17.6709 8.69665 17.8035 8.69665C17.9361 8.69665 18.0632 8.7493 18.157 8.84304ZM16.209 16C16.4542 15.3929 16.5466 14.7348 16.478 14.0836C16.4095 13.4324 16.1822 12.808 15.816 12.2652C15.4497 11.7224 14.9559 11.2778 14.3777 10.9704C13.7996 10.663 13.1548 10.5023 12.5 10.5023C11.8452 10.5023 11.2004 10.663 10.6223 10.9704C10.0441 11.2778 9.55025 11.7224 9.18405 12.2652C8.81784 12.808 8.5905 13.4324 8.52197 14.0836C8.45344 14.7348 8.54582 15.3929 8.791 16H5C4.86739 16 4.74021 16.0527 4.64645 16.1465C4.55268 16.2403 4.5 16.3674 4.5 16.5C4.5 16.6326 4.55268 16.7598 4.64645 16.8536C4.74021 16.9474 4.86739 17 5 17H20C20.1326 17 20.2598 16.9474 20.3536 16.8536C20.4473 16.7598 20.5 16.6326 20.5 16.5C20.5 16.3674 20.4473 16.2403 20.3536 16.1465C20.2598 16.0527 20.1326 16 20 16H16.21H16.209ZM4.5 14.5C4.5 14.3674 4.55268 14.2403 4.64645 14.1465C4.74021 14.0527 4.86739 14 5 14H7C7.13261 14 7.25979 14.0527 7.35355 14.1465C7.44732 14.2403 7.5 14.3674 7.5 14.5C7.5 14.6326 7.44732 14.7598 7.35355 14.8536C7.25979 14.9474 7.13261 15 7 15H5C4.86739 15 4.74021 14.9474 4.64645 14.8536C4.55268 14.7598 4.5 14.6326 4.5 14.5ZM17.5 14.5C17.5 14.3674 17.5527 14.2403 17.6464 14.1465C17.7402 14.0527 17.8674 14 18 14H20C20.1326 14 20.2598 14.0527 20.3536 14.1465C20.4473 14.2403 20.5 14.3674 20.5 14.5C20.5 14.6326 20.4473 14.7598 20.3536 14.8536C20.2598 14.9474 20.1326 15 20 15H18C17.8674 15 17.7402 14.9474 17.6464 14.8536C17.5527 14.7598 17.5 14.6326 17.5 14.5Z" fill="white"/>
</g>
<defs>
<clipPath id="clip0_1751_1864">
<rect width="16" height="16" fill="white" transform="translate(4.5 4.5)"/>
</clipPath>
</defs>
</svg>
