<svg width="25" height="25" viewBox="0 0 25 25" fill="none" xmlns="http://www.w3.org/2000/svg">
<rect width="25" height="25" rx="4.54545" fill="#2F53DE"/>
<path d="M7.16634 15.1667C7.34315 15.1667 7.51272 15.2369 7.63775 15.362C7.76277 15.487 7.83301 15.6566 7.83301 15.8334C7.83301 16.0102 7.76277 16.1798 7.63775 16.3048C7.51272 16.4298 7.34315 16.5 7.16634 16.5H6.49967C6.32286 16.5 6.15329 16.4298 6.02827 16.3048C5.90325 16.1798 5.83301 16.0102 5.83301 15.8334C5.83301 15.6566 5.90325 15.487 6.02827 15.362C6.15329 15.2369 6.32286 15.1667 6.49967 15.1667H7.16634ZM18.4997 15.1667C18.6765 15.1667 18.8461 15.2369 18.9711 15.362C19.0961 15.487 19.1663 15.6566 19.1663 15.8334C19.1663 16.0102 19.0961 16.1798 18.9711 16.3048C18.8461 16.4298 18.6765 16.5 18.4997 16.5H17.833C17.6562 16.5 17.4866 16.4298 17.3616 16.3048C17.2366 16.1798 17.1663 16.0102 17.1663 15.8334C17.1663 15.6566 17.2366 15.487 17.3616 15.362C17.4866 15.2369 17.6562 15.1667 17.833 15.1667H18.4997ZM8.70434 11.0954L9.17101 11.562C9.29245 11.6878 9.35964 11.8562 9.35812 12.031C9.3566 12.2058 9.28649 12.373 9.16289 12.4966C9.03928 12.6202 8.87207 12.6903 8.69727 12.6918C8.52248 12.6933 8.35408 12.6261 8.22834 12.5047L7.76167 12.038C7.64024 11.9123 7.57304 11.7439 7.57456 11.5691C7.57608 11.3943 7.64619 11.2271 7.7698 11.1035C7.8934 10.9799 8.06061 10.9098 8.23541 10.9083C8.4102 10.9067 8.57861 10.9739 8.70434 11.0954ZM17.2377 11.0954C17.3627 11.2204 17.4329 11.3899 17.4329 11.5667C17.4329 11.7435 17.3627 11.913 17.2377 12.038L16.771 12.5047C16.6453 12.6261 16.4769 12.6933 16.3021 12.6918C16.1273 12.6903 15.9601 12.6202 15.8365 12.4966C15.7129 12.373 15.6427 12.2058 15.6412 12.031C15.6397 11.8562 15.7069 11.6878 15.8283 11.562L16.295 11.0954C16.42 10.9704 16.5896 10.9002 16.7663 10.9002C16.9431 10.9002 17.1127 10.9704 17.2377 11.0954ZM12.4997 5.83337C12.6765 5.83337 12.8461 5.90361 12.9711 6.02864C13.0961 6.15366 13.1663 6.32323 13.1663 6.50004V8.88937L14.0283 8.02871C14.1431 7.91392 14.2959 7.84497 14.4579 7.83478C14.6199 7.82459 14.7801 7.87387 14.9083 7.97337L14.971 8.02871C15.096 8.15373 15.1662 8.32326 15.1662 8.50004C15.1662 8.67682 15.096 8.84636 14.971 8.97137L12.971 10.9714C12.905 11.039 12.8251 11.0914 12.7368 11.1252C12.6485 11.1589 12.554 11.1731 12.4597 11.1667L12.377 11.1554L12.2923 11.134L12.223 11.1074L12.1463 11.0654C12.1105 11.0433 12.0768 11.0178 12.0457 10.9894L10.0283 8.97137C9.9069 8.84564 9.83971 8.67724 9.84123 8.50244C9.84274 8.32764 9.91286 8.16043 10.0365 8.03683C10.1601 7.91322 10.3273 7.84311 10.5021 7.84159C10.6769 7.84007 10.8453 7.90727 10.971 8.02871L11.833 8.89004V6.50004C11.833 6.32323 11.9032 6.15366 12.0283 6.02864C12.1533 5.90361 12.3229 5.83337 12.4997 5.83337ZM6.49967 17.8334H18.4997C18.6765 17.8334 18.8461 17.9036 18.9711 18.0286C19.0961 18.1537 19.1663 18.3232 19.1663 18.5C19.1663 18.6769 19.0961 18.8464 18.9711 18.9714C18.8461 19.0965 18.6765 19.1667 18.4997 19.1667H6.49967C6.32286 19.1667 6.15329 19.0965 6.02827 18.9714C5.90325 18.8464 5.83301 18.6769 5.83301 18.5C5.83301 18.3232 5.90325 18.1537 6.02827 18.0286C6.15329 17.9036 6.32286 17.8334 6.49967 17.8334ZM12.4997 12.5C13.0533 12.4999 13.5983 12.6377 14.0854 12.9009C14.5725 13.1642 14.9863 13.5446 15.2896 14.0079C15.5928 14.4711 15.7758 15.0026 15.8222 15.5544C15.8685 16.1061 15.7767 16.6607 15.555 17.168H9.44434C9.22265 16.6607 9.13083 16.1061 9.17717 15.5544C9.22352 15.0026 9.40656 14.4711 9.70978 14.0079C10.013 13.5446 10.4268 13.1642 10.9139 12.9009C11.401 12.6377 11.946 12.4999 12.4997 12.5Z" fill="white"/>
</svg>
