<svg width="25" height="25" viewBox="0 0 25 25" fill="none" xmlns="http://www.w3.org/2000/svg">
<rect width="25" height="25" rx="4.54545" fill="#2F53DE"/>
<path d="M19.7202 9.99999C19.5402 9.49999 19.2002 9.13999 18.7669 8.95332C17.9869 8.61999 17.0402 8.89999 16.3002 9.60666C16.3736 9.41332 16.4402 9.20666 16.5002 8.98666C16.6669 8.08666 16.5202 7.18666 16.0869 6.57999C15.8002 6.16666 15.3869 5.90666 14.9269 5.83332C13.9002 5.68666 12.8802 6.55332 12.4536 7.83332C12.0269 6.53332 10.9936 5.67332 9.96024 5.83332C9.50024 5.91332 9.0869 6.18666 8.80024 6.60666C8.37357 7.22666 8.24024 8.09332 8.4269 8.99332C8.46024 9.16666 8.50024 9.32666 8.56024 9.47999C7.83357 8.87332 6.9669 8.63332 6.23357 8.95332C5.79357 9.14666 5.46024 9.51999 5.28024 10.0133C5.02957 10.7067 5.11357 11.5533 5.50024 12.3467C6.06024 13.4333 7.0469 14.1067 7.97357 14.1067C8.21357 14.1067 8.45357 14.06 8.68024 13.9667C9.12024 13.7733 9.46024 13.4 9.64024 12.92C9.85357 12.36 9.83357 11.68 9.59357 11.0067C9.96024 11.2933 10.3736 11.4667 10.8002 11.4667C10.8802 11.4667 10.9669 11.46 11.0469 11.4467C11.5002 11.38 11.9136 11.1133 12.2002 10.7C12.3002 10.5533 12.3869 10.3933 12.4536 10.22C12.5202 10.3933 12.6002 10.5533 12.7002 10.6933C12.9869 11.1067 13.4002 11.3733 13.8602 11.4467C13.9402 11.46 14.0269 11.4667 14.1069 11.4667C14.5869 11.4667 15.0536 11.2467 15.4536 10.88C15.1669 11.5933 15.1402 12.32 15.3602 12.92C15.5402 13.4067 15.8802 13.7733 16.3202 13.9667C16.5469 14.06 16.7869 14.1067 17.0336 14.1067C17.9536 14.1067 18.9402 13.4333 19.5002 12.3467C19.8869 11.5533 19.9736 10.7 19.7202 9.99999ZM8.39357 12.4533C8.31357 12.6733 8.1869 12.7267 8.1469 12.74C7.78024 12.9 7.0869 12.5 6.70024 11.7467C6.43357 11.2067 6.44024 10.7333 6.53357 10.46C6.5869 10.32 6.6669 10.22 6.7669 10.1667C6.83357 10.1667 6.8869 10.14 6.95357 10.14C7.34024 10.14 7.90024 10.52 8.23357 11.1667C8.45357 11.62 8.52024 12.12 8.39357 12.4533ZM11.1069 9.93999C11.0269 10.0467 10.9402 10.1133 10.8336 10.1267C10.5002 10.1667 9.9269 9.65332 9.73357 8.72666C9.60024 8.08666 9.73357 7.60666 9.90024 7.35999C9.98024 7.24666 10.0736 7.16666 10.1669 7.16666C10.5002 7.10666 11.0869 7.62666 11.2736 8.56666C11.4069 9.21332 11.2736 9.69999 11.1069 9.93999ZM15.1669 8.71999C14.9802 9.65332 14.3869 10.1667 14.0602 10.1267C14.0202 10.12 13.9136 10.1067 13.7936 9.93332C13.6269 9.69332 13.5002 9.21332 13.6336 8.56666C13.8136 7.67332 14.3669 7.16666 14.6936 7.16666H14.7402C14.8336 7.16666 14.9202 7.23999 15.0002 7.34666C15.2136 7.65332 15.2869 8.19332 15.1669 8.71999ZM18.3002 11.7467C17.9136 12.5 17.2202 12.9 16.8536 12.74C16.8136 12.7267 16.6869 12.6733 16.6069 12.4533C16.5002 12.12 16.5469 11.62 16.7602 11.1667C17.1002 10.5267 17.6669 10.1467 18.0536 10.1467C18.1202 10.1467 18.1669 10.1667 18.2336 10.1667H18.2402C18.3402 10.22 18.4136 10.3133 18.4669 10.46C18.5669 10.7267 18.5736 11.2067 18.3002 11.7467ZM15.3669 14.1667C14.4669 13.2 13.7602 11.46 12.4269 11.46C11.0869 11.46 10.4202 13.2267 9.48024 14.1667C8.77357 14.8933 7.58024 15.4267 7.46024 16.42C7.37357 17.14 7.83357 18.0067 8.50024 18.3333C8.73357 18.4533 8.98024 18.5 9.23357 18.5C10.2402 18.5 11.3669 17.7467 12.4269 17.7467C13.5002 17.7467 14.6202 18.48 15.6402 18.48C15.8869 18.48 16.1269 18.44 16.3602 18.3333C16.9336 18.0733 17.4136 17.38 17.3869 16.7533C17.3402 15.6667 16.1069 14.98 15.3669 14.1667ZM15.8069 17.12C15.7539 17.1406 15.6971 17.1497 15.6402 17.1467C15.3602 17.1467 14.9202 17 14.5002 16.86C13.8869 16.6533 13.1869 16.4133 12.4269 16.4133C11.6669 16.4133 10.9669 16.66 10.3536 16.8733C9.93357 17.0133 9.50024 17.1667 9.23357 17.1667C9.1469 17.1667 9.11357 17.1667 9.0869 17.1333C8.94024 17.06 8.7669 16.7467 8.7869 16.58C8.83357 16.4267 9.32024 16.04 9.56024 15.8333C9.85357 15.62 10.1669 15.3867 10.4269 15.1067C10.7936 14.74 11.0936 14.32 11.3869 13.9133C11.6869 13.5 12.1869 12.7933 12.4269 12.7933C12.6936 12.7933 13.2202 13.54 13.5402 13.98C13.8002 14.3533 14.0736 14.7333 14.3802 15.0667C14.6402 15.3467 14.9136 15.5933 15.1669 15.8333C15.5269 16.1333 16.0469 16.5933 16.0536 16.7933C16.0469 16.8867 15.9136 17.0733 15.8069 17.12Z" fill="white"/>
</svg>
