<svg width="25" height="25" viewBox="0 0 25 25" fill="none" xmlns="http://www.w3.org/2000/svg">
<rect width="25" height="25" rx="4.54545" fill="#2F53DE"/>
<path d="M11.1666 6.83337C11.1666 6.28004 11.6133 5.83337 12.1666 5.83337C12.7199 5.83337 13.1666 6.28004 13.1666 6.83337C13.1666 7.38671 12.7199 7.83337 12.1666 7.83337C11.6133 7.83337 11.1666 7.38671 11.1666 6.83337ZM19.1666 9.83337V12.1667L18.4799 12.4C18.4238 12.7971 18.2264 13.1606 17.9239 13.4238C17.6215 13.6871 17.2343 13.8325 16.8333 13.8334H16.7799C16.6866 14.2867 16.4666 14.6934 16.1666 15.02V19.1667H14.4999V15.8334H14.3333C14.1933 15.8334 14.0533 15.8134 13.9199 15.7934L10.9599 15.3L10.2133 16.64L10.7133 19.1667H9.01994L8.49994 16.6667C8.47994 16.4667 8.49994 16.2667 8.6066 16.0934L9.2866 14.8867C8.9556 14.7027 8.67823 14.4356 8.48184 14.1118C8.28545 13.788 8.1768 13.4186 8.1666 13.04C8.13994 13.14 8.1266 13.2867 8.1466 13.5C8.1666 13.7934 8.23994 14.2267 8.19327 14.7067C8.1666 15.1867 7.9466 15.68 7.6666 16.0067C7.37994 16.3334 7.0666 16.56 6.73327 16.7334L6.2666 16.2667C6.39327 15.9534 6.51994 15.6734 6.5466 15.4134C6.5866 15.1667 6.53994 14.9667 6.4666 14.7867L6.11327 14.0334C5.97327 13.6934 5.79994 13.2 5.83327 12.62C5.85327 12.0534 6.1666 11.3134 6.75994 10.9067C7.35994 10.5 8.0066 10.44 8.53327 10.5534C8.8666 10.62 9.2066 10.78 9.49994 11.0067C9.7466 10.8934 10.0333 10.8334 10.3333 10.8334H10.4999V9.90671C10.4999 9.24004 10.9533 8.62671 11.6066 8.52004C11.798 8.48702 11.9943 8.49622 12.1818 8.54699C12.3693 8.59776 12.5434 8.68888 12.692 8.81397C12.8406 8.93906 12.96 9.09511 13.042 9.27119C13.124 9.44727 13.1665 9.63914 13.1666 9.83337V10.8334H14.1666V10.5C14.1666 9.02671 15.3599 7.83337 16.8333 7.83337H19.1666L18.5733 8.72671C18.9333 8.96671 19.1666 9.37337 19.1666 9.83337ZM17.8333 11.9667L17.1399 10.86C17.0533 10.72 16.8333 10.78 16.8333 10.9467V13.1667C17.3866 13.1667 17.8333 12.72 17.8333 12.1667V11.9667Z" fill="white"/>
</svg>
