<svg width="48" height="15" viewBox="0 0 48 15" fill="none" xmlns="http://www.w3.org/2000/svg">
<path d="M1.87455e-06 0.750451L1.28442e-06 14.2508C0.000459996 14.3875 0.0407422 14.5215 0.116512 14.6384C0.192282 14.7552 0.30067 14.8505 0.43001 14.914C0.559351 14.9775 0.704747 15.0068 0.850545 14.9987C0.996343 14.9906 1.13702 14.9454 1.25744 14.8681L11.676 8.11791C12.108 7.83815 12.108 7.16463 11.676 6.88413L1.25744 0.133934C1.13728 0.0558 0.996524 0.00998072 0.850483 0.00145375C0.704442 -0.00707322 0.558696 0.0220183 0.429082 0.0855677C0.299467 0.149117 0.19094 0.244694 0.115293 0.361913C0.0396452 0.479133 -0.000227955 0.613512 1.87455e-06 0.750451Z" fill="#2F53DE" fill-opacity="0.8"/>
<path d="M13 0.750451L13 14.2508C13.0004 14.3875 13.034 14.5215 13.0971 14.6384C13.1602 14.7552 13.2506 14.8505 13.3583 14.914C13.4661 14.9775 13.5873 15.0068 13.7088 14.9987C13.8303 14.9906 13.9475 14.9454 14.0479 14.8681L22.73 8.11791C23.09 7.83815 23.09 7.16463 22.73 6.88413L14.0479 0.133934C13.9477 0.0558001 13.8304 0.0099808 13.7087 0.00145383C13.587 -0.00707314 13.4656 0.0220184 13.3576 0.0855678C13.2496 0.149117 13.1591 0.244694 13.0961 0.361913C13.033 0.479133 12.9998 0.613512 13 0.750451Z" fill="#2F53DE" fill-opacity="0.4"/>
<path d="M24 0.750451L24 14.2508C24.0004 14.3875 24.0373 14.5215 24.1068 14.6384C24.1763 14.7552 24.2756 14.8505 24.3942 14.914C24.5127 14.9775 24.646 15.0068 24.7797 14.9987C24.9133 14.9906 25.0423 14.9454 25.1527 14.8681L34.703 8.11791C35.099 7.83815 35.099 7.16463 34.703 6.88413L25.1527 0.133934C25.0425 0.0558001 24.9135 0.00998076 24.7796 0.00145379C24.6457 -0.00707318 24.5121 0.0220184 24.3933 0.0855677C24.2745 0.149117 24.175 0.244694 24.1057 0.361913C24.0363 0.479133 23.9998 0.613512 24 0.750451Z" fill="#2F53DE" fill-opacity="0.3"/>
<path d="M36 0.750451L36 14.2508C36.0005 14.3875 36.0407 14.5215 36.1165 14.6384C36.1923 14.7552 36.3007 14.8505 36.43 14.914C36.5594 14.9775 36.7047 15.0068 36.8505 14.9987C36.9963 14.9906 37.137 14.9454 37.2574 14.8681L47.676 8.11791C48.108 7.83815 48.108 7.16463 47.676 6.88413L37.2574 0.133934C37.1373 0.0558 36.9965 0.00998072 36.8505 0.00145375C36.7044 -0.00707322 36.5587 0.0220183 36.4291 0.0855677C36.2995 0.149117 36.1909 0.244694 36.1153 0.361913C36.0396 0.479133 35.9998 0.613512 36 0.750451Z" fill="#2F53DE" fill-opacity="0.2"/>
</svg>
