<svg width="26" height="19" viewBox="0 0 26 19" fill="none" xmlns="http://www.w3.org/2000/svg">
<path d="M24.6104 8.41554C24.8761 8.68132 25.0254 9.04176 25.0254 9.41758C25.0254 9.79341 24.8761 10.1538 24.6104 10.4196L16.5926 18.4374C16.4619 18.5728 16.3055 18.6808 16.1326 18.755C15.9596 18.8293 15.7737 18.8684 15.5855 18.8701C15.3973 18.8717 15.2107 18.8358 15.0365 18.7646C14.8623 18.6933 14.704 18.5881 14.571 18.455C14.4379 18.3219 14.3326 18.1637 14.2614 17.9895C14.1901 17.8153 14.1543 17.6287 14.1559 17.4405C14.1575 17.2523 14.1966 17.0663 14.2709 16.8934C14.3452 16.7205 14.4532 16.5641 14.5885 16.4333L20.187 10.8349L1.41735 10.8349C1.04145 10.8349 0.680947 10.6856 0.415148 10.4198C0.149348 10.154 2.51923e-05 9.79348 2.52087e-05 9.41758C2.52251e-05 9.04168 0.149348 8.68118 0.415148 8.41538C0.680947 8.14958 1.04145 8.00026 1.41735 8.00026L20.187 8.00026L14.5885 2.40183C14.3304 2.13452 14.1875 1.77651 14.1907 1.40489C14.194 1.03327 14.343 0.677789 14.6058 0.415006C14.8686 0.152223 15.2241 0.00316386 15.5957 -6.5262e-05C15.9673 -0.00329439 16.3253 0.139562 16.5926 0.397739L24.6104 8.41554Z" fill="#1D1D1D"/>
</svg>
