<svg width="30" height="30" viewBox="0 0 30 30" fill="none" xmlns="http://www.w3.org/2000/svg">
<g clip-path="url(#clip0_533_2384)">
<path fill-rule="evenodd" clip-rule="evenodd" d="M15 0C6.7175 0 0 6.715 0 15C0 23.2838 6.7175 30 15 30C23.2838 30 30 23.2838 30 15C30 6.715 23.2838 0 15 0ZM19.03 22.3388C19.265 22.505 19.5675 22.5462 19.8375 22.445C20.1063 22.3425 20.305 22.1112 20.365 21.8312C20.9988 18.8538 22.5362 11.3162 23.1125 8.60875C23.1562 8.40375 23.0838 8.19125 22.9238 8.055C22.7625 7.91875 22.54 7.88 22.3425 7.9525C19.285 9.085 9.86875 12.6175 6.02 14.0413C5.77625 14.1325 5.6175 14.3663 5.625 14.625C5.63375 14.8825 5.8075 15.1063 6.0575 15.1813C7.78375 15.6975 10.0487 16.4163 10.0487 16.4163C10.0487 16.4163 11.1075 19.6137 11.6587 21.2387C11.7287 21.4437 11.8888 21.6038 12.0988 21.6587C12.31 21.7137 12.5337 21.6562 12.6912 21.5075C13.5775 20.6712 14.9475 19.3775 14.9475 19.3775C14.9475 19.3775 17.5525 21.2863 19.03 22.3388ZM11.0012 16.0112L12.2262 20.05L12.4987 17.4925C12.4987 17.4925 17.2275 13.2262 19.925 10.795C20.0037 10.7237 20.0138 10.6038 19.9487 10.52C19.8837 10.4363 19.7638 10.4162 19.675 10.4737C16.55 12.4688 11.0012 16.0112 11.0012 16.0112Z" fill="#2F53DE"/>
</g>
<defs>
<clipPath id="clip0_533_2384">
<rect width="30" height="30" fill="white"/>
</clipPath>
</defs>
</svg>
