<svg width="40" height="40" viewBox="0 0 40 40" fill="none" xmlns="http://www.w3.org/2000/svg">
<path d="M18.334 10.0002H21.6673V6.66683H18.334V10.0002ZM20.0007 20.0002C17.8895 20.0002 15.8757 19.5627 13.959 18.6877C12.0423 17.8127 10.1673 16.8335 8.33398 15.7502V13.3335C8.33398 12.4168 8.66037 11.6321 9.31315 10.9793C9.96593 10.3266 10.7507 10.0002 11.6673 10.0002H15.0007V5.00016C15.0007 4.52794 15.1604 4.13211 15.4798 3.81266C15.7993 3.49322 16.1951 3.3335 16.6673 3.3335H23.334C23.8062 3.3335 24.202 3.49322 24.5215 3.81266C24.8409 4.13211 25.0007 4.52794 25.0007 5.00016V10.0002H28.334C29.2507 10.0002 30.0354 10.3266 30.6882 10.9793C31.3409 11.6321 31.6673 12.4168 31.6673 13.3335V15.7502C29.834 16.8335 27.959 17.8127 26.0423 18.6877C24.1257 19.5627 22.1118 20.0002 20.0007 20.0002ZM11.6673 35.0002C10.7507 35.0002 9.96593 34.6738 9.31315 34.021C8.66037 33.3682 8.33398 32.5835 8.33398 31.6668V19.5002C9.88954 20.4446 11.4937 21.2502 13.1465 21.9168C14.7993 22.5835 16.5284 23.0279 18.334 23.2502V23.3335C18.334 23.8057 18.4937 24.2015 18.8132 24.521C19.1326 24.8404 19.5284 25.0002 20.0007 25.0002C20.4729 25.0002 20.8687 24.8404 21.1882 24.521C21.5076 24.2015 21.6673 23.8057 21.6673 23.3335V23.2502C23.4729 23.0279 25.202 22.5835 26.8548 21.9168C28.5076 21.2502 30.1118 20.4446 31.6673 19.5002V31.6668C31.6673 32.5835 31.3409 33.3682 30.6882 34.021C30.0354 34.6738 29.2507 35.0002 28.334 35.0002C28.334 35.4724 28.1743 35.8682 27.8548 36.1877C27.5354 36.5071 27.1395 36.6668 26.6673 36.6668C26.2229 36.6668 25.9104 36.4654 25.7298 36.0627C25.5493 35.6599 25.3062 35.3057 25.0007 35.0002H15.0007C15.0007 35.4724 14.8409 35.8682 14.5215 36.1877C14.202 36.5071 13.8062 36.6668 13.334 36.6668C12.8895 36.6668 12.577 36.4654 12.3965 36.0627C12.2159 35.6599 11.9729 35.3057 11.6673 35.0002Z" fill="#2F53DE"/>
</svg>
