<svg width="44" height="44" viewBox="0 0 44 44" fill="none" xmlns="http://www.w3.org/2000/svg">
<g clip-path="url(#clip0_533_2361)">
<path d="M5.39583 7.19442V1.79858H8.99306V7.19442H14.3889V10.7916H8.99306V16.1875H5.39583V10.7916H0V7.19442H5.39583ZM10.7917 17.9861V12.5903H16.1875V7.19442H28.7778L32.0692 10.7916H37.7708C39.7493 10.7916 41.3681 12.4104 41.3681 14.3889V35.9722C41.3681 37.9507 39.7493 39.5694 37.7708 39.5694H8.99306C7.01458 39.5694 5.39583 37.9507 5.39583 35.9722V17.9861H10.7917ZM23.3819 34.1736C28.3461 34.1736 32.375 30.1447 32.375 25.1805C32.375 20.2164 28.3461 16.1875 23.3819 16.1875C18.4178 16.1875 14.3889 20.2164 14.3889 25.1805C14.3889 30.1447 18.4178 34.1736 23.3819 34.1736ZM17.6264 25.1805C17.6264 28.3641 20.1984 30.9361 23.3819 30.9361C26.5655 30.9361 29.1375 28.3641 29.1375 25.1805C29.1375 21.997 26.5655 19.425 23.3819 19.425C20.1984 19.425 17.6264 21.997 17.6264 25.1805Z" fill="#2F53DE"/>
</g>
<defs>
<clipPath id="clip0_533_2361">
<rect width="43.1667" height="43.1667" fill="white"/>
</clipPath>
</defs>
</svg>
