<svg width="25" height="25" viewBox="0 0 25 25" fill="none" xmlns="http://www.w3.org/2000/svg">
<rect width="25" height="25" rx="4.54545" fill="#2F53DE"/>
<g clip-path="url(#clip0_533_1801)">
<path d="M18.0417 6.16665H17.25V4.58331H15.6667V6.16665H9.33333V4.58331H7.75V6.16665H6.95833C6.07958 6.16665 5.38292 6.87915 5.38292 7.74998L5.375 18.8333C5.375 19.7041 6.07958 20.4166 6.95833 20.4166H18.0417C18.9125 20.4166 19.625 19.7041 19.625 18.8333V7.74998C19.625 6.87915 18.9125 6.16665 18.0417 6.16665ZM18.0417 18.8333H6.95833V10.9166H18.0417V18.8333ZM10.125 14.0833H8.54167V12.5H10.125V14.0833ZM13.2917 14.0833H11.7083V12.5H13.2917V14.0833ZM16.4583 14.0833H14.875V12.5H16.4583V14.0833ZM10.125 17.25H8.54167V15.6666H10.125V17.25ZM13.2917 17.25H11.7083V15.6666H13.2917V17.25ZM16.4583 17.25H14.875V15.6666H16.4583V17.25Z" fill="white"/>
</g>
<defs>
<clipPath id="clip0_533_1801">
<rect width="19" height="19" fill="white" transform="translate(3 3)"/>
</clipPath>
</defs>
</svg>
