<svg width="15" height="15" viewBox="0 0 15 15" fill="none" xmlns="http://www.w3.org/2000/svg">
<g clip-path="url(#clip0_176_1801)">
<path d="M11.875 2.5H11.25V1.25H10V2.5H5V1.25H3.75V2.5H3.125C2.43125 2.5 1.88125 3.0625 1.88125 3.75L1.875 12.5C1.875 13.1875 2.43125 13.75 3.125 13.75H11.875C12.5625 13.75 13.125 13.1875 13.125 12.5V3.75C13.125 3.0625 12.5625 2.5 11.875 2.5ZM11.875 12.5H3.125V6.25H11.875V12.5ZM5.625 8.75H4.375V7.5H5.625V8.75ZM8.125 8.75H6.875V7.5H8.125V8.75ZM10.625 8.75H9.375V7.5H10.625V8.75ZM5.625 11.25H4.375V10H5.625V11.25ZM8.125 11.25H6.875V10H8.125V11.25ZM10.625 11.25H9.375V10H10.625V11.25Z" fill="black"/>
</g>
<defs>
<clipPath id="clip0_176_1801">
<rect width="15" height="15" fill="white"/>
</clipPath>
</defs>
</svg>
