<svg width="37" height="33" viewBox="0 0 37 33" fill="none" xmlns="http://www.w3.org/2000/svg">
<path fill-rule="evenodd" clip-rule="evenodd" d="M14.2597 33.0001H22.407C28.1288 33.0001 30.9907 33.0001 33.0458 31.6526C33.9328 31.0717 34.6966 30.3216 35.2935 29.4453C36.6667 27.4286 36.6667 24.6181 36.6667 19.0008C36.6667 13.3834 36.6667 10.5729 35.2935 8.55625C34.6966 7.67991 33.9328 6.92983 33.0458 6.34892C31.7258 5.48175 30.0722 5.17192 27.5403 5.06192C26.3322 5.06192 25.2927 4.16359 25.0562 2.99942C24.8754 2.14668 24.4058 1.38249 23.7267 0.835995C23.0476 0.289506 22.2007 -0.00576549 21.329 8.53065e-05H15.3377C13.5263 8.53065e-05 11.9662 1.25592 11.6105 2.99942C11.374 4.16359 10.3345 5.06192 9.12633 5.06192C6.59633 5.17192 4.94267 5.48359 3.62083 6.34892C2.73448 6.93002 1.97133 7.68008 1.375 8.55625C0 10.5729 0 13.3816 0 19.0008C0 24.6199 1.09275e-07 27.4268 1.37317 29.4453C1.96717 30.3179 2.72983 31.0678 3.62083 31.6526C5.676 33.0001 8.53783 33.0001 14.2597 33.0001ZM18.3333 11.5006C14.1148 11.5006 10.6938 14.8574 10.6938 18.9989C10.6938 23.1404 14.1167 26.5028 18.3333 26.5028C22.55 26.5028 25.9728 23.1441 25.9728 19.0026C25.9728 14.8611 22.55 11.5006 18.3333 11.5006ZM18.3333 14.4999C15.8033 14.4999 13.75 16.5148 13.75 19.0008C13.75 21.4849 15.8033 23.4998 18.3333 23.4998C20.8633 23.4998 22.9167 21.4849 22.9167 19.0008C22.9167 16.5166 20.8633 14.4999 18.3333 14.4999ZM26.9903 13.0003C26.9903 12.1716 27.6742 11.5006 28.5193 11.5006H30.5543C31.3977 11.5006 32.0833 12.1716 32.0833 13.0003C32.0795 13.4016 31.9164 13.7849 31.6301 14.0661C31.3437 14.3473 30.9575 14.5033 30.5562 14.4999H28.5193C28.3205 14.5019 28.1232 14.4646 27.9387 14.3903C27.7542 14.316 27.5862 14.206 27.4442 14.0668C27.3022 13.9275 27.1891 13.7617 27.1112 13.5787C27.0333 13.3957 26.9923 13.1991 26.9903 13.0003Z" fill="#2F53DE"/>
</svg>
