<svg width="23" height="23" viewBox="0 0 23 23" fill="none" xmlns="http://www.w3.org/2000/svg">
<path d="M9.46867 17.595C8.92961 18.1334 8.19888 18.4358 7.43701 18.4358C6.67513 18.4358 5.9444 18.1334 5.40534 17.595C4.86695 17.0559 4.56454 16.3252 4.56454 15.5633C4.56454 14.8014 4.86695 14.0707 5.40534 13.5316L8.11742 10.8196L6.76617 9.46831L4.05409 12.1804C3.15649 13.0793 2.65234 14.2978 2.65234 15.5681C2.65234 16.8384 3.15649 18.0569 4.05409 18.9558C4.99326 19.8854 6.21034 20.355 7.44659 20.355C8.68284 20.355 9.89992 19.8854 10.8391 18.9558L13.5512 16.2437L12.1999 14.8925L9.48784 17.6046L9.46867 17.595ZM12.1808 4.04414L9.46867 6.75623L10.8199 8.10747L13.532 5.39539C14.0711 4.857 14.8018 4.55459 15.5637 4.55459C16.3255 4.55459 17.0563 4.857 17.5953 5.39539C18.1337 5.93446 18.4361 6.66518 18.4361 7.42706C18.4361 8.18894 18.1337 8.91966 17.5953 9.45872L14.8833 12.1708L16.2345 13.5221L18.9466 10.81C19.8442 9.91103 20.3483 8.69261 20.3483 7.42227C20.3483 6.15192 19.8442 4.9335 18.9466 4.03456C18.0476 3.13696 16.8292 2.63281 15.5589 2.63281C14.2885 2.63281 13.0701 3.13696 12.1712 4.03456L12.1808 4.04414Z" fill="black"/>
<path d="M16.2434 8.1076L15.5629 7.43676L14.8921 6.75635L10.8192 10.8197L6.75586 14.8926L7.43628 15.5634L8.10711 16.2438L12.18 12.1805L16.2434 8.1076Z" fill="black"/>
</svg>
