<svg width="50" height="40" viewBox="0 0 50 40" fill="none" xmlns="http://www.w3.org/2000/svg">
<g clip-path="url(#clip0_176_1844)">
<path d="M12.863 16.4317C12.0902 16.4317 11.4789 17.0276 11.4789 17.8157C11.4789 18.6038 12.0902 19.1997 12.863 19.1997C13.6357 19.1997 14.247 18.6038 14.247 17.8157C14.247 17.0276 13.6357 16.4317 12.863 16.4317ZM20.7648 9.62709H15.8705V7.2767H20.233V4.92631H15.8705V2.60798H20.684V0.240838H13.2306V11.9941H20.7648V9.62709ZM15.3109 16.7213C16.0836 16.7213 16.6949 16.1254 16.6949 15.3373C16.6949 14.5492 16.0836 13.9533 15.3109 13.9533C14.5381 13.9533 13.9267 14.5492 13.9267 15.3373C13.9267 16.1254 14.5381 16.7213 15.3109 16.7213ZM5.039 12.2349C6.74607 12.2349 8.24293 11.3661 9.1284 10.0294V11.9941H11.4469V5.45825H5.23259V7.71243H7.84058C7.59974 8.91963 6.53586 9.85406 5.24791 9.85406C3.81505 9.85406 2.65524 8.69411 2.65524 7.0038V5.26466C2.65524 3.60628 3.8945 2.38246 5.63351 2.38246C6.9856 2.38246 8.1928 3.12317 8.59516 4.20222L11.0431 3.34882C10.3664 1.28796 8.17749 0 5.65026 0C2.46309 0 0.0793194 2.14149 0.0793194 5.26466V7.0038C0.0806283 10.0127 2.30157 12.2349 5.039 12.2349ZM27.6711 3.54372H25.066V7.29895H27.6711V3.54372ZM30.811 0.240838H21.8912V2.60798H30.811V0.240838ZM4.42788 25.6397H7.06793V21.1812L11.4942 13.8878H8.51584L5.73115 18.7013L2.97827 13.8878H0L4.42788 21.2132V25.6397ZM27.6711 8.23599H25.066V11.9899H27.6711V8.23599ZM47.7579 25.6397L44.5539 21.1478C46.1162 20.6645 47.2106 19.2958 47.2106 17.6222C47.2106 15.4974 45.4563 13.8864 43.2339 13.8864H41.6883V16.2687H43.1378C43.9106 16.2687 44.5065 16.8801 44.5065 17.6848C44.5065 18.4897 43.9106 19.1024 43.1378 19.1024H41.6883V21.3565L44.5539 25.6397H47.7579ZM34.6736 27.5179H30.7929V39.2865H34.6736C38.3118 39.2865 40.8878 36.7914 40.8878 33.4106C40.8878 30.0298 38.3118 27.5179 34.6736 27.5179ZM34.8823 36.9194H33.4328V29.8836H34.8823C36.847 29.8836 38.1823 31.3971 38.1823 33.4092C38.1823 35.4212 36.847 36.9194 34.8823 36.9194ZM45.1054 34.5691H49.4677V32.2187H45.1054V29.9004H49.9188V27.5347H42.4653V39.2865H49.9996V36.9194H45.1054V34.5691ZM40.8989 21.6657L39.5343 19.7317L40.8808 17.7754L39.5162 15.8427L40.8641 13.8878L38.142 13.8891L36.7941 15.8649L38.1601 17.7991L36.8122 19.7554L38.1781 21.688L36.8304 23.6457L38.2798 25.6577H41.0311L39.551 23.6234L40.8989 21.6657ZM34.888 21.0683V13.8878H32.2632V21.1171C32.2632 22.4691 31.2969 23.4675 29.977 23.4675C28.6569 23.4675 27.6906 22.4691 27.6906 21.1171V13.8878H25.066V21.0683C25.066 23.8378 27.1435 25.8819 29.977 25.8819C32.8105 25.8819 34.888 23.8365 34.888 21.0683ZM20.478 34.7626C20.478 36.1147 19.5116 37.113 18.1916 37.113C16.8717 37.113 15.9054 36.1147 15.9054 34.7626V27.5332H13.2806V34.7139C13.2806 37.4834 15.3581 39.5274 18.1916 39.5274C21.0253 39.5274 23.1026 37.4834 23.1026 34.7139V27.5332H20.478V34.7626ZM5.23259 35.0048H7.84058C7.59974 36.212 6.53586 37.1463 5.24791 37.1463C3.81518 37.1463 2.65537 35.9865 2.65537 34.2962V32.5571C2.65537 30.8987 3.8945 29.6747 5.63364 29.6747C6.98573 29.6747 8.19293 30.4156 8.59529 31.4946L11.0431 30.6411C10.3664 28.5804 8.17762 27.2924 5.65039 27.2924C2.46322 27.2924 0.0793194 29.4339 0.0793194 32.5571V34.2962C0.0793194 37.3065 2.30157 39.5288 5.0377 39.5288C6.74476 39.5288 8.24162 38.6599 9.12722 37.3233V39.288H11.4455V32.752H5.23259V35.0048Z" fill="#494949"/>
<path d="M17.291 13.6456V16.1254C19.2236 16.1254 20.7525 17.703 20.7525 19.7638C20.7525 21.8245 19.2236 23.4021 17.291 23.4021C15.3597 23.4021 13.8295 21.8245 13.8295 19.7638H11.124C11.124 23.1932 13.8615 25.882 17.2895 25.882C20.719 25.882 23.4551 23.1932 23.4551 19.7638C23.4551 16.3342 20.7204 13.6456 17.291 13.6456ZM28.089 33.0666C28.4788 32.7144 29.1319 32.1254 29.1319 31.0464C29.1319 29.9672 28.4788 29.3783 28.089 29.0259C28.0731 29.0111 28.0568 28.9967 28.0402 28.9827C27.8453 28.7782 27.8119 28.4843 27.8077 28.345V27.518H25.1636V28.618H25.1649C25.1649 28.632 25.1636 28.6444 25.1636 28.6584C25.1636 29.7375 25.8166 30.3265 26.2064 30.6787C26.4864 30.9321 26.4864 30.9447 26.4864 31.0464C26.4864 31.1479 26.4864 31.1605 26.2064 31.4139C25.8319 31.7522 25.2151 32.3121 25.1691 33.316H25.1664C25.1664 33.3354 25.1636 33.3536 25.1636 33.3716C25.1636 33.3827 25.1649 33.3926 25.1649 33.4022C25.1649 33.4134 25.1636 33.4232 25.1636 33.4329C25.1636 33.4524 25.1649 33.4704 25.1664 33.4886H25.1691C25.2151 34.4926 25.8319 35.0522 26.2064 35.3906C26.4864 35.644 26.4864 35.6566 26.4864 35.7581C26.4864 35.8598 26.4864 35.8724 26.2064 36.1258C25.8166 36.478 25.1636 37.067 25.1636 38.1461C25.1636 38.1601 25.1636 38.174 25.1649 38.1865H25.1636V39.2865H27.8077V38.4594C27.8119 38.3216 27.8453 38.0265 28.0402 37.8217C28.0555 37.8077 28.0708 37.7939 28.089 37.7786C28.4788 37.4263 29.1319 36.8373 29.1319 35.7581C29.1319 34.6791 28.4788 34.0901 28.089 33.7378C27.8398 33.5136 27.8119 33.4775 27.8092 33.4022C27.8119 33.3271 27.8398 33.2909 28.089 33.0666Z" fill="#494949"/>
</g>
<defs>
<clipPath id="clip0_176_1844">
<rect width="50" height="39.5288" fill="white"/>
</clipPath>
</defs>
</svg>
