<svg width="45" height="45" viewBox="0 0 45 45" fill="none" xmlns="http://www.w3.org/2000/svg">
<rect x="45" y="45" width="45" height="45" rx="22.5" transform="rotate(180 45 45)" fill="white" fill-opacity="0.3"/>
<path d="M17.4161 33.1891C17.3057 33.3118 17.2195 33.4561 17.1622 33.6138C17.1049 33.7715 17.0778 33.9395 17.0823 34.1082C17.0869 34.2769 17.123 34.4431 17.1887 34.5971C17.2543 34.7512 17.3482 34.8901 17.465 35.006C17.5818 35.122 17.7192 35.2126 17.8694 35.2727C18.0195 35.3329 18.1795 35.3614 18.3401 35.3566C18.5007 35.3519 18.6589 35.3139 18.8055 35.2449C18.9522 35.176 19.0845 35.0773 19.1949 34.9546L29.5933 23.39C29.8081 23.1514 29.9277 22.8355 29.9277 22.5072C29.9277 22.1789 29.8081 21.863 29.5933 21.6245L19.1949 10.0585C19.0852 9.93317 18.953 9.83194 18.8058 9.76072C18.6586 9.6895 18.4993 9.64972 18.3374 9.64367C18.1754 9.63763 18.0139 9.66545 17.8623 9.72551C17.7106 9.78558 17.5719 9.87669 17.454 9.99357C17.3362 10.1104 17.2417 10.2507 17.1759 10.4063C17.1101 10.5619 17.0744 10.7297 17.0709 10.8998C17.0674 11.07 17.0961 11.2393 17.1553 11.3977C17.2146 11.5561 17.3032 11.7006 17.4161 11.8228L27.0219 22.5072L17.4161 33.1891Z" fill="white"/>
</svg>
