<svg width="15" height="15" viewBox="0 0 15 15" fill="none" xmlns="http://www.w3.org/2000/svg">
<path d="M1.875 13.75C1.69792 13.75 1.54948 13.6901 1.42969 13.5703C1.3099 13.4505 1.25 13.3021 1.25 13.125V12.3438C1.25 12.0208 1.33333 11.7266 1.5 11.4609C1.66667 11.1953 1.89583 10.9896 2.1875 10.8438C2.72917 10.5729 3.28906 10.3646 3.86719 10.2188C4.44531 10.0729 5.03646 10 5.64062 10C6.24479 10 6.83594 10.0729 7.41406 10.2188C7.99219 10.3646 8.54688 10.5729 9.07812 10.8438C9.35938 10.9896 9.58333 11.1953 9.75 11.4609C9.91667 11.7266 10 12.0208 10 12.3438V13.125C10 13.3021 9.9401 13.4505 9.82031 13.5703C9.70052 13.6901 9.55208 13.75 9.375 13.75H1.875ZM12.5 13.75H10.9531C11.0469 13.6771 11.1198 13.5859 11.1719 13.4766C11.224 13.3672 11.25 13.2448 11.25 13.1094V12.1875C11.25 11.7917 11.1484 11.4219 10.9453 11.0781C10.7422 10.7344 10.4896 10.4323 10.1875 10.1719C10.5208 10.2552 10.8516 10.3464 11.1797 10.4453C11.5078 10.5443 11.8229 10.6719 12.125 10.8281C12.3958 10.974 12.6302 11.1615 12.8281 11.3906C13.026 11.6198 13.125 11.8854 13.125 12.1875V13.125C13.125 13.3021 13.0651 13.4505 12.9453 13.5703C12.8255 13.6901 12.6771 13.75 12.5 13.75ZM5.625 9.375C5.02083 9.375 4.50521 9.16146 4.07812 8.73438C3.65104 8.30729 3.4375 7.79167 3.4375 7.1875C3.4375 6.58333 3.65104 6.06771 4.07812 5.64062C4.50521 5.21354 5.02083 5 5.625 5C6.22917 5 6.74479 5.21354 7.17188 5.64062C7.59896 6.06771 7.8125 6.58333 7.8125 7.1875C7.8125 7.79167 7.59896 8.30729 7.17188 8.73438C6.74479 9.16146 6.22917 9.375 5.625 9.375ZM10.9375 7.1875C10.9375 7.79167 10.724 8.30729 10.2969 8.73438C9.86979 9.16146 9.35417 9.375 8.75 9.375C8.66667 9.375 8.59115 9.3724 8.52344 9.36719C8.45573 9.36198 8.38542 9.34896 8.3125 9.32812C8.57292 9.02604 8.76302 8.69271 8.88281 8.32812C9.0026 7.96354 9.0625 7.58333 9.0625 7.1875C9.0625 6.79167 9.0026 6.41146 8.88281 6.04688C8.76302 5.68229 8.57292 5.34896 8.3125 5.04688C8.38542 5.02604 8.45573 5.01302 8.52344 5.00781C8.59115 5.0026 8.66667 5 8.75 5C9.35417 5 9.86979 5.21354 10.2969 5.64062C10.724 6.06771 10.9375 6.58333 10.9375 7.1875ZM11.5625 6.25C11.5625 5.46875 11.2891 4.80469 10.7422 4.25781C10.1953 3.71094 9.53125 3.4375 8.75 3.4375C9.53125 3.4375 10.1953 3.16406 10.7422 2.61719C11.2891 2.07031 11.5625 1.40625 11.5625 0.625C11.5625 1.40625 11.8359 2.07031 12.3828 2.61719C12.9297 3.16406 13.5938 3.4375 14.375 3.4375C13.5938 3.4375 12.9297 3.71094 12.3828 4.25781C11.8359 4.80469 11.5625 5.46875 11.5625 6.25Z" fill="black"/>
</svg>
