<svg width="44" height="22" viewBox="0 0 44 22" fill="none" xmlns="http://www.w3.org/2000/svg">
<path d="M11 0C3.795 0 0 5.555 0 11C0 16.445 3.795 22 11 22C15.345 22 18.81 18.92 22 15.29C25.19 18.92 28.545 22 33 22C40.205 22 44 16.445 44 11C44 5.555 40.205 0 33 0C28.545 0 25.19 3.08 22 6.71C18.81 3.08 15.345 0 11 0ZM11 5.5C13.31 5.5 15.84 8.085 18.37 11C15.84 13.915 13.31 16.5 11 16.5C6.93 16.5 5.5 13.53 5.5 11C5.5 8.47 6.93 5.5 11 5.5ZM33 5.5C37.07 5.5 38.5 8.47 38.5 11C38.5 13.53 37.07 16.5 33 16.5C30.635 16.5 28.105 13.915 25.63 11C28.16 8.085 30.635 5.5 33 5.5Z" fill="#2F53DE"/>
</svg>
