<svg width="14" height="14" viewBox="0 0 14 14" fill="none" xmlns="http://www.w3.org/2000/svg">
<g clip-path="url(#clip0_176_2131)">
<path d="M8.65025 3.67617C8.21975 3.65633 8.09025 3.65283 7 3.65283C5.90975 3.65283 5.78083 3.65692 5.35033 3.67617C4.24258 3.72692 3.72692 4.25133 3.67617 5.35033C3.65692 5.78083 3.65225 5.90975 3.65225 7C3.65225 8.09025 3.65692 8.21917 3.67617 8.65025C3.72692 9.74633 4.24025 10.2737 5.35033 10.3244C5.78025 10.3437 5.90975 10.3483 7 10.3483C8.09083 10.3483 8.21975 10.3442 8.65025 10.3244C9.758 10.2742 10.2731 9.74808 10.3244 8.65025C10.3437 8.21975 10.3477 8.09025 10.3477 7C10.3477 5.90975 10.3437 5.78083 10.3244 5.35033C10.2731 4.25192 9.75683 3.72692 8.65025 3.67617ZM7 9.09708C5.84208 9.09708 4.90292 8.1585 4.90292 7C4.90292 5.84208 5.84208 4.9035 7 4.9035C8.15792 4.9035 9.09708 5.84208 9.09708 7C9.09708 8.15792 8.15792 9.09708 7 9.09708ZM9.17992 5.31067C8.90925 5.31067 8.68992 5.09133 8.68992 4.82067C8.68992 4.55 8.90925 4.33067 9.17992 4.33067C9.45058 4.33067 9.66992 4.55 9.66992 4.82067C9.66992 5.09075 9.45058 5.31067 9.17992 5.31067ZM8.36092 7C8.36092 7.75192 7.75133 8.36092 7 8.36092C6.24867 8.36092 5.63908 7.75192 5.63908 7C5.63908 6.24808 6.24867 5.63908 7 5.63908C7.75133 5.63908 8.36092 6.24808 8.36092 7ZM7 0C3.13425 0 0 3.13425 0 7C0 10.8657 3.13425 14 7 14C10.8657 14 14 10.8657 14 7C14 3.13425 10.8657 0 7 0ZM11.0588 8.6835C10.9917 10.1681 10.1652 10.9906 8.68408 11.0588C8.24833 11.0787 8.10892 11.0833 7 11.0833C5.89108 11.0833 5.75225 11.0787 5.3165 11.0588C3.8325 10.9906 3.00942 10.1669 2.94117 8.6835C2.92133 8.24833 2.91667 8.10892 2.91667 7C2.91667 5.89108 2.92133 5.75225 2.94117 5.3165C3.00942 3.8325 3.83308 3.00942 5.3165 2.94175C5.75225 2.92133 5.89108 2.91667 7 2.91667C8.10892 2.91667 8.24833 2.92133 8.68408 2.94175C10.1687 3.01 10.9923 3.83542 11.0588 5.3165C11.0787 5.75225 11.0833 5.89108 11.0833 7C11.0833 8.10892 11.0787 8.24833 11.0588 8.6835Z" fill="#151517"/>
</g>
<defs>
<clipPath id="clip0_176_2131">
<rect width="14" height="14" fill="white"/>
</clipPath>
</defs>
</svg>
