<svg width="25" height="25" viewBox="0 0 25 25" fill="none" xmlns="http://www.w3.org/2000/svg">
<rect width="25" height="25" rx="4.54545" fill="#2F53DE"/>
<g clip-path="url(#clip0_533_1760)">
<path d="M12.4923 5.41663C8.58227 5.41663 5.41602 8.58996 5.41602 12.5C5.41602 16.41 8.58227 19.5833 12.4923 19.5833C16.4093 19.5833 19.5827 16.41 19.5827 12.5C19.5827 8.58996 16.4093 5.41663 12.4923 5.41663ZM17.401 9.66663H15.3114C15.0848 8.78121 14.7589 7.93121 14.3339 7.14496C15.6373 7.59121 16.721 8.49788 17.401 9.66663ZM12.4993 6.86163C13.0873 7.71163 13.5477 8.65371 13.8523 9.66663H11.1464C11.451 8.65371 11.9114 7.71163 12.4993 6.86163ZM7.01685 13.9166C6.90352 13.4633 6.83268 12.9887 6.83268 12.5C6.83268 12.0112 6.90352 11.5366 7.01685 11.0833H9.41102C9.35435 11.5508 9.31185 12.0183 9.31185 12.5C9.31185 12.9816 9.35435 13.4491 9.41102 13.9166H7.01685ZM7.59768 15.3333H9.68727C9.91393 16.2187 10.2398 17.0687 10.6648 17.855C9.36143 17.4087 8.27768 16.5091 7.59768 15.3333ZM9.68727 9.66663H7.59768C8.27768 8.49079 9.36143 7.59121 10.6648 7.14496C10.2398 7.93121 9.91393 8.78121 9.68727 9.66663ZM12.4993 18.1383C11.9114 17.2883 11.451 16.3462 11.1464 15.3333H13.8523C13.5477 16.3462 13.0873 17.2883 12.4993 18.1383ZM14.1568 13.9166H10.8418C10.7781 13.4491 10.7285 12.9816 10.7285 12.5C10.7285 12.0183 10.7781 11.5437 10.8418 11.0833H14.1568C14.2206 11.5437 14.2702 12.0183 14.2702 12.5C14.2702 12.9816 14.2206 13.4491 14.1568 13.9166ZM14.3339 17.855C14.7589 17.0687 15.0848 16.2187 15.3114 15.3333H17.401C16.721 16.502 15.6373 17.4087 14.3339 17.855ZM15.5877 13.9166C15.6444 13.4491 15.6868 12.9816 15.6868 12.5C15.6868 12.0183 15.6444 11.5508 15.5877 11.0833H17.9818C18.0952 11.5366 18.166 12.0112 18.166 12.5C18.166 12.9887 18.0952 13.4633 17.9818 13.9166H15.5877Z" fill="white"/>
</g>
<defs>
<clipPath id="clip0_533_1760">
<rect width="17" height="17" fill="white" transform="translate(4 4)"/>
</clipPath>
</defs>
</svg>
