<svg width="20" height="20" viewBox="0 0 20 20" fill="none" xmlns="http://www.w3.org/2000/svg">
<path d="M9.99935 9.58332C9.44682 9.58332 8.91691 9.36383 8.52621 8.97313C8.13551 8.58243 7.91602 8.05252 7.91602 7.49999C7.91602 6.94746 8.13551 6.41755 8.52621 6.02685C8.91691 5.63615 9.44682 5.41666 9.99935 5.41666C10.5519 5.41666 11.0818 5.63615 11.4725 6.02685C11.8632 6.41755 12.0827 6.94746 12.0827 7.49999C12.0827 7.77358 12.0288 8.04449 11.9241 8.29725C11.8194 8.55001 11.6659 8.77967 11.4725 8.97313C11.279 9.16658 11.0494 9.32004 10.7966 9.42474C10.5438 9.52944 10.2729 9.58332 9.99935 9.58332ZM9.99935 1.66666C8.45225 1.66666 6.96852 2.28124 5.87456 3.3752C4.7806 4.46916 4.16602 5.95289 4.16602 7.49999C4.16602 11.875 9.99935 18.3333 9.99935 18.3333C9.99935 18.3333 15.8327 11.875 15.8327 7.49999C15.8327 5.95289 15.2181 4.46916 14.1241 3.3752C13.0302 2.28124 11.5464 1.66666 9.99935 1.66666Z" fill="#2F53DE"/>
</svg>
