<svg width="15" height="15" viewBox="0 0 15 15" fill="none" xmlns="http://www.w3.org/2000/svg">
<path d="M7.50089 7.5C7.84464 7.5 8.13901 7.3775 8.38401 7.1325C8.62859 6.88792 8.75089 6.59375 8.75089 6.25C8.75089 5.90625 8.62859 5.61187 8.38401 5.36687C8.13901 5.12229 7.84464 5 7.50089 5C7.15714 5 6.86297 5.12229 6.61839 5.36687C6.37339 5.61187 6.25089 5.90625 6.25089 6.25C6.25089 6.59375 6.37339 6.88792 6.61839 7.1325C6.86297 7.3775 7.15714 7.5 7.50089 7.5ZM7.50089 13.5156C7.41755 13.5156 7.33422 13.5 7.25089 13.4687C7.16755 13.4375 7.09464 13.3958 7.03214 13.3437C5.5113 12 4.37589 10.7527 3.62589 9.60187C2.87589 8.45062 2.50089 7.375 2.50089 6.375C2.50089 4.8125 3.00359 3.56771 4.00901 2.64062C5.01401 1.71354 6.17797 1.25 7.50089 1.25C8.8238 1.25 9.98776 1.71354 10.9928 2.64062C11.9982 3.56771 12.5009 4.8125 12.5009 6.375C12.5009 7.375 12.1259 8.45062 11.3759 9.60187C10.6259 10.7527 9.49047 12 7.96964 13.3437C7.90714 13.3958 7.83422 13.4375 7.75089 13.4687C7.66755 13.5 7.58422 13.5156 7.50089 13.5156Z" fill="#1E1E1E"/>
</svg>
