<svg width="106" height="49" viewBox="0 0 106 49" fill="none" xmlns="http://www.w3.org/2000/svg">
<path d="M10.1548 4.23212V7.4522H0V4.23212H10.1548ZM2.50707 0H6.67018V16.5835C6.67018 17.1431 6.75452 17.5725 6.92319 17.8715C7.09953 18.1628 7.32953 18.3622 7.61321 18.4695C7.89688 18.5768 8.21123 18.6305 8.55623 18.6305C8.81691 18.6305 9.05458 18.6113 9.26925 18.573C9.49159 18.5347 9.66026 18.5002 9.77527 18.4695L10.4768 21.7241C10.2544 21.8008 9.93627 21.8851 9.52226 21.9771C9.11592 22.0691 8.61757 22.1228 8.02722 22.1381C6.98453 22.1688 6.04533 22.0116 5.20964 21.6666C4.37395 21.3139 3.71077 20.7696 3.22009 20.0336C2.73708 19.2975 2.4994 18.3775 2.50707 17.2735V0Z" fill="white"/>
<path d="M21.9807 14.4674V4.23212H26.1438V21.8966H22.1072V18.757H21.9232C21.5245 19.746 20.869 20.5549 19.9566 21.1836C19.0519 21.8123 17.9364 22.1266 16.61 22.1266C15.4523 22.1266 14.4288 21.8698 13.5394 21.3561C12.6577 20.8347 11.9677 20.0795 11.4694 19.0905C10.971 18.0938 10.7219 16.8901 10.7219 15.4794V4.23212H14.885V14.8354C14.885 15.9548 15.1916 16.8441 15.805 17.5035C16.4184 18.1628 17.2234 18.4925 18.2201 18.4925C18.8334 18.4925 19.4276 18.343 20.0026 18.044C20.5776 17.745 21.0491 17.3003 21.4172 16.71C21.7928 16.1119 21.9807 15.3644 21.9807 14.4674Z" fill="white"/>
<path d="M41.4715 8.90124L37.6764 9.31526C37.5691 8.93191 37.3812 8.57157 37.1129 8.23423C36.8522 7.89688 36.4995 7.62471 36.0549 7.4177C35.6102 7.2107 35.0658 7.10719 34.4218 7.10719C33.5555 7.10719 32.8271 7.29503 32.2368 7.67071C31.6541 8.04639 31.3666 8.53323 31.3742 9.13125C31.3666 9.64493 31.5544 10.0628 31.9378 10.3848C32.3288 10.7068 32.9728 10.9713 33.8698 11.1783L36.8829 11.8223C38.5543 12.1827 39.7963 12.7538 40.609 13.5359C41.4293 14.3179 41.8434 15.3414 41.851 16.6065C41.8434 17.7182 41.5175 18.6995 40.8735 19.5505C40.2371 20.3939 39.3516 21.0532 38.2169 21.5286C37.0822 22.0039 35.7789 22.2416 34.3068 22.2416C32.1448 22.2416 30.4044 21.7893 29.0857 20.8846C27.767 19.9722 26.9811 18.7033 26.7281 17.078L30.7877 16.687C30.9717 17.4843 31.3627 18.0862 31.9608 18.4925C32.5588 18.8989 33.337 19.102 34.2953 19.102C35.2843 19.102 36.0779 18.8989 36.6759 18.4925C37.2816 18.0862 37.5844 17.584 37.5844 16.986C37.5844 16.48 37.3889 16.0621 36.9979 15.7324C36.6146 15.4028 36.0165 15.1497 35.2038 14.9734L32.1908 14.3409C30.4964 13.9882 29.2428 13.394 28.4302 12.5583C27.6175 11.715 27.215 10.6493 27.2226 9.36126C27.215 8.27256 27.5101 7.32953 28.1082 6.53218C28.7138 5.72716 29.5534 5.10614 30.6267 4.66913C31.7078 4.22445 32.9536 4.00211 34.3643 4.00211C36.4344 4.00211 38.0636 4.44296 39.252 5.32465C40.448 6.20634 41.1878 7.39854 41.4715 8.90124Z" fill="white"/>
<path d="M50.0744 22.2416C48.3111 22.2416 46.7969 21.8544 45.5318 21.0801C44.2745 20.3057 43.3046 19.2362 42.6222 17.8715C41.9476 16.4991 41.6102 14.9197 41.6102 13.1334C41.6102 11.3393 41.9552 9.7561 42.6452 8.38373C43.3353 7.00369 44.309 5.93033 45.5663 5.16364C46.8314 4.38929 48.3264 4.00211 50.0514 4.00211C51.4851 4.00211 52.754 4.26662 53.858 4.79563C54.9697 5.31698 55.8553 6.05683 56.5146 7.01519C57.174 7.96588 57.5496 9.07758 57.6417 10.3503H53.6625C53.5015 9.49926 53.1182 8.79007 52.5125 8.22272C51.9145 7.64771 51.1133 7.3602 50.1089 7.3602C49.2579 7.3602 48.5104 7.59021 47.8664 8.05022C47.2224 8.50257 46.7202 9.15425 46.3598 10.0053C46.0072 10.8563 45.8308 11.876 45.8308 13.0644C45.8308 14.2681 46.0072 15.3031 46.3598 16.1694C46.7125 17.0281 47.207 17.6913 47.8434 18.159C48.4874 18.619 49.2426 18.849 50.1089 18.849C50.7223 18.849 51.2705 18.734 51.7535 18.504C52.2442 18.2663 52.6544 17.9252 52.984 17.4805C53.3137 17.0358 53.5399 16.4953 53.6625 15.8589H57.6417C57.542 17.1086 57.174 18.2165 56.5376 19.1825C55.9013 20.1409 55.0349 20.8922 53.9385 21.4366C52.8422 21.9733 51.5541 22.2416 50.0744 22.2416Z" fill="white"/>
<path d="M63.2286 22.2531C62.1093 22.2531 61.1011 22.0538 60.204 21.6551C59.3147 21.2487 58.6093 20.6507 58.088 19.861C57.5743 19.0714 57.3175 18.0977 57.3175 16.94C57.3175 15.9433 57.5015 15.1191 57.8695 14.4674C58.2375 13.8157 58.7397 13.2944 59.376 12.9034C60.0124 12.5123 60.7292 12.2172 61.5266 12.0178C62.3316 11.8108 63.1634 11.6613 64.0221 11.5693C65.0572 11.462 65.8967 11.3661 66.5407 11.2818C67.1847 11.1898 67.6524 11.0518 67.9437 10.8678C68.2428 10.6761 68.3923 10.381 68.3923 9.98227V9.91327C68.3923 9.04692 68.1354 8.37606 67.6217 7.90072C67.1081 7.42537 66.3682 7.1877 65.4022 7.1877C64.3825 7.1877 63.5736 7.41004 62.9756 7.85472C62.3853 8.29939 61.9866 8.82458 61.7796 9.43026L57.8925 8.87824C58.1991 7.80488 58.7052 6.90786 59.4105 6.18717C60.1159 5.45882 60.9784 4.91447 61.9981 4.55412C63.0178 4.18612 64.1448 4.00211 65.3792 4.00211C66.2302 4.00211 67.0774 4.10178 67.9207 4.30112C68.7641 4.50046 69.5346 4.83013 70.2323 5.29014C70.93 5.74249 71.4897 6.35967 71.9114 7.1417C72.3407 7.92372 72.5554 8.90124 72.5554 10.0743V21.8966H68.5533V19.47H68.4153C68.1623 19.9607 67.8057 20.4207 67.3457 20.8501C66.8934 21.2717 66.3222 21.6129 65.6322 21.8736C64.9498 22.1266 64.1486 22.2531 63.2286 22.2531ZM64.3096 19.194C65.1453 19.194 65.8699 19.0292 66.4832 18.6995C67.0966 18.3622 67.5681 17.9175 67.8978 17.3655C68.2351 16.8135 68.4038 16.2116 68.4038 15.5599V13.4784C68.2734 13.5857 68.0511 13.6854 67.7367 13.7774C67.4301 13.8694 67.0851 13.9499 66.7017 14.0189C66.3184 14.0879 65.9389 14.1492 65.5632 14.2029C65.1875 14.2566 64.8617 14.3026 64.5857 14.3409C63.9646 14.4252 63.4088 14.5632 62.9181 14.7549C62.4274 14.9466 62.0403 15.2149 61.7566 15.5599C61.4729 15.8973 61.3311 16.3343 61.3311 16.871C61.3311 17.6376 61.6109 18.2165 62.1706 18.6075C62.7303 18.9985 63.4433 19.194 64.3096 19.194Z" fill="white"/>
<path d="M77.99 11.5463V21.8966H73.8269V4.23212H77.806V7.2337H78.013C78.4193 6.24467 79.0672 5.45882 79.9565 4.87613C80.8535 4.29345 81.9614 4.00211 83.2801 4.00211C84.4991 4.00211 85.561 4.26278 86.4657 4.78413C87.3781 5.30548 88.0834 6.06067 88.5818 7.04969C89.0878 8.03872 89.3369 9.23859 89.3293 10.6493V21.8966H85.1662V11.2933C85.1662 10.1126 84.8595 9.18875 84.2461 8.52173C83.6404 7.85472 82.8009 7.52121 81.7276 7.52121C80.9992 7.52121 80.3514 7.68221 79.784 8.00422C79.2243 8.31856 78.7835 8.77474 78.4615 9.37276C78.1471 9.97077 77.99 10.6953 77.99 11.5463Z" fill="white"/>
<path d="M92.6018 28.5208C92.0345 28.5208 91.5093 28.4748 91.0263 28.3828C90.5509 28.2984 90.1714 28.1988 89.8877 28.0838L90.8538 24.8407C91.4594 25.017 92 25.1014 92.4753 25.0937C92.9507 25.086 93.3685 24.9365 93.7288 24.6452C94.0968 24.3615 94.4074 23.8862 94.6604 23.2191L95.0169 22.2646L88.6112 4.23212H93.0273L97.0984 17.5725H97.2824L101.365 4.23212H105.793L98.72 24.0357C98.3903 24.971 97.9533 25.7722 97.4089 26.4392C96.8646 27.1139 96.1976 27.6276 95.4079 27.9803C94.6259 28.3406 93.6905 28.5208 92.6018 28.5208Z" fill="white"/>
<path d="M1.13861 48.6606V31.1927H2.56945V33.616H2.74314C2.91958 33.2356 3.16219 32.8468 3.47097 32.4498C3.77974 32.0473 4.18777 31.7082 4.69504 31.4325C5.20783 31.1569 5.85295 31.019 6.6304 31.019C7.67804 31.019 8.59334 31.2947 9.3763 31.8461C10.1648 32.392 10.7768 33.1584 11.2124 34.1454C11.6535 35.1268 11.8741 36.2709 11.8741 37.5777C11.8741 38.89 11.6535 40.0397 11.2124 41.0266C10.7768 42.0136 10.1648 42.7828 9.3763 43.3342C8.59334 43.8856 7.68355 44.1613 6.64695 44.1613C5.88052 44.1613 5.23816 44.0234 4.71986 43.7477C4.20707 43.472 3.79077 43.1329 3.47097 42.7304C3.15668 42.3224 2.91407 41.9254 2.74314 41.5394H2.61081V48.6606H1.13861ZM2.59427 37.5529C2.59427 38.5785 2.7459 39.4883 3.04916 40.2823C3.35793 41.0708 3.79904 41.6911 4.37248 42.1432C4.95144 42.5898 5.6517 42.8131 6.47326 42.8131C7.31688 42.8131 8.02816 42.5816 8.60712 42.1184C9.19159 41.6497 9.63545 41.0184 9.93871 40.2244C10.2475 39.4304 10.4019 38.5399 10.4019 37.5529C10.4019 36.577 10.2502 35.6975 9.94699 34.9145C9.64924 34.1316 9.20813 33.5113 8.62366 33.0536C8.03919 32.5905 7.32239 32.3589 6.47326 32.3589C5.64618 32.3589 4.94317 32.5822 4.36421 33.0288C3.78526 33.4699 3.34415 34.0819 3.04089 34.8649C2.74314 35.6424 2.59427 36.5384 2.59427 37.5529Z" fill="white"/>
<path d="M14.4799 35.9567V43.8966H13.0077V26.9581H14.4799V33.1859H14.6122C14.9099 32.5298 15.3704 32.006 15.9934 31.6145C16.622 31.223 17.416 31.0273 18.3754 31.0273C19.2356 31.0273 19.991 31.2037 20.6416 31.5566C21.2922 31.9095 21.7995 32.4305 22.1634 33.1198C22.5273 33.809 22.7093 34.6581 22.7093 35.6672V43.8966H21.2288V35.7582C21.2288 34.7105 20.9366 33.8862 20.3521 33.2852C19.7732 32.6787 18.9902 32.3754 18.0032 32.3754C17.325 32.3754 16.7212 32.5188 16.1919 32.8055C15.6626 33.0922 15.2435 33.5058 14.9348 34.0461C14.6315 34.581 14.4799 35.2178 14.4799 35.9567Z" fill="white"/>
<path d="M29.4277 44.1613C28.3305 44.1613 27.36 43.8828 26.5164 43.3259C25.6783 42.769 25.0222 41.9998 24.548 41.0184C24.0738 40.0314 23.8367 38.8928 23.8367 37.6025C23.8367 36.3013 24.0738 35.1572 24.548 34.1702C25.0222 33.1777 25.6783 32.4057 26.5164 31.8544C27.36 31.2975 28.3305 31.019 29.4277 31.019C30.525 31.019 31.4927 31.2975 32.3308 31.8544C33.1689 32.4113 33.825 33.1832 34.2992 34.1702C34.7789 35.1572 35.0188 36.3013 35.0188 37.6025C35.0188 38.8928 34.7817 40.0314 34.3075 41.0184C33.8333 41.9998 33.1744 42.769 32.3308 43.3259C31.4927 43.8828 30.525 44.1613 29.4277 44.1613ZM29.4277 42.8131C30.3099 42.8131 31.0571 42.576 31.6691 42.1018C32.2811 41.6277 32.7443 40.9963 33.0586 40.2078C33.3784 39.4194 33.5383 38.5509 33.5383 37.6025C33.5383 36.6542 33.3784 35.783 33.0586 34.989C32.7443 34.195 32.2811 33.5581 31.6691 33.0784C31.0571 32.5987 30.3099 32.3589 29.4277 32.3589C28.551 32.3589 27.8039 32.5987 27.1863 33.0784C26.5743 33.5581 26.1084 34.195 25.7886 34.989C25.4743 35.783 25.3171 36.6542 25.3171 37.6025C25.3171 38.5509 25.4743 39.4194 25.7886 40.2078C26.1084 40.9963 26.5743 41.6277 27.1863 42.1018C27.7984 42.576 28.5455 42.8131 29.4277 42.8131Z" fill="white"/>
<path d="M41.1582 31.1927V32.4747H35.0958V31.1927H41.1582ZM36.9898 28.149H38.4702V40.58C38.4702 41.1094 38.5612 41.5256 38.7432 41.8289C38.9251 42.1267 39.1622 42.3389 39.4545 42.4658C39.7467 42.5871 40.0582 42.6477 40.3891 42.6477C40.582 42.6477 40.7475 42.6367 40.8853 42.6146C41.0232 42.5871 41.1445 42.5595 41.2492 42.5319L41.5635 43.8635C41.4201 43.9187 41.2437 43.9683 41.0342 44.0124C40.8247 44.062 40.5655 44.0868 40.2567 44.0868C39.7164 44.0868 39.1953 43.9683 38.6936 43.7312C38.1973 43.4941 37.7893 43.1412 37.4695 42.6725C37.1497 42.2038 36.9898 41.6221 36.9898 40.9274V28.149Z" fill="white"/>
<path d="M47.2067 44.1613C46.1095 44.1613 45.139 43.8828 44.2954 43.3259C43.4573 42.769 42.8012 41.9998 42.327 41.0184C41.8528 40.0314 41.6157 38.8928 41.6157 37.6025C41.6157 36.3013 41.8528 35.1572 42.327 34.1702C42.8012 33.1777 43.4573 32.4057 44.2954 31.8544C45.139 31.2975 46.1095 31.019 47.2067 31.019C48.304 31.019 49.2717 31.2975 50.1098 31.8544C50.9479 32.4113 51.604 33.1832 52.0782 34.1702C52.5579 35.1572 52.7978 36.3013 52.7978 37.6025C52.7978 38.8928 52.5607 40.0314 52.0865 41.0184C51.6123 41.9998 50.9534 42.769 50.1098 43.3259C49.2717 43.8828 48.304 44.1613 47.2067 44.1613ZM47.2067 42.8131C48.089 42.8131 48.8361 42.576 49.4481 42.1018C50.0602 41.6277 50.5233 40.9963 50.8376 40.2078C51.1574 39.4194 51.3173 38.5509 51.3173 37.6025C51.3173 36.6542 51.1574 35.783 50.8376 34.989C50.5233 34.195 50.0602 33.5581 49.4481 33.0784C48.8361 32.5987 48.089 32.3589 47.2067 32.3589C46.33 32.3589 45.5829 32.5987 44.9654 33.0784C44.3533 33.5581 43.8874 34.195 43.5676 34.989C43.2533 35.783 43.0962 36.6542 43.0962 37.6025C43.0962 38.5509 43.2533 39.4194 43.5676 40.2078C43.8874 40.9963 44.3533 41.6277 44.9654 42.1018C45.5774 42.576 46.3245 42.8131 47.2067 42.8131Z" fill="white"/>
<path d="M63.3916 31.1927V32.4747H57.3291V31.1927H63.3916ZM59.2231 28.149H60.7036V40.58C60.7036 41.1094 60.7945 41.5256 60.9765 41.8289C61.1585 42.1267 61.3956 42.3389 61.6878 42.4658C61.98 42.5871 62.2916 42.6477 62.6224 42.6477C62.8154 42.6477 62.9808 42.6367 63.1186 42.6146C63.2565 42.5871 63.3778 42.5595 63.4825 42.5319L63.7968 43.8635C63.6535 43.9187 63.477 43.9683 63.2675 44.0124C63.058 44.062 62.7988 44.0868 62.4901 44.0868C61.9497 44.0868 61.4286 43.9683 60.9269 43.7312C60.4306 43.4941 60.0226 43.1412 59.7028 42.6725C59.383 42.2038 59.2231 41.6221 59.2231 40.9274V28.149Z" fill="white"/>
<path d="M69.4401 44.1613C68.3428 44.1613 67.3724 43.8828 66.5288 43.3259C65.6907 42.769 65.0345 41.9998 64.5603 41.0184C64.0861 40.0314 63.849 38.8928 63.849 37.6025C63.849 36.3013 64.0861 35.1572 64.5603 34.1702C65.0345 33.1777 65.6907 32.4057 66.5288 31.8544C67.3724 31.2975 68.3428 31.019 69.4401 31.019C70.5373 31.019 71.505 31.2975 72.3431 31.8544C73.1812 32.4113 73.8374 33.1832 74.3116 34.1702C74.7913 35.1572 75.0311 36.3013 75.0311 37.6025C75.0311 38.8928 74.794 40.0314 74.3198 41.0184C73.8456 41.9998 73.1867 42.769 72.3431 43.3259C71.505 43.8828 70.5373 44.1613 69.4401 44.1613ZM69.4401 42.8131C70.3223 42.8131 71.0694 42.576 71.6814 42.1018C72.2935 41.6277 72.7566 40.9963 73.0709 40.2078C73.3907 39.4194 73.5506 38.5509 73.5506 37.6025C73.5506 36.6542 73.3907 35.783 73.0709 34.989C72.7566 34.195 72.2935 33.5581 71.6814 33.0784C71.0694 32.5987 70.3223 32.3589 69.4401 32.3589C68.5634 32.3589 67.8162 32.5987 67.1987 33.0784C66.5867 33.5581 66.1207 34.195 65.8009 34.989C65.4866 35.783 65.3295 36.6542 65.3295 37.6025C65.3295 38.5509 65.4866 39.4194 65.8009 40.2078C66.1207 40.9963 66.5867 41.6277 67.1987 42.1018C67.8107 42.576 68.5579 42.8131 69.4401 42.8131Z" fill="white"/>
<path d="M84.2391 39.0417V31.1927H85.7113V43.8966H84.2391V41.7876H84.1233C83.8255 42.4382 83.3541 42.9813 82.709 43.4169C82.0638 43.847 81.2754 44.062 80.3435 44.062C79.533 44.062 78.8134 43.8856 78.1848 43.5327C77.5563 43.1743 77.0628 42.6505 76.7044 41.9612C76.346 41.272 76.1668 40.4256 76.1668 39.4221V31.1927H77.639V39.3311C77.639 40.3236 77.9312 41.1231 78.5157 41.7297C79.1001 42.3307 79.85 42.6312 80.7653 42.6312C81.3388 42.6312 81.8902 42.4933 82.4195 42.2176C82.9488 41.9419 83.3844 41.5394 83.7263 41.0101C84.0681 40.4753 84.2391 39.8191 84.2391 39.0417Z" fill="white"/>
<path d="M87.5127 43.8966V31.1927H88.9435V33.1446H89.0511C89.3047 32.505 89.7458 31.9894 90.3744 31.598C91.0085 31.201 91.7253 31.0025 92.5248 31.0025C92.6461 31.0025 92.7812 31.0052 92.9301 31.0107C93.0789 31.0162 93.203 31.0218 93.3022 31.0273V32.5243C93.2361 32.5133 93.1203 32.4967 92.9549 32.4747C92.7895 32.4526 92.6103 32.4416 92.4173 32.4416C91.7556 32.4416 91.1656 32.5822 90.6473 32.8634C90.1345 33.1391 89.7293 33.5223 89.4315 34.013C89.1338 34.5038 88.9849 35.0634 88.9849 35.692V43.8966H87.5127Z" fill="white"/>
<path d="M102.254 33.9799L100.906 34.3604C100.773 33.9799 100.586 33.6353 100.343 33.3265C100.101 33.0178 99.7836 32.7724 99.3921 32.5905C99.0061 32.4085 98.5264 32.3175 97.953 32.3175C97.0928 32.3175 96.3871 32.5215 95.8357 32.9296C95.2843 33.3376 95.0086 33.8642 95.0086 34.5093C95.0086 35.0551 95.1961 35.499 95.571 35.8409C95.9515 36.1772 96.5359 36.4446 97.3244 36.6431L99.2432 37.1146C100.307 37.3737 101.104 37.7845 101.633 38.3469C102.168 38.9093 102.436 39.6151 102.436 40.4642C102.436 41.181 102.237 41.8179 101.84 42.3748C101.443 42.9317 100.889 43.37 100.178 43.6898C99.4721 44.0041 98.6532 44.1613 97.7214 44.1613C96.4808 44.1613 95.458 43.8828 94.6529 43.3259C93.8479 42.7635 93.3324 41.953 93.1063 40.8943L94.5206 40.5469C94.7026 41.3023 95.0582 41.873 95.5875 42.259C96.1224 42.645 96.8254 42.8379 97.6966 42.8379C98.6725 42.8379 99.4528 42.6201 100.037 42.1846C100.622 41.7434 100.914 41.1921 100.914 40.5304C100.914 40.0176 100.743 39.5875 100.401 39.2402C100.059 38.8873 99.541 38.6281 98.8462 38.4627L96.7703 37.9665C95.6675 37.7018 94.8514 37.2827 94.3221 36.7093C93.7928 36.1359 93.5281 35.4246 93.5281 34.5754C93.5281 33.8752 93.7184 33.2604 94.0988 32.7311C94.4793 32.1962 95.0031 31.7772 95.6703 31.4739C96.3374 31.1706 97.0983 31.019 97.953 31.019C99.1164 31.019 100.045 31.2837 100.74 31.813C101.44 32.3368 101.945 33.0591 102.254 33.9799Z" fill="white"/>
</svg>
