<svg width="130" height="60" viewBox="0 0 130 60" fill="none" xmlns="http://www.w3.org/2000/svg">
<path d="M12.4784 5.2005V9.15741H0V5.2005H12.4784ZM3.08073 0H8.19644V20.3781C8.19644 21.0658 8.30008 21.5934 8.50734 21.9608C8.72403 22.3188 9.00667 22.5638 9.35525 22.6957C9.70384 22.8276 10.0901 22.8935 10.5141 22.8935C10.8344 22.8935 11.1264 22.87 11.3902 22.8229C11.6634 22.7758 11.8707 22.7334 12.012 22.6957L12.8741 26.695C12.6009 26.7892 12.2099 26.8928 11.7011 27.0059C11.2018 27.1189 10.5894 27.1849 9.864 27.2037C8.58271 27.2414 7.42862 27.0483 6.40171 26.6243C5.37479 26.1909 4.55986 25.522 3.9569 24.6176C3.36337 23.7132 3.07131 22.5826 3.08073 21.226V0Z" fill="#151517"/>
<path d="M27.0103 17.7778V5.2005H32.126V26.907H27.1657V23.049H26.9396C26.4497 24.2643 25.6442 25.2582 24.5231 26.0308C23.4114 26.8033 22.0406 27.1896 20.4107 27.1896C18.9881 27.1896 17.7304 26.874 16.6375 26.2428C15.5541 25.6021 14.7062 24.6741 14.0938 23.4588C13.4814 22.234 13.1752 20.7549 13.1752 19.0214V5.2005H18.2909V18.23C18.2909 19.6055 18.6678 20.6984 19.4215 21.5086C20.1752 22.3188 21.1644 22.7239 22.3892 22.7239C23.1429 22.7239 23.873 22.5402 24.5796 22.1728C25.2862 21.8054 25.8656 21.2589 26.3178 20.5335C26.7794 19.7987 27.0103 18.8801 27.0103 17.7778Z" fill="#151517"/>
<path d="M50.961 10.938L46.2975 11.4468C46.1656 10.9757 45.9348 10.5329 45.605 10.1184C45.2847 9.70384 44.8513 9.36938 44.3049 9.11501C43.7585 8.86064 43.0896 8.73345 42.2982 8.73345C41.2336 8.73345 40.3386 8.96427 39.6131 9.42591C38.8971 9.88755 38.5438 10.4858 38.5532 11.2207C38.5438 11.8519 38.7746 12.3653 39.2457 12.761C39.7262 13.1567 40.5176 13.4817 41.6198 13.7361L45.3224 14.5275C47.3762 14.9703 48.9024 15.6722 49.9011 16.6331C50.9092 17.5941 51.4179 18.8518 51.4273 20.4063C51.4179 21.7724 51.0175 22.9783 50.2261 24.0241C49.4442 25.0604 48.356 25.8706 46.9617 26.4547C45.5673 27.0388 43.9657 27.3309 42.1569 27.3309C39.5001 27.3309 37.3615 26.7751 35.741 25.6634C34.1206 24.5422 33.1549 22.983 32.844 20.9857L37.8325 20.5052C38.0586 21.4851 38.5391 22.2246 39.274 22.7239C40.0088 23.2233 40.9651 23.4729 42.1427 23.4729C43.3581 23.4729 44.3332 23.2233 45.068 22.7239C45.8123 22.2246 46.1844 21.6075 46.1844 20.8727C46.1844 20.2509 45.9442 19.7374 45.4637 19.3323C44.9926 18.9272 44.2578 18.6163 43.2591 18.3996L39.5566 17.6224C37.4745 17.189 35.9342 16.4588 34.9355 15.4319C33.9369 14.3956 33.4422 13.086 33.4517 11.5033C33.4422 10.1655 33.805 9.00667 34.5398 8.02686C35.2841 7.03764 36.3157 6.27452 37.6347 5.73751C38.9631 5.19108 40.494 4.91787 42.2275 4.91787C44.7712 4.91787 46.7732 5.45959 48.2335 6.54303C49.7032 7.62646 50.6124 9.09146 50.961 10.938Z" fill="#151517"/>
<path d="M61.5324 27.3309C59.3655 27.3309 57.5048 26.8551 55.9503 25.9036C54.4053 24.9521 53.2135 23.6378 52.375 21.9608C51.5459 20.2744 51.1314 18.3337 51.1314 16.1385C51.1314 13.934 51.5554 11.9885 52.4033 10.3021C53.2512 8.60627 54.4477 7.2873 55.9927 6.34518C57.5472 5.39364 59.3844 4.91787 61.5041 4.91787C63.2659 4.91787 64.8251 5.2429 66.1818 5.89296C67.5478 6.5336 68.636 7.44275 69.4462 8.6204C70.2564 9.78863 70.7181 11.1547 70.8311 12.7186H65.9415C65.7437 11.6729 65.2726 10.8014 64.5283 10.1042C63.7935 9.39765 62.809 9.04435 61.5748 9.04435C60.529 9.04435 59.6105 9.32699 58.8191 9.89226C58.0277 10.4481 57.4106 11.2489 56.9678 12.2947C56.5345 13.3404 56.3178 14.5934 56.3178 16.0537C56.3178 17.5329 56.5345 18.8047 56.9678 19.8693C57.4012 20.9245 58.0089 21.7394 58.7908 22.3141C59.5822 22.8794 60.5102 23.162 61.5748 23.162C62.3285 23.162 63.0021 23.0207 63.5956 22.7381C64.1986 22.446 64.7026 22.0268 65.1077 21.4803C65.5129 20.9339 65.7908 20.2697 65.9415 19.4878H70.8311C70.7087 21.0234 70.2564 22.3848 69.4745 23.5718C68.6925 24.7495 67.6279 25.6728 66.2807 26.3417C64.9335 27.0012 63.3507 27.3309 61.5324 27.3309Z" fill="#151517"/>
<path d="M77.6965 27.345C76.321 27.345 75.0821 27.1001 73.9798 26.6102C72.887 26.1109 72.0202 25.376 71.3796 24.4056C70.7484 23.4352 70.4328 22.2387 70.4328 20.8161C70.4328 19.5914 70.6589 18.5786 71.1111 17.7778C71.5633 16.977 72.1804 16.3364 72.9623 15.8559C73.7443 15.3754 74.6252 15.0127 75.605 14.7677C76.5942 14.5134 77.6164 14.3296 78.6716 14.2166C79.9435 14.0847 80.9751 13.9669 81.7665 13.8633C82.5578 13.7502 83.1325 13.5807 83.4905 13.3546C83.858 13.119 84.0417 12.7563 84.0417 12.2664V12.1816C84.0417 11.117 83.7261 10.2927 83.0948 9.70855C82.4636 9.12443 81.5545 8.83238 80.3674 8.83238C79.1144 8.83238 78.1205 9.10559 77.3856 9.65202C76.6602 10.1985 76.1703 10.8438 75.9159 11.5881L71.1393 10.9098C71.5162 9.59078 72.138 8.4885 73.0047 7.60291C73.8715 6.70789 74.9314 6.03899 76.1844 5.59619C77.4374 5.14398 78.8223 4.91787 80.3391 4.91787C81.3849 4.91787 82.4259 5.04034 83.4623 5.28529C84.4986 5.53024 85.4454 5.93536 86.3028 6.50063C87.1601 7.05648 87.8478 7.81489 88.366 8.77585C88.8936 9.73681 89.1574 10.938 89.1574 12.3795V26.907H84.2395V23.9251H84.0699C83.759 24.5281 83.321 25.0934 82.7557 25.621C82.1998 26.1391 81.498 26.5584 80.65 26.8787C79.8116 27.1896 78.827 27.345 77.6965 27.345ZM79.0249 23.586C80.0518 23.586 80.9421 23.3834 81.6958 22.9783C82.4495 22.5638 83.0289 22.0173 83.434 21.339C83.8485 20.6607 84.0558 19.9211 84.0558 19.1203V16.5625C83.8957 16.6944 83.6224 16.8168 83.2362 16.9299C82.8593 17.043 82.4354 17.1419 81.9643 17.2267C81.4932 17.3115 81.0269 17.3868 80.5653 17.4528C80.1036 17.5187 79.7032 17.5753 79.3641 17.6224C78.6009 17.726 77.9179 17.8956 77.3149 18.1311C76.712 18.3666 76.2362 18.6964 75.8876 19.1203C75.539 19.5349 75.3648 20.0719 75.3648 20.7314C75.3648 21.6735 75.7086 22.3848 76.3964 22.8653C77.0841 23.3457 77.9603 23.586 79.0249 23.586Z" fill="#151517"/>
<path d="M95.8355 14.1883V26.907H90.7198V5.2005H95.6094V8.8889H95.8638C96.3631 7.67357 97.1592 6.7079 98.2521 5.99188C99.3543 5.27587 100.716 4.91787 102.336 4.91787C103.834 4.91787 105.139 5.23819 106.251 5.87883C107.372 6.51947 108.239 7.44746 108.851 8.66279C109.473 9.87813 109.779 11.3525 109.769 13.086V26.907H104.654V13.8774C104.654 12.4266 104.277 11.2913 103.523 10.4717C102.779 9.65202 101.747 9.2422 100.428 9.2422C99.5333 9.2422 98.7372 9.44004 98.0401 9.83573C97.3523 10.222 96.8106 10.7826 96.4149 11.5174C96.0286 12.2523 95.8355 13.1426 95.8355 14.1883Z" fill="#151517"/>
<path d="M113.791 35.0469C113.094 35.0469 112.448 34.9903 111.855 34.8773C111.271 34.7737 110.804 34.6512 110.456 34.5099L111.643 30.5247C112.387 30.7414 113.051 30.845 113.635 30.8356C114.219 30.8262 114.733 30.6425 115.176 30.2845C115.628 29.9359 116.01 29.3518 116.32 28.5321L116.758 27.3592L108.887 5.2005H114.314L119.316 21.5934H119.542L124.559 5.2005H130L121.309 29.5355C120.904 30.6849 120.367 31.6694 119.698 32.489C119.029 33.3181 118.209 33.9493 117.239 34.3827C116.278 34.8255 115.129 35.0469 113.791 35.0469Z" fill="#151517"/>
<path d="M1.39915 59.795V38.3302H3.15739V41.308H3.37082C3.58764 40.8405 3.88576 40.3628 4.26519 39.875C4.64462 39.3804 5.14601 38.9637 5.76936 38.6249C6.39948 38.2861 7.19222 38.1167 8.14756 38.1167C9.43491 38.1167 10.5596 38.4555 11.5218 39.1331C12.4907 39.8038 13.2428 40.7456 13.778 41.9585C14.3201 43.1645 14.5911 44.5704 14.5911 46.1762C14.5911 47.7888 14.3201 49.2015 13.778 50.4143C13.2428 51.6271 12.4907 52.5723 11.5218 53.2499C10.5596 53.9274 9.44169 54.2662 8.16789 54.2662C7.22609 54.2662 6.43674 54.0968 5.79985 53.758C5.16972 53.4192 4.65817 53.0026 4.26519 52.5079C3.87899 52.0066 3.58086 51.5187 3.37082 51.0444H3.20821V59.795H1.39915ZM3.18788 46.1457C3.18788 47.406 3.37421 48.5239 3.74686 49.4996C4.12629 50.4685 4.66833 51.2308 5.37299 51.7863C6.08442 52.3352 6.94491 52.6096 7.95446 52.6096C8.99112 52.6096 9.86516 52.325 10.5766 51.7559C11.2948 51.1799 11.8402 50.4041 12.2129 49.4285C12.5923 48.4528 12.782 47.3585 12.782 46.1457C12.782 44.9465 12.5957 43.8658 12.223 42.9036C11.8572 41.9415 11.3151 41.1793 10.5969 40.6169C9.87871 40.0478 8.99789 39.7632 7.95446 39.7632C6.93813 39.7632 6.07425 40.0376 5.36282 40.5864C4.65139 41.1284 4.10935 41.8805 3.7367 42.8427C3.37082 43.798 3.18788 44.899 3.18788 46.1457Z" fill="#151517"/>
<path d="M17.7931 44.1842V53.941H15.9841V33.1266H17.7931V40.7795H17.9557C18.3216 39.9732 18.8874 39.3295 19.653 38.8485C20.4254 38.3674 21.4011 38.1269 22.58 38.1269C23.637 38.1269 24.5653 38.3437 25.3648 38.7773C26.1643 39.211 26.7876 39.8513 27.2348 40.6982C27.682 41.5451 27.9056 42.5886 27.9056 43.8285V53.941H26.0864V43.9403C26.0864 42.6529 25.7273 41.64 25.0091 40.9015C24.2976 40.1562 23.3355 39.7835 22.1227 39.7835C21.2893 39.7835 20.5474 39.9597 19.8969 40.312C19.2465 40.6643 18.7315 41.1725 18.3521 41.8365C17.9795 42.4937 17.7931 43.2763 17.7931 44.1842Z" fill="#151517"/>
<path d="M36.1613 54.2662C34.813 54.2662 33.6205 53.924 32.5839 53.2397C31.554 52.5554 30.7477 51.6102 30.165 50.4041C29.5823 49.1913 29.2909 47.7922 29.2909 46.2067C29.2909 44.6077 29.5823 43.2018 30.165 41.9889C30.7477 40.7693 31.554 39.8208 32.5839 39.1432C33.6205 38.4589 34.813 38.1167 36.1613 38.1167C37.5097 38.1167 38.6988 38.4589 39.7286 39.1432C40.7585 39.8276 41.5648 40.7761 42.1475 41.9889C42.737 43.2018 43.0317 44.6077 43.0317 46.2067C43.0317 47.7922 42.7404 49.1913 42.1577 50.4041C41.575 51.6102 40.7653 52.5554 39.7286 53.2397C38.6988 53.924 37.5097 54.2662 36.1613 54.2662ZM36.1613 52.6096C37.2454 52.6096 38.1635 52.3182 38.9156 51.7355C39.6677 51.1528 40.2368 50.377 40.623 49.4081C41.016 48.4392 41.2125 47.3721 41.2125 46.2067C41.2125 45.0413 41.016 43.9708 40.623 42.9951C40.2368 42.0194 39.6677 41.2369 38.9156 40.6474C38.1635 40.0579 37.2454 39.7632 36.1613 39.7632C35.084 39.7632 34.1659 40.0579 33.4071 40.6474C32.655 41.2369 32.0825 42.0194 31.6895 42.9951C31.3033 43.9708 31.1102 45.0413 31.1102 46.2067C31.1102 47.3721 31.3033 48.4392 31.6895 49.4081C32.0825 50.377 32.655 51.1528 33.4071 51.7355C34.1592 52.3182 35.0772 52.6096 36.1613 52.6096Z" fill="#151517"/>
<path d="M50.576 38.3302V39.9055H43.1263V38.3302H50.576ZM45.4537 34.5901H47.2729V49.8655C47.2729 50.5159 47.3847 51.0275 47.6083 51.4001C47.8319 51.766 48.1233 52.0269 48.4824 52.1827C48.8415 52.3318 49.2243 52.4063 49.6308 52.4063C49.868 52.4063 50.0712 52.3928 50.2406 52.3657C50.41 52.3318 50.5591 52.2979 50.6878 52.264L51.074 53.9003C50.8978 53.9681 50.681 54.029 50.4236 54.0832C50.1661 54.1442 49.8476 54.1747 49.4682 54.1747C48.8042 54.1747 48.1639 54.029 47.5474 53.7377C46.9376 53.4464 46.4362 53.0127 46.0432 52.4368C45.6502 51.8609 45.4537 51.1461 45.4537 50.2923V34.5901Z" fill="#151517"/>
<path d="M58.0085 54.2662C56.6602 54.2662 55.4677 53.924 54.431 53.2397C53.4012 52.5554 52.5949 51.6102 52.0122 50.4041C51.4295 49.1913 51.1381 47.7922 51.1381 46.2067C51.1381 44.6077 51.4295 43.2018 52.0122 41.9889C52.5949 40.7693 53.4012 39.8208 54.431 39.1432C55.4677 38.4589 56.6602 38.1167 58.0085 38.1167C59.3568 38.1167 60.546 38.4589 61.5758 39.1432C62.6057 39.8276 63.412 40.7761 63.9947 41.9889C64.5842 43.2018 64.8789 44.6077 64.8789 46.2067C64.8789 47.7922 64.5875 49.1913 64.0049 50.4041C63.4222 51.6102 62.6125 52.5554 61.5758 53.2397C60.546 53.924 59.3568 54.2662 58.0085 54.2662ZM58.0085 52.6096C59.0926 52.6096 60.0107 52.3182 60.7628 51.7355C61.5149 51.1528 62.084 50.377 62.4702 49.4081C62.8632 48.4392 63.0597 47.3721 63.0597 46.2067C63.0597 45.0413 62.8632 43.9708 62.4702 42.9951C62.084 42.0194 61.5149 41.2369 60.7628 40.6474C60.0107 40.0579 59.0926 39.7632 58.0085 39.7632C56.9312 39.7632 56.0131 40.0579 55.2543 40.6474C54.5022 41.2369 53.9297 42.0194 53.5367 42.9951C53.1505 43.9708 52.9574 45.0413 52.9574 46.2067C52.9574 47.3721 53.1505 48.4392 53.5367 49.4081C53.9297 50.377 54.5022 51.1528 55.2543 51.7355C56.0063 52.3182 56.9244 52.6096 58.0085 52.6096Z" fill="#151517"/>
<path d="M77.8967 38.3302V39.9055H70.4471V38.3302H77.8967ZM72.7744 34.5901H74.5937V49.8655C74.5937 50.5159 74.7055 51.0275 74.9291 51.4001C75.1526 51.766 75.444 52.0269 75.8031 52.1827C76.1622 52.3318 76.545 52.4063 76.9516 52.4063C77.1887 52.4063 77.392 52.3928 77.5613 52.3657C77.7307 52.3318 77.8798 52.2979 78.0085 52.264L78.3947 53.9003C78.2186 53.9681 78.0018 54.029 77.7443 54.0832C77.4868 54.1442 77.1684 54.1747 76.7889 54.1747C76.1249 54.1747 75.4846 54.029 74.8681 53.7377C74.2583 53.4464 73.7569 53.0127 73.3639 52.4368C72.9709 51.8609 72.7744 51.1461 72.7744 50.2923V34.5901Z" fill="#151517"/>
<path d="M85.3292 54.2662C83.9809 54.2662 82.7884 53.924 81.7518 53.2397C80.7219 52.5554 79.9156 51.6102 79.3329 50.4041C78.7502 49.1913 78.4589 47.7922 78.4589 46.2067C78.4589 44.6077 78.7502 43.2018 79.3329 41.9889C79.9156 40.7693 80.7219 39.8208 81.7518 39.1432C82.7884 38.4589 83.9809 38.1167 85.3292 38.1167C86.6776 38.1167 87.8667 38.4589 88.8966 39.1432C89.9264 39.8276 90.7327 40.7761 91.3154 41.9889C91.9049 43.2018 92.1996 44.6077 92.1996 46.2067C92.1996 47.7922 91.9083 49.1913 91.3256 50.4041C90.7429 51.6102 89.9332 52.5554 88.8966 53.2397C87.8667 53.924 86.6776 54.2662 85.3292 54.2662ZM85.3292 52.6096C86.4133 52.6096 87.3314 52.3182 88.0835 51.7355C88.8356 51.1528 89.4047 50.377 89.7909 49.4081C90.1839 48.4392 90.3804 47.3721 90.3804 46.2067C90.3804 45.0413 90.1839 43.9708 89.7909 42.9951C89.4047 42.0194 88.8356 41.2369 88.0835 40.6474C87.3314 40.0579 86.4133 39.7632 85.3292 39.7632C84.2519 39.7632 83.3339 40.0579 82.575 40.6474C81.8229 41.2369 81.2504 42.0194 80.8574 42.9951C80.4712 43.9708 80.2781 45.0413 80.2781 46.2067C80.2781 47.3721 80.4712 48.4392 80.8574 49.4081C81.2504 50.377 81.8229 51.1528 82.575 51.7355C83.3271 52.3182 84.2452 52.6096 85.3292 52.6096Z" fill="#151517"/>
<path d="M103.515 47.9751V38.3302H105.324V53.941H103.515V51.3493H103.372C103.006 52.1488 102.427 52.8162 101.634 53.3515C100.842 53.88 99.8727 54.1442 98.7276 54.1442C97.7316 54.1442 96.8474 53.9274 96.075 53.4938C95.3026 53.0534 94.6962 52.4097 94.2558 51.5628C93.8154 50.7158 93.5951 49.6758 93.5951 48.4426V38.3302H95.4042V48.3308C95.4042 49.5504 95.7633 50.5329 96.4815 51.2782C97.1997 52.0167 98.1212 52.386 99.2459 52.386C99.9506 52.386 100.628 52.2166 101.279 51.8778C101.929 51.539 102.464 51.0444 102.884 50.394C103.304 49.7368 103.515 48.9305 103.515 47.9751Z" fill="#151517"/>
<path d="M107.537 53.941V38.3302H109.295V40.7287H109.428C109.739 39.9427 110.281 39.3092 111.054 38.8282C111.833 38.3403 112.714 38.0964 113.696 38.0964C113.845 38.0964 114.011 38.0998 114.194 38.1066C114.377 38.1133 114.53 38.1201 114.652 38.1269V39.9664C114.57 39.9529 114.428 39.9326 114.225 39.9055C114.021 39.8784 113.801 39.8648 113.564 39.8648C112.751 39.8648 112.026 40.0376 111.389 40.3831C110.759 40.7219 110.261 41.1928 109.895 41.7958C109.529 42.3989 109.346 43.0866 109.346 43.859V53.941H107.537Z" fill="#151517"/>
<path d="M125.651 41.7552L123.995 42.2227C123.832 41.7552 123.602 41.3317 123.304 40.9523C123.006 40.5729 122.616 40.2713 122.135 40.0478C121.661 39.8242 121.071 39.7124 120.366 39.7124C119.309 39.7124 118.442 39.9631 117.765 40.4645C117.087 40.9658 116.748 41.6129 116.748 42.4056C116.748 43.0764 116.979 43.6218 117.439 44.0419C117.907 44.4552 118.625 44.7838 119.594 45.0278L121.952 45.6071C123.26 45.9255 124.239 46.4303 124.889 47.1214C125.546 47.8125 125.875 48.6798 125.875 49.7232C125.875 50.604 125.631 51.3866 125.143 52.0709C124.655 52.7552 123.974 53.2939 123.1 53.6869C122.233 54.0731 121.227 54.2662 120.082 54.2662C118.557 54.2662 117.301 53.924 116.311 53.2397C115.322 52.5486 114.689 51.5526 114.411 50.2517L116.149 49.8248C116.372 50.7531 116.809 51.4543 117.46 51.9286C118.117 52.4029 118.981 52.6401 120.051 52.6401C121.251 52.6401 122.209 52.3724 122.928 51.8372C123.646 51.2951 124.005 50.6176 124.005 49.8045C124.005 49.1744 123.795 48.6459 123.375 48.219C122.955 47.7854 122.318 47.4669 121.464 47.2637L118.913 46.6539C117.558 46.3287 116.555 45.8137 115.905 45.1091C115.254 44.4044 114.929 43.5304 114.929 42.4869C114.929 41.6264 115.163 40.871 115.63 40.2205C116.098 39.5633 116.742 39.0484 117.561 38.6757C118.381 38.3031 119.316 38.1167 120.366 38.1167C121.796 38.1167 122.938 38.442 123.791 39.0924C124.652 39.7361 125.272 40.6237 125.651 41.7552Z" fill="#151517"/>
</svg>
