<svg width="33" height="40" viewBox="0 0 33 40" fill="none" xmlns="http://www.w3.org/2000/svg">
<path d="M28.1673 28.1672L16.5 39.8345L4.83267 28.1672C2.52513 25.8596 0.953675 22.9196 0.317036 19.7189C-0.319604 16.5182 0.00716255 13.2006 1.25601 10.1857C2.50487 7.17071 4.61971 4.59377 7.33312 2.78074C10.0465 0.967703 13.2366 0 16.5 0C19.7634 0 22.9535 0.967703 25.6669 2.78074C28.3803 4.59377 30.4951 7.17071 31.744 10.1857C32.9929 13.2006 33.3196 16.5182 32.683 19.7189C32.0463 22.9196 30.4749 25.8596 28.1673 28.1672ZM16.5 23.8332C18.4449 23.8332 20.3102 23.0606 21.6855 21.6853C23.0607 20.31 23.8333 18.4448 23.8333 16.4999C23.8333 14.5549 23.0607 12.6897 21.6855 11.3144C20.3102 9.93914 18.4449 9.16652 16.5 9.16652C14.5551 9.16652 12.6898 9.93914 11.3146 11.3144C9.93929 12.6897 9.16667 14.5549 9.16667 16.4999C9.16667 18.4448 9.93929 20.31 11.3146 21.6853C12.6898 23.0606 14.5551 23.8332 16.5 23.8332ZM16.5 20.1665C15.5275 20.1665 14.5949 19.7802 13.9073 19.0926C13.2196 18.4049 12.8333 17.4723 12.8333 16.4999C12.8333 15.5274 13.2196 14.5948 13.9073 13.9071C14.5949 13.2195 15.5275 12.8332 16.5 12.8332C17.4725 12.8332 18.4051 13.2195 19.0927 13.9071C19.7804 14.5948 20.1667 15.5274 20.1667 16.4999C20.1667 17.4723 19.7804 18.4049 19.0927 19.0926C18.4051 19.7802 17.4725 20.1665 16.5 20.1665Z" fill="#2F53DE"/>
</svg>
