<svg width="45" height="30" viewBox="0 0 45 30" fill="none" xmlns="http://www.w3.org/2000/svg">
<rect width="45" height="30" rx="2.72727" fill="white"/>
<g clip-path="url(#clip0_176_1994)">
<path d="M13.3592 26.0865V24.6085C13.3592 24.0431 13.0148 23.6729 12.4236 23.6729C12.128 23.6729 11.8066 23.7705 11.5856 24.0919C11.4134 23.8222 11.1666 23.6729 10.7964 23.6729C10.5496 23.6729 10.3028 23.7475 10.1076 24.0173V23.7217H9.59106V26.0865H10.1076V24.7807C10.1076 24.3617 10.3286 24.1637 10.673 24.1637C11.0174 24.1637 11.1896 24.3846 11.1896 24.7807V26.0865H11.7062V24.7807C11.7062 24.3617 11.953 24.1637 12.2715 24.1637C12.6159 24.1637 12.7881 24.3846 12.7881 24.7807V26.0865H13.3592ZM21.0217 23.7217H20.1837V23.0071H19.6672V23.7217H19.1994V24.1895H19.6672V25.2743C19.6672 25.8167 19.8882 26.1353 20.4793 26.1353C20.7003 26.1353 20.9471 26.0607 21.1193 25.9631L20.9701 25.5182C20.8209 25.6158 20.6487 25.6417 20.5253 25.6417C20.2785 25.6417 20.1809 25.4924 20.1809 25.2485V24.1895H21.0189V23.7217H21.0217ZM25.4069 23.6701C25.1113 23.6701 24.9133 23.8193 24.7899 24.0144V23.7188H24.2733V26.0836H24.7899V24.752C24.7899 24.3588 24.9621 24.135 25.2835 24.135C25.3811 24.135 25.5045 24.1608 25.6049 24.1838L25.7542 23.6901C25.6508 23.6701 25.5045 23.6701 25.4069 23.6701ZM18.7804 23.9169C18.5336 23.7447 18.1892 23.6701 17.819 23.6701C17.2278 23.6701 16.8346 23.9656 16.8346 24.4334C16.8346 24.8266 17.1302 25.0505 17.6468 25.1222L17.8936 25.148C18.1634 25.1968 18.3126 25.2714 18.3126 25.3948C18.3126 25.567 18.1146 25.6904 17.7702 25.6904C17.4258 25.6904 17.1532 25.567 16.981 25.4436L16.7342 25.8368C17.0039 26.0348 17.3741 26.1324 17.7444 26.1324C18.4331 26.1324 18.8292 25.811 18.8292 25.369C18.8292 24.95 18.5077 24.729 18.017 24.6544L17.7702 24.6286C17.5492 24.6028 17.377 24.554 17.377 24.4076C17.377 24.2354 17.5492 24.1378 17.8218 24.1378C18.1174 24.1378 18.413 24.2612 18.5623 24.3359L18.7804 23.9169ZM32.5242 23.6701C32.2286 23.6701 32.0306 23.8193 31.9072 24.0144V23.7188H31.3906V26.0836H31.9072V24.752C31.9072 24.3588 32.0793 24.135 32.4008 24.135C32.4984 24.135 32.6218 24.1608 32.7222 24.1838L32.8714 23.6959C32.771 23.6701 32.6246 23.6701 32.5242 23.6701ZM25.9235 24.9041C25.9235 25.6187 26.4171 26.1353 27.1805 26.1353C27.5249 26.1353 27.7717 26.0607 28.0185 25.8655L27.7717 25.4465C27.5737 25.5957 27.3785 25.6675 27.1547 25.6675C26.7357 25.6675 26.4401 25.3719 26.4401 24.9041C26.4401 24.4593 26.7357 24.1637 27.1547 24.1407C27.3756 24.1407 27.5737 24.2153 27.7717 24.3617L28.0185 23.9427C27.7717 23.7447 27.5249 23.6729 27.1805 23.6729C26.4171 23.6701 25.9235 24.1895 25.9235 24.9041ZM30.7018 24.9041V23.7217H30.1852V24.0173C30.013 23.7963 29.7662 23.6729 29.4448 23.6729C28.779 23.6729 28.2624 24.1895 28.2624 24.9041C28.2624 25.6187 28.779 26.1353 29.4448 26.1353C29.7892 26.1353 30.036 26.0119 30.1852 25.7909V26.0865H30.7018V24.9041ZM28.8048 24.9041C28.8048 24.4851 29.0746 24.1407 29.5194 24.1407C29.9384 24.1407 30.234 24.4621 30.234 24.9041C30.234 25.3231 29.9384 25.6675 29.5194 25.6675C29.0775 25.6417 28.8048 25.3202 28.8048 24.9041ZM22.6231 23.6701C21.9344 23.6701 21.4408 24.1637 21.4408 24.9012C21.4408 25.6417 21.9344 26.1324 22.649 26.1324C22.9933 26.1324 23.3377 26.0348 23.6104 25.811L23.3636 25.4408C23.1655 25.59 22.9187 25.6876 22.6748 25.6876C22.3534 25.6876 22.0348 25.5383 21.9602 25.1222H23.7079C23.7079 25.0476 23.7079 24.9988 23.7079 24.9242C23.7309 24.1637 23.2861 23.6701 22.6231 23.6701ZM22.6231 24.1149C22.9446 24.1149 23.1655 24.3129 23.2143 24.6802H21.9832C22.0319 24.3617 22.2529 24.1149 22.6231 24.1149ZM35.4572 24.9041V22.7861H34.9406V24.0173C34.7684 23.7963 34.5216 23.6729 34.2002 23.6729C33.5344 23.6729 33.0178 24.1895 33.0178 24.9041C33.0178 25.6187 33.5344 26.1353 34.2002 26.1353C34.5446 26.1353 34.7914 26.0119 34.9406 25.7909V26.0865H35.4572V24.9041ZM33.5602 24.9041C33.5602 24.4851 33.83 24.1407 34.2748 24.1407C34.6938 24.1407 34.9894 24.4621 34.9894 24.9041C34.9894 25.3231 34.6938 25.6675 34.2748 25.6675C33.83 25.6417 33.5602 25.3202 33.5602 24.9041ZM16.2664 24.9041V23.7217H15.7498V24.0173C15.5776 23.7963 15.3308 23.6729 15.0094 23.6729C14.3436 23.6729 13.827 24.1895 13.827 24.9041C13.827 25.6187 14.3436 26.1353 15.0094 26.1353C15.3538 26.1353 15.6006 26.0119 15.7498 25.7909V26.0865H16.2664V24.9041ZM14.3464 24.9041C14.3464 24.4851 14.6162 24.1407 15.061 24.1407C15.48 24.1407 15.7756 24.4621 15.7756 24.9041C15.7756 25.3231 15.48 25.6675 15.061 25.6675C14.6162 25.6417 14.3464 25.3202 14.3464 24.9041Z" fill="black"/>
<path d="M26 6H19V20H26V6Z" fill="#FF5A00"/>
<path d="M19.1257 12.7331C19.1257 9.90057 20.4574 7.38656 22.5007 5.76222C20.9969 4.57983 19.0999 3.86523 17.0307 3.86523C12.129 3.86523 8.16284 7.83139 8.16284 12.7331C8.16284 17.6349 12.129 21.601 17.0307 21.601C19.0999 21.601 20.9969 20.8864 22.5007 19.704C20.4545 18.1027 19.1257 15.5657 19.1257 12.7331Z" fill="#EB001B"/>
<path d="M36.8383 12.7331C36.8383 17.6349 32.8722 21.601 27.9705 21.601C25.9013 21.601 24.0043 20.8864 22.5005 19.704C24.5697 18.0768 25.8755 15.5657 25.8755 12.7331C25.8755 9.90057 24.5438 7.38656 22.5005 5.76222C24.0014 4.57983 25.8984 3.86523 27.9676 3.86523C32.8722 3.86523 36.8383 7.85722 36.8383 12.7331Z" fill="#F79E1B"/>
</g>
<defs>
<clipPath id="clip0_176_1994">
<rect width="28.6757" height="22.2702" fill="white" transform="translate(8.16235 3.86523)"/>
</clipPath>
</defs>
</svg>
