<svg width="20" height="20" viewBox="0 0 20 20" fill="none" xmlns="http://www.w3.org/2000/svg">
<g clip-path="url(#clip0_1708_1288)">
<path fill-rule="evenodd" clip-rule="evenodd" d="M10 0C4.47833 0 0 4.47667 0 10C0 15.5225 4.47833 20 10 20C15.5225 20 20 15.5225 20 10C20 4.47667 15.5225 0 10 0ZM10 4.58333C6.77833 4.58333 4.16667 7.00167 4.16667 9.98417C4.16667 11.6842 5.015 13.2008 6.34083 14.1908V16.25L8.32667 15.16C8.85667 15.3067 9.41833 15.3858 10 15.3858C13.2217 15.3858 15.8333 12.9675 15.8333 9.98417C15.8333 7.00167 13.2217 4.58333 10 4.58333ZM10.58 11.8567L9.09417 10.2725L6.19583 11.8567L9.38417 8.4725L10.9058 10.0567L13.7683 8.4725L10.58 11.8567Z" fill="#151517"/>
</g>
<defs>
<clipPath id="clip0_1708_1288">
<rect width="20" height="20" fill="white"/>
</clipPath>
</defs>
</svg>
