<svg width="52" height="52" viewBox="0 0 52 52" fill="none" xmlns="http://www.w3.org/2000/svg">
<path d="M26 0C11.64 0 0 11.64 0 26C0 40.36 11.64 52 26 52C40.36 52 52 40.36 52 26C52 11.64 40.36 0 26 0ZM26 12.3387C26.5304 12.3387 27.0391 12.5494 27.4142 12.9245C27.7893 13.2995 28 13.8082 28 14.3387V29.0053C28 29.5358 27.7893 30.0445 27.4142 30.4195C27.0391 30.7946 26.5304 31.0053 26 31.0053C25.4696 31.0053 24.9609 30.7946 24.5858 30.4195C24.2107 30.0445 24 29.5358 24 29.0053V14.3387C24 13.8082 24.2107 13.2995 24.5858 12.9245C24.9609 12.5494 25.4696 12.3387 26 12.3387ZM28 36.328V37.6613C28 38.1918 27.7893 38.7005 27.4142 39.0755C27.0391 39.4506 26.5304 39.6613 26 39.6613C25.4696 39.6613 24.9609 39.4506 24.5858 39.0755C24.2107 38.7005 24 38.1918 24 37.6613V36.328C24 35.7976 24.2107 35.2889 24.5858 34.9138C24.9609 34.5387 25.4696 34.328 26 34.328C26.5304 34.328 27.0391 34.5387 27.4142 34.9138C27.7893 35.2889 28 35.7976 28 36.328Z" fill="#F33333"/>
</svg>
