<svg width="62" height="62" viewBox="0 0 62 62" fill="none" xmlns="http://www.w3.org/2000/svg">
<path d="M59.2583 26.2206L54.3517 22.2739C53.9581 21.9599 53.6529 21.549 53.466 21.0815C53.279 20.6141 53.2166 20.106 53.285 19.6072L53.9517 13.3672C54.0442 12.5381 53.9495 11.6987 53.6744 10.9111C53.3993 10.1234 52.9509 9.40761 52.3622 8.8164C51.7736 8.22518 51.0597 7.77366 50.2732 7.49515C49.4868 7.21665 48.6479 7.11825 47.8183 7.20724L41.5517 7.8739C41.0528 7.94228 40.5448 7.87993 40.0774 7.69294C39.6099 7.50596 39.199 7.20076 38.885 6.80724L35.0183 1.98057C34.4776 1.35874 33.8098 0.86015 33.06 0.518477C32.3101 0.176805 31.4957 0 30.6717 0C29.8476 0 29.0332 0.176805 28.2833 0.518477C27.5335 0.86015 26.8657 1.35874 26.325 1.98057L22.3783 6.88724C22.0643 7.28076 21.6534 7.58596 21.1859 7.77294C20.7185 7.95993 20.2105 8.02228 19.7117 7.9539L13.525 7.28724C12.6954 7.19825 11.8565 7.29665 11.0701 7.57515C10.2836 7.85366 9.56975 8.30518 8.98109 8.8964C8.39243 9.48761 7.94402 10.2034 7.66892 10.9911C7.39383 11.7787 7.29908 12.6181 7.39166 13.4472L8.05832 19.6872C8.1267 20.186 8.06435 20.6941 7.87736 21.1615C7.69038 21.629 7.38518 22.0399 6.99166 22.3539L2.08499 26.2206C1.43425 26.7428 0.909075 27.4045 0.548209 28.1568C0.187344 28.9091 0 29.7328 0 30.5672C0 31.4016 0.187344 32.2253 0.548209 32.9777C0.909075 33.73 1.43425 34.3917 2.08499 34.9139L6.99166 38.8606C7.38316 39.1763 7.68689 39.5874 7.87369 40.0544C8.06048 40.5214 8.12406 41.0286 8.05832 41.5272L7.39166 47.7939C7.29923 48.6213 7.39515 49.4588 7.67223 50.2439C7.94931 51.0289 8.40037 51.7412 8.99166 52.3272C9.56929 52.9302 10.2804 53.3891 11.0678 53.667C11.8552 53.9449 12.6969 54.034 13.525 53.9272L19.7917 53.2606C20.2905 53.1922 20.7985 53.2545 21.2659 53.4415C21.7334 53.6285 22.1443 53.9337 22.4583 54.3272L26.405 59.2339C26.9272 59.8846 27.5889 60.4098 28.3412 60.7707C29.0935 61.1315 29.9173 61.3189 30.7517 61.3189C31.586 61.3189 32.4098 61.1315 33.1621 60.7707C33.9144 60.4098 34.5761 59.8846 35.0983 59.2339L39.045 54.3272C39.359 53.9337 39.7699 53.6285 40.2374 53.4415C40.7048 53.2545 41.2128 53.1922 41.7117 53.2606L47.9783 53.9272C48.8065 54.034 49.6481 53.9449 50.4355 53.667C51.2229 53.3891 51.934 52.9302 52.5117 52.3272C53.1029 51.7412 53.554 51.0289 53.8311 50.2439C54.1082 49.4588 54.2041 48.6213 54.1117 47.7939L53.445 41.5272C53.3792 41.0286 53.4428 40.5214 53.6296 40.0544C53.8164 39.5874 54.1202 39.1763 54.5117 38.8606L59.4183 34.9139C60.0691 34.3917 60.5942 33.73 60.9551 32.9777C61.316 32.2253 61.5033 31.4016 61.5033 30.5672C61.5033 29.7328 61.316 28.9091 60.9551 28.1568C60.5942 27.4045 60.0691 26.7428 59.4183 26.2206H59.2583ZM31.7383 38.7539C31.3274 39.2887 30.8078 39.7303 30.2138 40.0497C29.6198 40.3691 28.9649 40.559 28.2922 40.6068C27.6194 40.6547 26.9442 40.5595 26.311 40.3274C25.6777 40.0954 25.1008 39.7318 24.6183 39.2606L18.1117 32.7539C17.863 32.5053 17.6658 32.2101 17.5312 31.8852C17.3967 31.5604 17.3274 31.2122 17.3274 30.8606C17.3274 30.5089 17.3967 30.1608 17.5312 29.8359C17.6658 29.511 17.863 29.2159 18.1117 28.9672C18.3603 28.7186 18.6555 28.5214 18.9803 28.3868C19.3052 28.2522 19.6534 28.183 20.005 28.183C20.3566 28.183 20.7048 28.2522 21.0297 28.3868C21.3545 28.5214 21.6497 28.7186 21.8983 28.9672L28.005 34.9672L38.4317 21.0739C38.856 20.5081 39.4877 20.1341 40.1879 20.034C40.5345 19.9845 40.8876 20.0038 41.2268 20.0907C41.566 20.1776 41.8848 20.3305 42.165 20.5406C42.4451 20.7507 42.6812 21.0139 42.8596 21.3153C43.038 21.6166 43.1553 21.9501 43.2049 22.2968C43.2544 22.6434 43.2351 22.9965 43.1482 23.3357C43.0613 23.675 42.9084 23.9937 42.6983 24.2739L31.7383 38.7539Z" fill="#63C158"/>
</svg>
