<svg width="17" height="17" viewBox="0 0 17 17" fill="none" xmlns="http://www.w3.org/2000/svg">
<path d="M8.5 7.08333C8.82557 7.08333 9.14795 7.01921 9.44874 6.89462C9.74952 6.77003 10.0228 6.58741 10.253 6.3572C10.4832 6.12699 10.6659 5.85369 10.7905 5.5529C10.915 5.25212 10.9792 4.92974 10.9792 4.60417C10.9792 4.2786 10.915 3.95622 10.7905 3.65543C10.6659 3.35464 10.4832 3.08134 10.253 2.85113C10.0228 2.62092 9.74952 2.43831 9.44874 2.31372C9.14795 2.18913 8.82557 2.125 8.5 2.125C7.84248 2.125 7.2119 2.3862 6.74696 2.85113C6.28203 3.31607 6.02083 3.94665 6.02083 4.60417C6.02083 5.26168 6.28203 5.89227 6.74696 6.3572C7.2119 6.82214 7.84248 7.08333 8.5 7.08333ZM2.125 14.45V14.875H14.875V14.45C14.875 12.8633 14.875 12.07 14.5662 11.4637C14.2945 10.9306 13.8611 10.4971 13.328 10.2255C12.7217 9.91667 11.9283 9.91667 10.3417 9.91667H6.65833C5.07167 9.91667 4.27833 9.91667 3.672 10.2255C3.1389 10.4971 2.70547 10.9306 2.43383 11.4637C2.125 12.07 2.125 12.8633 2.125 14.45Z" fill="#2F53DE" stroke="#2F53DE" stroke-width="2" stroke-linecap="round" stroke-linejoin="round"/>
</svg>
