<svg width="25" height="25" viewBox="0 0 25 25" fill="none" xmlns="http://www.w3.org/2000/svg">
<rect width="25" height="25" rx="4.54545" fill="#2F53DE"/>
<g clip-path="url(#clip0_533_1793)">
<path d="M12.501 14.7667C13.7529 14.7667 14.7677 13.7519 14.7677 12.5001C14.7677 11.2482 13.7529 10.2334 12.501 10.2334C11.2492 10.2334 10.2344 11.2482 10.2344 12.5001C10.2344 13.7519 11.2492 14.7667 12.501 14.7667Z" fill="white"/>
<path d="M10.3743 5.41663L9.0781 6.83329H6.83268C6.05352 6.83329 5.41602 7.47079 5.41602 8.24996V16.75C5.41602 17.5291 6.05352 18.1666 6.83268 18.1666H18.166C18.9452 18.1666 19.5827 17.5291 19.5827 16.75V8.24996C19.5827 7.47079 18.9452 6.83329 18.166 6.83329H15.9206L14.6243 5.41663H10.3743ZM12.4993 16.0416C10.5443 16.0416 8.95768 14.455 8.95768 12.5C8.95768 10.545 10.5443 8.95829 12.4993 8.95829C14.4543 8.95829 16.041 10.545 16.041 12.5C16.041 14.455 14.4543 16.0416 12.4993 16.0416Z" fill="white"/>
</g>
<defs>
<clipPath id="clip0_533_1793">
<rect width="17" height="17" fill="white" transform="translate(4 4)"/>
</clipPath>
</defs>
</svg>
