<svg width="37" height="28" viewBox="0 0 37 28" fill="none" xmlns="http://www.w3.org/2000/svg">
<path d="M25.6667 23.8334V27.5001H0V23.8334C0 23.8334 0 16.5001 12.8333 16.5001C25.6667 16.5001 25.6667 23.8334 25.6667 23.8334ZM19.25 6.41673C19.25 5.14764 18.8737 3.90704 18.1686 2.85183C17.4635 1.79661 16.4614 0.97417 15.2889 0.488507C14.1164 0.00284514 12.8262 -0.124226 11.5815 0.123362C10.3368 0.370951 9.19345 0.982079 8.29607 1.87947C7.39868 2.77685 6.78755 3.92019 6.53996 5.1649C6.29237 6.40962 6.41944 7.69979 6.90511 8.87229C7.39077 10.0448 8.21321 11.0469 9.26842 11.752C10.3236 12.4571 11.5642 12.8334 12.8333 12.8334C14.5351 12.8334 16.1672 12.1574 17.3706 10.954C18.574 9.75064 19.25 8.11854 19.25 6.41673ZM25.5567 16.5001C26.6837 17.3723 27.6059 18.4809 28.2584 19.7478C28.9109 21.0148 29.2778 22.4094 29.3333 23.8334V27.5001H36.6667V23.8334C36.6667 23.8334 36.6667 17.1784 25.5567 16.5001ZM23.8333 6.74602e-05C22.5716 -0.00580129 21.3378 0.371374 20.295 1.08173C21.4086 2.63775 22.0074 4.50326 22.0074 6.41673C22.0074 8.33021 21.4086 10.1957 20.295 11.7517C21.3378 12.4621 22.5716 12.8393 23.8333 12.8334C25.5351 12.8334 27.1672 12.1574 28.3706 10.954C29.574 9.75064 30.25 8.11854 30.25 6.41673C30.25 4.71493 29.574 3.08282 28.3706 1.87947C27.1672 0.676108 25.5351 6.74602e-05 23.8333 6.74602e-05Z" fill="#2F53DE"/>
</svg>
