<svg width="19" height="19" viewBox="0 0 19 19" fill="none" xmlns="http://www.w3.org/2000/svg">
<g clip-path="url(#clip0_251_138)">
<path d="M12.6669 8.70837C13.981 8.70837 15.034 7.64754 15.034 6.33337C15.034 5.01921 13.981 3.95837 12.6669 3.95837C11.3527 3.95837 10.2919 5.01921 10.2919 6.33337C10.2919 7.64754 11.3527 8.70837 12.6669 8.70837ZM6.33354 8.70837C7.6477 8.70837 8.70062 7.64754 8.70062 6.33337C8.70062 5.01921 7.6477 3.95837 6.33354 3.95837C5.01937 3.95837 3.95854 5.01921 3.95854 6.33337C3.95854 7.64754 5.01937 8.70837 6.33354 8.70837ZM6.33354 10.2917C4.48895 10.2917 0.79187 11.218 0.79187 13.0625V15.0417H11.8752V13.0625C11.8752 11.218 8.17812 10.2917 6.33354 10.2917ZM12.6669 10.2917C12.4373 10.2917 12.176 10.3075 11.899 10.3313C12.8173 10.9963 13.4585 11.8909 13.4585 13.0625V15.0417H18.2085V13.0625C18.2085 11.218 14.5115 10.2917 12.6669 10.2917Z" fill="black"/>
</g>
<defs>
<clipPath id="clip0_251_138">
<rect width="19" height="19" fill="white"/>
</clipPath>
</defs>
</svg>
