<svg width="19" height="19" viewBox="0 0 19 19" fill="none" xmlns="http://www.w3.org/2000/svg">
<path d="M9.12495 14.8472L4.84156 18.1176C4.62932 18.2912 4.39778 18.3731 4.14695 18.363C3.89612 18.3538 3.67424 18.2816 3.48129 18.1465C3.28834 18.0115 3.139 17.8282 3.03327 17.5966C2.92676 17.3651 2.92175 17.1143 3.01822 16.8442L4.66791 11.4899L0.471339 8.5089C0.239804 8.35455 0.0950946 8.15195 0.0372109 7.90112C-0.0206728 7.65029 -0.0110254 7.41876 0.0661529 7.20652C0.143331 6.99428 0.278393 6.80596 0.471339 6.64157C0.664284 6.47796 0.895819 6.39615 1.16594 6.39615H6.34653L8.02516 0.839313C8.12163 0.56919 8.27136 0.36158 8.47434 0.216485C8.67654 0.072162 8.89342 0 9.12495 0C9.35649 0 9.57336 0.072162 9.77556 0.216485C9.97854 0.36158 10.1283 0.56919 10.2247 0.839313L11.9034 6.39615H17.084C17.3541 6.39615 17.5856 6.47796 17.7786 6.64157C17.9715 6.80596 18.1066 6.99428 18.1838 7.20652C18.2609 7.41876 18.2706 7.65029 18.2127 7.90112C18.1548 8.15195 18.0101 8.35455 17.7786 8.5089L13.582 11.4899L15.2317 16.8442C15.3282 17.1143 15.3235 17.3651 15.2178 17.5966C15.1113 17.8282 14.9616 18.0115 14.7686 18.1465C14.5757 18.2816 14.3538 18.3538 14.1029 18.363C13.8521 18.3731 13.6206 18.2912 13.4083 18.1176L9.12495 14.8472Z" fill="white"/>
</svg>
