<svg width="45" height="30" viewBox="0 0 45 30" fill="none" xmlns="http://www.w3.org/2000/svg">
<rect width="45" height="30" rx="2.72727" fill="white"/>
<path fill-rule="evenodd" clip-rule="evenodd" d="M40.5682 15.2507C40.5682 12.681 39.3236 10.6533 36.9446 10.6533C34.5556 10.6533 33.1101 12.681 33.1101 15.2306C33.1101 18.252 34.8165 19.7778 37.2658 19.7778C38.4603 19.7778 39.3637 19.5067 40.0463 19.1253V17.1177C39.3637 17.459 38.5807 17.6698 37.587 17.6698C36.6133 17.6698 35.7501 17.3285 35.6397 16.144H40.5482C40.5482 16.0135 40.5682 15.4916 40.5682 15.2507ZM35.6095 14.2971C35.6095 13.1628 36.3022 12.691 36.9345 12.691C37.5468 12.691 38.1993 13.1628 38.1993 14.2971H35.6095Z" fill="#635BFF"/>
<path fill-rule="evenodd" clip-rule="evenodd" d="M29.2353 10.6533C28.2516 10.6533 27.6192 11.1151 27.2679 11.4363L27.1374 10.8139H24.9291V22.5181L27.4385 21.9861L27.4486 19.1454C27.8099 19.4064 28.342 19.7778 29.2253 19.7778C31.0221 19.7778 32.6582 18.3323 32.6582 15.1503C32.6482 12.2393 30.992 10.6533 29.2353 10.6533ZM28.6331 17.5694C28.0408 17.5694 27.6895 17.3586 27.4486 17.0976L27.4385 13.3736C27.6995 13.0825 28.0609 12.8817 28.6331 12.8817C29.5465 12.8817 30.1789 13.9056 30.1789 15.2206C30.1789 16.5656 29.5565 17.5694 28.6331 17.5694Z" fill="#635BFF"/>
<path fill-rule="evenodd" clip-rule="evenodd" d="M21.4762 10.0612L23.9957 9.51913V7.48145L21.4762 8.01345V10.0612Z" fill="#635BFF"/>
<path d="M23.9957 10.8242H21.4762V19.6074H23.9957V10.8242Z" fill="#635BFF"/>
<path fill-rule="evenodd" clip-rule="evenodd" d="M18.7757 11.5673L18.6151 10.8245H16.4469V19.6076H18.9564V13.6551C19.5486 12.8822 20.5524 13.0228 20.8636 13.1332V10.8245C20.5424 10.704 19.3679 10.4832 18.7757 11.5673Z" fill="#635BFF"/>
<path fill-rule="evenodd" clip-rule="evenodd" d="M13.7568 8.646L11.3075 9.16797L11.2975 17.2083C11.2975 18.6939 12.4117 19.788 13.8973 19.788C14.7204 19.788 15.3227 19.6375 15.6539 19.4568V17.4191C15.3327 17.5496 13.7467 18.0113 13.7467 16.5257V12.9623H15.6539V10.8242H13.7467L13.7568 8.646Z" fill="#635BFF"/>
<path fill-rule="evenodd" clip-rule="evenodd" d="M6.97147 13.3736C6.97147 12.9821 7.29268 12.8315 7.82469 12.8315C8.58757 12.8315 9.5512 13.0624 10.3141 13.474V11.1151C9.48094 10.7838 8.65783 10.6533 7.82469 10.6533C5.787 10.6533 4.43188 11.7173 4.43188 13.494C4.43188 16.2645 8.24628 15.8228 8.24628 17.0173C8.24628 17.4791 7.84476 17.6296 7.28264 17.6296C6.4495 17.6296 5.38548 17.2884 4.5423 16.8266V19.2156C5.47582 19.6171 6.41938 19.7878 7.28264 19.7878C9.37052 19.7878 10.8059 18.7539 10.8059 16.9571C10.7959 13.9658 6.97147 14.4978 6.97147 13.3736Z" fill="#635BFF"/>
</svg>
