<svg width="19" height="19" viewBox="0 0 19 19" fill="none" xmlns="http://www.w3.org/2000/svg">
<path fill-rule="evenodd" clip-rule="evenodd" d="M10.2918 2.37501C10.2918 2.16505 10.2084 1.96368 10.06 1.81522C9.91149 1.66675 9.71012 1.58334 9.50016 1.58334C9.2902 1.58334 9.08884 1.66675 8.94037 1.81522C8.7919 1.96368 8.7085 2.16505 8.7085 2.37501V3.95834C8.7085 4.16831 8.7919 4.36967 8.94037 4.51814C9.08884 4.6666 9.2902 4.75001 9.50016 4.75001C9.71012 4.75001 9.91149 4.6666 10.06 4.51814C10.2084 4.36967 10.2918 4.16831 10.2918 3.95834V2.37501ZM5.0217 3.90213C4.87172 3.76149 4.67291 3.68472 4.46732 3.68805C4.26174 3.69139 4.06552 3.77458 3.92019 3.92002C3.77485 4.06546 3.6918 4.26174 3.68861 4.46732C3.68541 4.67291 3.76233 4.87167 3.90308 5.02155L5.0225 6.14097C5.17181 6.28518 5.37178 6.36497 5.57936 6.36317C5.78693 6.36136 5.98549 6.27811 6.13227 6.13132C6.27905 5.98454 6.36231 5.78598 6.36411 5.57841C6.36592 5.37084 6.28612 5.17086 6.14191 5.02155L5.0217 3.90213ZM15.098 5.02155C15.2422 4.87224 15.322 4.67226 15.3202 4.46469C15.3184 4.25712 15.2352 4.05856 15.0884 3.91178C14.9416 3.765 14.7431 3.68174 14.5355 3.67993C14.3279 3.67813 14.1279 3.75793 13.9786 3.90213L12.8592 5.02155C12.715 5.17086 12.6352 5.37084 12.637 5.57841C12.6388 5.78598 12.7221 5.98454 12.8688 6.13132C13.0156 6.27811 13.2142 6.36136 13.4218 6.36317C13.6293 6.36497 13.8293 6.28518 13.9786 6.14097L15.098 5.02155ZM9.50016 5.54168C8.45035 5.54168 7.44353 5.95871 6.7012 6.70105C5.95887 7.44338 5.54183 8.45019 5.54183 9.50001C5.54183 10.5498 5.95887 11.5566 6.7012 12.299C7.44353 13.0413 8.45035 13.4583 9.50016 13.4583C10.55 13.4583 11.5568 13.0413 12.2991 12.299C13.0415 11.5566 13.4585 10.5498 13.4585 9.50001C13.4585 8.45019 13.0415 7.44338 12.2991 6.70105C11.5568 5.95871 10.55 5.54168 9.50016 5.54168ZM2.37516 8.70834C2.1652 8.70834 1.96384 8.79175 1.81537 8.94022C1.6669 9.08868 1.5835 9.29005 1.5835 9.50001C1.5835 9.70997 1.6669 9.91134 1.81537 10.0598C1.96384 10.2083 2.1652 10.2917 2.37516 10.2917H3.9585C4.16846 10.2917 4.36982 10.2083 4.51829 10.0598C4.66675 9.91134 4.75016 9.70997 4.75016 9.50001C4.75016 9.29005 4.66675 9.08868 4.51829 8.94022C4.36982 8.79175 4.16846 8.70834 3.9585 8.70834H2.37516ZM15.0418 8.70834C14.8319 8.70834 14.6305 8.79175 14.482 8.94022C14.3336 9.08868 14.2502 9.29005 14.2502 9.50001C14.2502 9.70997 14.3336 9.91134 14.482 10.0598C14.6305 10.2083 14.8319 10.2917 15.0418 10.2917H16.6252C16.8351 10.2917 17.0365 10.2083 17.185 10.0598C17.3334 9.91134 17.4168 9.70997 17.4168 9.50001C17.4168 9.29005 17.3334 9.08868 17.185 8.94022C17.0365 8.79175 16.8351 8.70834 16.6252 8.70834H15.0418ZM6.14112 13.9785C6.21673 13.9054 6.27704 13.8181 6.31853 13.7215C6.36002 13.6249 6.38186 13.521 6.38278 13.4159C6.38369 13.3108 6.36366 13.2065 6.32385 13.1093C6.28405 13.012 6.22527 12.9236 6.15093 12.8492C6.0766 12.7749 5.98821 12.7161 5.89092 12.6763C5.79362 12.6365 5.68938 12.6165 5.58426 12.6174C5.47914 12.6183 5.37526 12.6401 5.27868 12.6816C5.18209 12.7231 5.09473 12.7834 5.0217 12.8591L3.90229 13.9785C3.82668 14.0515 3.76636 14.1389 3.72487 14.2354C3.68338 14.332 3.66154 14.4359 3.66063 14.541C3.65972 14.6461 3.67975 14.7504 3.71955 14.8477C3.75936 14.945 3.81814 15.0334 3.89247 15.1077C3.96681 15.182 4.0552 15.2408 4.15249 15.2806C4.24978 15.3204 4.35403 15.3405 4.45915 15.3395C4.56426 15.3386 4.66815 15.3168 4.76473 15.2753C4.86132 15.2338 4.94868 15.1735 5.0217 15.0979L6.14112 13.9785ZM13.9786 12.8591C13.8293 12.7148 13.6293 12.635 13.4218 12.6369C13.2142 12.6387 13.0156 12.7219 12.8688 12.8687C12.7221 13.0155 12.6388 13.214 12.637 13.4216C12.6352 13.6292 12.715 13.8292 12.8592 13.9785L13.9786 15.0979C14.1279 15.2421 14.3279 15.3219 14.5355 15.3201C14.7431 15.3183 14.9416 15.235 15.0884 15.0882C15.2352 14.9415 15.3184 14.7429 15.3202 14.5353C15.322 14.3278 15.2422 14.1278 15.098 13.9785L13.9786 12.8591ZM10.2918 15.0417C10.2918 14.8317 10.2084 14.6303 10.06 14.4819C9.91149 14.3334 9.71012 14.25 9.50016 14.25C9.2902 14.25 9.08884 14.3334 8.94037 14.4819C8.7919 14.6303 8.7085 14.8317 8.7085 15.0417V16.625C8.7085 16.835 8.7919 17.0363 8.94037 17.1848C9.08884 17.3333 9.2902 17.4167 9.50016 17.4167C9.71012 17.4167 9.91149 17.3333 10.06 17.1848C10.2084 17.0363 10.2918 16.835 10.2918 16.625V15.0417Z" fill="#2F53DE"/>
</svg>
