<svg width="18" height="18" viewBox="0 0 18 18" fill="none" xmlns="http://www.w3.org/2000/svg">
<path fill-rule="evenodd" clip-rule="evenodd" d="M9.00003 0C4.03051 0 0 4.02901 0 9.00003C0 13.9703 4.03051 18.0001 9.00003 18.0001C13.9703 18.0001 18.0001 13.9703 18.0001 9.00003C18.0001 4.02901 13.9703 0 9.00003 0ZM11.418 13.4033C11.559 13.503 11.7405 13.5278 11.9025 13.467C12.0638 13.4055 12.183 13.2668 12.219 13.0988C12.5993 11.3123 13.5218 6.78977 13.8675 5.16527C13.8938 5.04227 13.8503 4.91477 13.7543 4.83302C13.6575 4.75127 13.524 4.72802 13.4055 4.77152C11.571 5.45102 5.92127 7.57053 3.61201 8.42478C3.46576 8.47953 3.37051 8.61978 3.37501 8.77503C3.38026 8.92953 3.48451 9.06378 3.63451 9.10878C4.67027 9.41853 6.02927 9.84978 6.02927 9.84978C6.02927 9.84978 6.66452 11.7683 6.99527 12.7433C7.03727 12.8663 7.13328 12.9623 7.25928 12.9953C7.38603 13.0283 7.52028 12.9938 7.61478 12.9045C8.14653 12.4028 8.96853 11.6265 8.96853 11.6265C8.96853 11.6265 10.5315 12.7718 11.418 13.4033ZM6.60077 9.60678L7.33578 12.03L7.49928 10.4955C7.49928 10.4955 10.3365 7.93578 11.955 6.47702C12.0023 6.43427 12.0083 6.36227 11.9693 6.31202C11.9303 6.26177 11.8583 6.24977 11.805 6.28427C9.93003 7.48128 6.60077 9.60678 6.60077 9.60678Z" fill="white"/>
</svg>
