<svg width="14" height="14" viewBox="0 0 14 14" fill="none" xmlns="http://www.w3.org/2000/svg">
<g clip-path="url(#clip0_176_2113)">
<path fill-rule="evenodd" clip-rule="evenodd" d="M7 0C3.13483 0 0 3.13367 0 7C0 10.8657 3.13483 14 7 14C10.8657 14 14 10.8657 14 7C14 3.13367 10.8657 0 7 0ZM8.88067 10.4247C8.99033 10.5023 9.1315 10.5216 9.2575 10.4743C9.38292 10.4265 9.47567 10.3186 9.50367 10.1879C9.79942 8.79842 10.5169 5.28092 10.7858 4.01742C10.8062 3.92175 10.7724 3.82258 10.6978 3.759C10.6225 3.69542 10.5187 3.67733 10.4265 3.71117C8.99967 4.23967 4.60542 5.88817 2.80933 6.55258C2.69558 6.59517 2.6215 6.70425 2.625 6.825C2.62908 6.94517 2.71017 7.04958 2.82683 7.08458C3.63242 7.3255 4.68942 7.66092 4.68942 7.66092C4.68942 7.66092 5.1835 9.15308 5.44075 9.91142C5.47342 10.0071 5.54808 10.0817 5.64608 10.1074C5.74467 10.1331 5.84908 10.1062 5.92258 10.0368C6.33617 9.64658 6.9755 9.04283 6.9755 9.04283C6.9755 9.04283 8.19117 9.93358 8.88067 10.4247ZM5.13392 7.47192L5.70558 9.35667L5.83275 8.16317C5.83275 8.16317 8.0395 6.17225 9.29833 5.03767C9.33508 5.00442 9.33975 4.94842 9.30942 4.90933C9.27908 4.87025 9.22308 4.86092 9.18167 4.88775C7.72333 5.81875 5.13392 7.47192 5.13392 7.47192Z" fill="#151517"/>
</g>
<defs>
<clipPath id="clip0_176_2113">
<rect width="14" height="14" fill="white"/>
</clipPath>
</defs>
</svg>
