<svg width="16" height="16" viewBox="0 0 16 16" fill="none" xmlns="http://www.w3.org/2000/svg">
<g clip-path="url(#clip0_537_1632)">
<path d="M7.07487 10.9335C7.07487 11.2872 7.36429 11.5767 7.71802 11.5767C8.07175 11.5767 8.36117 11.2872 8.36117 10.9335C8.36117 10.5798 8.07175 10.2904 7.71802 10.2904C7.36429 10.2904 7.07487 10.5798 7.07487 10.9335ZM7.07487 1.92944V4.50203H8.36117V3.26719C10.5414 3.58233 12.2201 5.44746 12.2201 7.71777C12.2201 10.2068 10.207 12.2198 7.71802 12.2198C5.22904 12.2198 3.21598 10.2068 3.21598 7.71777C3.21598 6.63729 3.59544 5.64684 4.23216 4.87506L7.71802 8.36092L8.62486 7.45408L4.25145 3.08068V3.09354C2.84296 4.1483 1.92969 5.82049 1.92969 7.71777C1.92969 10.9142 4.51514 13.5061 7.71802 13.5061C10.9145 13.5061 13.5063 10.9142 13.5063 7.71777C13.5063 4.52133 10.9145 1.92944 7.71802 1.92944H7.07487ZM11.5769 7.71777C11.5769 7.36404 11.2875 7.07463 10.9338 7.07463C10.58 7.07463 10.2906 7.36404 10.2906 7.71777C10.2906 8.07151 10.58 8.36092 10.9338 8.36092C11.2875 8.36092 11.5769 8.07151 11.5769 7.71777ZM3.85913 7.71777C3.85913 8.07151 4.14855 8.36092 4.50228 8.36092C4.85601 8.36092 5.14543 8.07151 5.14543 7.71777C5.14543 7.36404 4.85601 7.07463 4.50228 7.07463C4.14855 7.07463 3.85913 7.36404 3.85913 7.71777Z" fill="#2F53DE"/>
</g>
<defs>
<clipPath id="clip0_537_1632">
<rect width="15.4355" height="15.4355" fill="white"/>
</clipPath>
</defs>
</svg>
