<svg width="25" height="25" viewBox="0 0 25 25" fill="none" xmlns="http://www.w3.org/2000/svg">
<rect width="25" height="25" rx="4.54545" fill="#2F53DE"/>
<g clip-path="url(#clip0_533_1752)">
<path d="M11.9878 16.1301C11.9878 16.5294 12.3145 16.8561 12.7138 16.8561C13.1131 16.8561 13.4398 16.5294 13.4398 16.1301C13.4398 15.7308 13.1131 15.4041 12.7138 15.4041C12.3145 15.4041 11.9878 15.7308 11.9878 16.1301ZM11.9878 5.96594V8.86998H13.4398V7.47604C15.901 7.83179 17.7958 9.93722 17.7958 12.5C17.7958 15.3097 15.5234 17.5821 12.7138 17.5821C9.90412 17.5821 7.63171 15.3097 7.63171 12.5C7.63171 11.2803 8.06005 10.1623 8.7788 9.29107L12.7138 13.226L13.7375 12.2024L8.80058 7.2655V7.28002C7.21062 8.47068 6.17969 10.3583 6.17969 12.5C6.17969 16.1083 9.09825 19.0341 12.7138 19.0341C16.322 19.0341 19.2479 16.1083 19.2479 12.5C19.2479 8.89176 16.322 5.96594 12.7138 5.96594H11.9878ZM17.0698 12.5C17.0698 12.1007 16.7431 11.774 16.3438 11.774C15.9445 11.774 15.6178 12.1007 15.6178 12.5C15.6178 12.8993 15.9445 13.226 16.3438 13.226C16.7431 13.226 17.0698 12.8993 17.0698 12.5ZM8.35772 12.5C8.35772 12.8993 8.68442 13.226 9.08373 13.226C9.48303 13.226 9.80974 12.8993 9.80974 12.5C9.80974 12.1007 9.48303 11.774 9.08373 11.774C8.68442 11.774 8.35772 12.1007 8.35772 12.5Z" fill="white"/>
</g>
<defs>
<clipPath id="clip0_533_1752">
<rect width="17.4242" height="17.4242" fill="white" transform="translate(4 3.7879)"/>
</clipPath>
</defs>
</svg>
