<svg width="174" height="37" viewBox="0 0 174 37" fill="none" xmlns="http://www.w3.org/2000/svg">
<path d="M172.822 24.7046C172.283 24.7046 171.845 25.1424 171.845 25.6815C171.845 26.2206 172.283 26.6585 172.822 26.6585C173.361 26.6585 173.799 26.2206 173.799 25.6815C173.799 25.1424 173.361 24.7046 172.822 24.7046ZM172.822 26.5036C172.368 26.5036 172 26.1338 172 25.6815C172 25.2271 172.37 24.8595 172.822 24.8595C173.277 24.8595 173.646 25.2292 173.646 25.6815C173.646 26.1338 173.277 26.5036 172.822 26.5036ZM173.14 25.5142C173.14 25.3366 173.014 25.2312 172.828 25.2312H172.516V26.1215H172.669V25.7993H172.837L172.998 26.1215H173.163L172.985 25.7662C173.08 25.7228 173.14 25.636 173.14 25.5142ZM172.822 25.6609H172.672V25.3655H172.822C172.926 25.3655 172.988 25.4172 172.988 25.5122C172.987 25.6092 172.924 25.6609 172.822 25.6609ZM55.1071 14.8173V12.4545H51.4844V26.5118H55.1071V18.0828C55.1071 16.5565 56.0861 15.8067 57.6125 15.8067H59.5953V12.4545H57.9016C56.5756 12.4545 55.4231 13.1464 55.1071 14.8173ZM62.9888 6.89435C61.7496 6.89435 60.7994 7.87338 60.7994 9.11263C60.7994 10.323 61.7496 11.302 62.9888 11.302C64.2281 11.302 65.1782 10.323 65.1782 9.11263C65.1781 7.87333 64.2281 6.89435 62.9888 6.89435ZM61.1815 26.5118H64.7961V12.4545H61.1815V26.5118ZM82.0135 19.4831C82.0135 23.4963 78.7604 26.7494 74.7473 26.7494C73.1279 26.7494 71.6595 26.2186 70.4821 25.3221V30.6386H66.8676V12.4545H70.4821V13.6441C71.6595 12.7478 73.1279 12.2169 74.7473 12.2169C78.7604 12.2169 82.0135 15.47 82.0135 19.4831ZM78.3763 19.4831C78.3763 17.3041 76.6083 15.5361 74.4292 15.5361C72.2502 15.5361 70.4822 17.3041 70.4822 19.4831C70.4822 21.6622 72.2502 23.4302 74.4292 23.4302C76.6083 23.4302 78.3763 21.6643 78.3763 19.4831ZM144.836 18.2501L142.727 17.6718C141.339 17.3103 140.8 16.8848 140.8 16.1516C140.8 15.4369 141.56 14.9371 142.646 14.9371C143.681 14.9371 144.493 15.6146 144.493 16.482V16.5626H147.824V16.482C147.824 13.9312 145.745 12.2169 142.646 12.2169C139.579 12.2169 137.351 13.9291 137.351 16.2899C137.351 18.1261 138.567 19.5099 140.69 20.0841L142.71 20.6356C144.245 21.0611 144.815 21.532 144.815 22.3768C144.815 23.267 143.991 23.866 142.764 23.866C141.485 23.866 140.624 23.0563 140.624 21.8542V21.7736H137.088V21.8542C137.088 24.7376 139.41 26.7534 142.735 26.7534C145.939 26.7534 148.264 24.7851 148.264 22.0752C148.264 20.7451 147.669 19.0061 144.836 18.2501ZM94.8357 12.4545H98.4502V26.5118H94.8357V25.3221C93.6584 26.2185 92.1899 26.7493 90.5706 26.7493C86.5575 26.7493 83.3044 23.4963 83.3044 19.4831C83.3044 15.4699 86.5575 12.2169 90.5706 12.2169C92.1899 12.2169 93.6585 12.7477 94.8357 13.6441V12.4545ZM94.8357 19.4831C94.8357 17.302 93.0677 15.5361 90.8886 15.5361C88.7096 15.5361 86.9416 17.3041 86.9416 19.4831C86.9416 21.6622 88.7096 23.4302 90.8886 23.4302C93.0697 23.4302 94.8357 21.6643 94.8357 19.4831ZM111.502 7.452H115.116V26.5139H111.502V25.3241C110.324 26.2206 108.856 26.7514 107.237 26.7514C103.223 26.7514 99.9703 23.4983 99.9703 19.4851C99.9703 15.472 103.223 12.219 107.237 12.219C108.856 12.219 110.324 12.7498 111.502 13.6462V7.452ZM111.502 19.4831C111.502 17.3041 109.734 15.5361 107.555 15.5361C105.376 15.5361 103.608 17.3041 103.608 19.4831C103.608 21.6622 105.373 23.4302 107.555 23.4302C109.734 23.4302 111.502 21.6643 111.502 19.4831ZM131.898 26.5118H135.512V12.4545H131.898V26.5118ZM133.705 6.89435C132.466 6.89435 131.516 7.87338 131.516 9.11263C131.516 10.323 132.466 11.302 133.705 11.302C134.944 11.302 135.894 10.323 135.894 9.11263C135.894 7.87333 134.944 6.89435 133.705 6.89435ZM163.887 19.4831C163.887 23.4963 160.634 26.7494 156.621 26.7494C152.608 26.7494 149.355 23.4963 149.355 19.4831C149.355 15.47 152.608 12.2169 156.621 12.2169C160.634 12.2169 163.887 15.47 163.887 19.4831ZM160.568 19.4831C160.568 17.3041 158.8 15.5361 156.621 15.5361C154.442 15.5361 152.674 17.3041 152.674 19.4831C152.674 21.6622 154.44 23.4302 156.621 23.4302C158.8 23.4302 160.568 21.6643 160.568 19.4831ZM53.2564 7.452H39.3912V10.6762H44.5238V26.5118H48.1259V10.6762H53.2586V7.452H53.2564ZM123.376 22.6618L120.16 12.4545H116.364L121.186 26.5118H125.536L130.388 12.4545H126.592L123.376 22.6618ZM169.183 14.8173V12.4545H165.56V26.5118H169.183V18.0828C169.183 16.5565 170.162 15.8067 171.688 15.8067H173.671V12.4545H171.978C170.651 12.4545 169.501 13.1464 169.183 14.8173Z" fill="#494949"/>
<path d="M18.4856 36.9712C28.6949 36.9712 36.9712 28.6949 36.9712 18.4856C36.9712 8.27629 28.6949 0 18.4856 0C8.27629 0 0 8.27629 0 18.4856C0 28.6949 8.27629 36.9712 18.4856 36.9712Z" fill="#494949"/>
<path d="M29.9026 14.8793L32.1333 12.4524H27.1866C24.7101 10.7608 21.7193 9.77557 18.4849 9.77557C15.2545 9.77557 12.2721 10.7629 9.79973 12.4524H4.84064L7.07131 14.8793C5.70401 16.1268 4.84686 17.9237 4.84686 19.919C4.84686 23.6842 7.8996 26.7369 11.6649 26.7369C13.4536 26.7369 15.0831 26.0471 16.2997 24.9193L18.4849 27.2987L20.6702 24.9214C21.8867 26.0492 23.5142 26.7369 25.3029 26.7369C29.0682 26.7369 32.125 23.6842 32.125 19.919C32.127 17.9217 31.2699 16.1248 29.9026 14.8793ZM11.6669 24.5331C9.11813 24.5331 7.05276 22.4677 7.05276 19.919C7.05276 17.3702 9.11818 15.3048 11.6669 15.3048C14.2156 15.3048 16.281 17.3702 16.281 19.919C16.281 22.4677 14.2156 24.5331 11.6669 24.5331ZM18.4869 19.7847C18.4869 16.7485 16.279 14.1419 13.3647 13.0286C14.9406 12.3697 16.6694 12.0042 18.4849 12.0042C20.3004 12.0042 22.0312 12.3697 23.6071 13.0286C20.6949 14.144 18.4869 16.7485 18.4869 19.7847ZM25.305 24.5331C22.7562 24.5331 20.6908 22.4677 20.6908 19.919C20.6908 17.3702 22.7562 15.3048 25.305 15.3048C27.8538 15.3048 29.9191 17.3702 29.9191 19.919C29.9191 22.4677 27.8537 24.5331 25.305 24.5331ZM25.305 17.4982C23.9686 17.4982 22.8863 18.5805 22.8863 19.9169C22.8863 21.2532 23.9686 22.3355 25.305 22.3355C26.6413 22.3355 27.7236 21.2532 27.7236 19.9169C27.7235 18.5826 26.6413 17.4982 25.305 17.4982ZM14.0855 19.919C14.0855 21.2553 13.0032 22.3376 11.6669 22.3376C10.3306 22.3376 9.24829 21.2553 9.24829 19.919C9.24829 18.5826 10.3306 17.5003 11.6669 17.5003C13.0032 17.4982 14.0855 18.5826 14.0855 19.919Z" fill="#F8F8F8"/>
</svg>
