<svg width="182" height="45" viewBox="0 0 182 45" fill="none" xmlns="http://www.w3.org/2000/svg">
<g clip-path="url(#clip0_176_1847)">
<path d="M47.7942 10.759H66.1802V14.1832H58.9392V33.4781H54.9697V14.1832H47.7578L47.7869 10.759H47.7942ZM65.3951 17.0331H68.7902V20.2101H68.8483C68.9719 19.7594 69.1828 19.3305 69.4881 18.9088C69.7935 18.4871 70.157 18.0873 70.6077 17.7601C71.0294 17.3966 71.5165 17.1204 72.0617 16.9095C72.5779 16.6987 73.1232 16.5751 73.6684 16.5751C74.2137 16.5751 74.3954 16.6042 74.5481 16.6042C74.7008 16.6333 74.8825 16.6623 75.0352 16.6623V20.1447C74.7953 20.0866 74.519 20.0575 74.25 20.0211C73.981 19.992 73.7338 19.963 73.4648 19.963C72.8614 19.963 72.2871 20.0866 71.7346 20.3265C71.182 20.5664 70.7313 20.9299 70.3096 21.3879C69.917 21.875 69.5826 22.4493 69.3427 23.1473C69.1028 23.8452 68.9792 24.6594 68.9792 25.5682V33.3836H65.3442L65.4023 17.0259L65.3951 17.0331ZM91.6837 33.4781H88.1068V31.1734H88.0486C87.5979 32.024 86.9291 32.6565 86.0494 33.1727C85.1697 33.6889 84.2609 33.9288 83.3522 33.9288C81.2002 33.9288 79.6299 33.4126 78.6557 32.3221C77.6888 31.2607 77.2017 29.6249 77.2017 27.473V17.0259H80.8367V27.1095C80.8367 28.5635 81.1057 29.5958 81.6873 30.1702C82.2326 30.7736 83.0177 31.0789 84.021 31.0789C85.0243 31.0789 85.4169 30.9553 85.9258 30.7154C86.442 30.4755 86.8636 30.1702 87.169 29.7776C87.5034 29.385 87.7142 28.8979 87.8669 28.3526C88.0196 27.8074 88.0777 27.204 88.0777 26.5642V17.0259H91.7128V33.4708H91.6837V33.4781ZM97.8633 28.2072C97.9869 29.2687 98.3794 29.9957 99.0774 30.4464C99.7753 30.8681 100.626 31.0862 101.593 31.0862C102.56 31.0862 102.32 31.0571 102.741 30.999C103.163 30.9408 103.592 30.8463 103.956 30.6936C104.348 30.5409 104.654 30.3301 104.893 30.0248C105.133 29.7194 105.257 29.3559 105.228 28.9052C105.199 28.4544 105.046 28.0546 104.712 27.7565C104.377 27.4584 103.985 27.2403 103.498 27.0295C103.01 26.8477 102.436 26.6951 101.804 26.5787C101.164 26.4552 100.531 26.3098 99.8625 26.1571C99.1937 26.0044 98.5321 25.8227 97.8923 25.6118C97.2526 25.401 96.7146 25.1247 96.1984 24.7321C95.7113 24.3686 95.2896 23.9106 95.0207 23.3363C94.7153 22.7619 94.5699 22.0931 94.5699 21.2498C94.5699 20.4064 94.7807 19.614 95.2388 19.0106C95.6604 18.4072 96.2348 17.9201 96.9036 17.5566C97.5725 17.1931 98.3286 16.9168 99.1428 16.7714C99.9571 16.6187 100.749 16.5606 101.477 16.5606C102.204 16.5606 103.141 16.6478 103.897 16.8296C104.654 17.0113 105.381 17.2803 105.984 17.7092C106.624 18.1018 107.133 18.6471 107.532 19.2868C107.954 19.9266 108.201 20.7118 108.318 21.6205H104.53C104.348 20.7409 103.956 20.1665 103.352 19.8612C102.712 19.5558 102.022 19.4104 101.2 19.4104C100.379 19.4104 100.626 19.4395 100.291 19.4686C99.928 19.5268 99.6226 19.5922 99.2955 19.7085C98.9901 19.8321 98.7211 20.0139 98.5103 20.2247C98.2995 20.4355 98.1759 20.7409 98.1759 21.1044C98.1759 21.4679 98.3286 21.8895 98.6266 22.1658C98.932 22.4348 99.3246 22.6529 99.8407 22.8637C100.328 23.0455 100.902 23.1982 101.535 23.3145C102.167 23.4308 102.836 23.5835 103.505 23.7361C104.174 23.8888 104.806 24.0706 105.446 24.2814C106.086 24.4922 106.66 24.7685 107.14 25.1611C107.627 25.5246 108.049 25.9826 108.354 26.5206C108.659 27.0658 108.805 27.7638 108.805 28.5489C108.805 29.3341 108.594 30.3374 108.136 31.0353C107.685 31.7042 107.104 32.2785 106.406 32.7002C105.708 33.1218 104.893 33.4272 104.043 33.638C103.163 33.8198 102.313 33.9433 101.469 33.9433C100.626 33.9433 99.47 33.8198 98.5903 33.5798C97.7106 33.3399 96.9254 32.9764 96.2857 32.5184C95.6459 32.0313 95.137 31.457 94.7735 30.73C94.41 30.032 94.1991 29.1814 94.1701 28.1854H97.8342V28.2145H97.8633V28.2072ZM109.83 17.0331H112.585V12.0676H116.22V17.004H119.492V19.7012H116.22V28.4835C116.22 28.8761 116.249 29.1814 116.278 29.4795C116.307 29.7485 116.402 29.9957 116.489 30.1774C116.613 30.3592 116.795 30.5119 117.005 30.5991C117.245 30.6863 117.551 30.7518 117.972 30.7518C118.394 30.7518 118.489 30.7518 118.728 30.7227C118.968 30.6936 119.245 30.6645 119.485 30.5991V33.4126C119.092 33.4708 118.699 33.4999 118.307 33.5362C117.914 33.5944 117.551 33.5944 117.129 33.5944C116.162 33.5944 115.399 33.5071 114.824 33.3254C114.25 33.1436 113.792 32.8746 113.465 32.5402C113.13 32.1767 112.92 31.7551 112.796 31.2389C112.672 30.7227 112.614 30.0902 112.585 29.4214V19.7303H109.83V16.975V17.0331ZM122.036 17.0331H125.461V19.2723H125.519C126.035 18.3054 126.733 17.6365 127.642 17.2149C128.55 16.7932 129.517 16.5751 130.608 16.5751C131.698 16.5751 133.029 16.7859 134.003 17.273C134.97 17.7238 135.762 18.3345 136.395 19.1487C137.035 19.9339 137.514 20.879 137.82 21.9332C138.125 22.9873 138.307 24.1433 138.307 25.3283C138.307 26.5133 138.154 27.5093 137.885 28.5417C137.58 29.574 137.158 30.5119 136.584 31.297C136.009 32.0822 135.282 32.722 134.374 33.2018C133.465 33.6889 132.433 33.9288 131.226 33.9288C130.019 33.9288 130.164 33.8706 129.648 33.7761C129.132 33.6889 128.616 33.5362 128.136 33.3254C127.649 33.1146 127.198 32.8383 126.805 32.5039C126.384 32.1694 126.049 31.7769 125.773 31.3552H125.715V39.5631H122.08V17.0259H122.051L122.036 17.0331ZM134.73 25.2701C134.73 24.5431 134.643 23.8161 134.425 23.1182C134.243 22.4203 133.937 21.8168 133.545 21.2716C133.152 20.7263 132.665 20.3047 132.12 19.9702C131.546 19.6358 130.877 19.4831 130.15 19.4831C128.638 19.4831 127.482 19.9993 126.696 21.0608C125.94 22.1222 125.548 23.5471 125.548 25.2992C125.548 27.0513 125.635 26.9059 125.853 27.6038C126.071 28.3018 126.34 28.9052 126.762 29.4214C127.154 29.9375 127.642 30.3301 128.216 30.6355C128.79 30.9408 129.43 31.0862 130.186 31.0862C130.942 31.0862 131.698 30.9044 132.273 30.57C132.847 30.2356 133.305 29.7849 133.698 29.2687C134.061 28.7234 134.337 28.12 134.483 27.4221C134.635 26.6951 134.723 25.9971 134.723 25.2701H134.73ZM141.12 10.759H144.755V14.1832H141.12V10.759ZM141.12 17.0331H144.755V33.4781H141.12V17.0331ZM147.998 10.759H151.633V33.4781H147.998V10.759ZM162.72 33.9361C161.418 33.9361 160.233 33.7252 159.208 33.2672C158.176 32.8165 157.333 32.2349 156.606 31.4788C155.908 30.7227 155.362 29.7849 154.999 28.7234C154.635 27.662 154.425 26.4842 154.425 25.2411C154.425 23.9979 154.606 22.8492 154.999 21.7878C155.362 20.7263 155.908 19.8176 156.606 19.0324C157.304 18.2763 158.183 17.6729 159.208 17.244C160.241 16.8223 161.418 16.5751 162.72 16.5751C164.021 16.5751 165.206 16.7859 166.231 17.244C167.264 17.6656 168.107 18.2763 168.834 19.0324C169.532 19.7885 170.077 20.7263 170.441 21.7878C170.804 22.8492 171.015 23.9979 171.015 25.2411C171.015 26.4842 170.833 27.662 170.441 28.7234C170.048 29.7849 169.532 30.6936 168.834 31.4788C168.136 32.2349 167.256 32.8383 166.231 33.2672C165.199 33.6889 164.05 33.9361 162.72 33.9361ZM162.72 31.0571C163.505 31.0571 164.232 30.8754 164.814 30.5409C165.417 30.2065 165.875 29.7558 166.268 29.2105C166.66 28.6653 166.936 28.0328 167.118 27.3639C167.3 26.666 167.394 25.9681 167.394 25.2411C167.394 24.514 167.307 23.8452 167.118 23.1545C166.936 22.4566 166.667 21.8532 166.268 21.3079C165.868 20.7627 165.388 20.341 164.814 20.0066C164.21 19.6722 163.512 19.4904 162.72 19.4904C161.927 19.4904 161.208 19.6722 160.626 20.0066C160.023 20.341 159.565 20.7918 159.172 21.3079C158.779 21.8532 158.503 22.4566 158.321 23.1545C158.14 23.8525 158.045 24.5504 158.045 25.2411C158.045 25.9317 158.132 26.666 158.321 27.3639C158.503 28.0618 158.772 28.6653 159.172 29.2105C159.565 29.7558 160.052 30.2065 160.626 30.5409C161.229 30.9044 161.927 31.0571 162.72 31.0571ZM172.113 17.0331H174.868V12.0676H178.503V17.004H181.775V19.7012H178.503V28.4835C178.503 28.8761 178.532 29.1814 178.561 29.4795C178.59 29.7485 178.685 29.9957 178.772 30.1774C178.896 30.3592 179.077 30.5119 179.288 30.5991C179.528 30.6863 179.834 30.7518 180.255 30.7518C180.677 30.7518 180.771 30.7518 181.011 30.7227C181.251 30.6936 181.527 30.6645 181.767 30.5991V33.4126C181.375 33.4708 180.982 33.4999 180.582 33.5362C180.19 33.5944 179.826 33.5944 179.397 33.5944C178.43 33.5944 177.667 33.5071 177.093 33.3254C176.518 33.1436 176.06 32.8746 175.733 32.5402C175.399 32.1767 175.188 31.7551 175.064 31.2389C174.941 30.7227 174.883 30.0902 174.854 29.4214V19.7303H172.098V16.975V17.0331H172.113Z" fill="#494949"/>
<path d="M43.5567 15.8124H26.9228L21.8046 0L16.6574 15.8124L0.0234375 15.7834L13.4731 25.5689L8.32588 41.3813L21.7755 31.5958L35.2252 41.3813L30.1071 25.5689L43.5567 15.8124Z" fill="#494949"/>
<path d="M31.2556 29.1385L30.1069 25.5616L21.8045 31.5885L31.2556 29.1313V29.1385Z" fill="black"/>
</g>
<defs>
<clipPath id="clip0_176_1847">
<rect width="181.799" height="44.6499" fill="white"/>
</clipPath>
</defs>
</svg>
