<svg width="114" height="29" viewBox="0 0 114 29" fill="none" xmlns="http://www.w3.org/2000/svg">
<g clip-path="url(#clip0_176_1839)">
<path d="M110.931 24.2926C111.254 24.2767 111.574 24.3578 111.851 24.5257C112.127 24.6936 112.347 24.9404 112.482 25.2344C112.616 25.5284 112.66 25.856 112.606 26.1749C112.553 26.4938 112.405 26.7895 112.182 27.0236C111.959 27.2578 111.671 27.4197 111.355 27.4885C111.039 27.5573 110.71 27.5299 110.41 27.4097C110.11 27.2895 109.852 27.0821 109.671 26.8142C109.49 26.5464 109.393 26.2304 109.394 25.907C109.384 25.4891 109.54 25.0844 109.828 24.7817C110.117 24.479 110.513 24.3031 110.931 24.2926ZM110.931 24.062C110.566 24.062 110.209 24.1702 109.906 24.373C109.603 24.5757 109.366 24.8638 109.227 25.201C109.087 25.5381 109.05 25.9091 109.122 26.267C109.193 26.6249 109.368 26.9536 109.627 27.2116C109.885 27.4697 110.213 27.6454 110.571 27.7166C110.929 27.7878 111.3 27.7512 111.637 27.6116C111.974 27.4719 112.262 27.2355 112.465 26.9321C112.668 26.6286 112.776 26.2719 112.776 25.907C112.776 25.4177 112.582 24.9484 112.236 24.6024C111.89 24.2564 111.42 24.062 110.931 24.062ZM111.199 25.947C111.311 25.9246 111.412 25.8644 111.485 25.7766C111.558 25.6888 111.599 25.5786 111.601 25.4642C111.601 25.126 111.309 24.9845 110.891 24.9845H110.356V26.8295H110.664V25.9993H110.91L111.297 26.6143C111.42 26.808 111.442 26.8203 111.605 26.8203H111.761V26.8019L111.199 25.947ZM110.867 25.9162H110.657V25.0675H110.845C111.153 25.0675 111.279 25.1844 111.279 25.4888C111.279 25.7932 111.193 25.9009 110.867 25.9009V25.9162ZM24.5939 5.59655H31.4051V27.7367H24.5939V5.59655ZM68.702 25.5226C66.7001 25.5226 65.7469 24.3203 65.7469 22.2662V7.44156H71.1558V5.59655H65.7469V0.0615234H59.2032L58.8957 5.59655H55.9929V7.44156H58.8957V22.0264C58.8957 25.784 61.0482 28.2348 65.4578 28.2348C68.7634 28.2348 70.7192 26.8849 71.5187 25.0829L71.2112 24.7324C70.4833 25.2623 69.6021 25.5398 68.702 25.5226Z" fill="#494949"/>
<path d="M82.9338 5.09529C75.6706 5.09529 71.0612 10.1537 71.0612 16.7803C71.0612 23.3394 75.3662 28.2471 82.7831 28.2471C90.3477 28.2471 94.6527 23.1918 94.6527 16.5774C94.6527 10.0061 90.1447 5.09529 82.9338 5.09529ZM82.8846 26.6358C79.2253 26.6358 78.721 23.6776 78.721 16.6051C78.721 9.64324 79.2192 6.63587 82.8262 6.63587C86.4824 6.63587 86.9836 9.64324 86.9836 16.7035C86.9897 23.6284 86.5408 26.6358 82.8846 26.6358ZM104.185 9.40338L104.035 5.59652H97.4233V27.7366H104.244V10.0061C104.653 9.87716 105.079 9.80878 105.507 9.80314C106.722 9.80314 108.137 10.3044 112.383 12.3093L112.786 12.1586V5.94707C112.002 5.3788 111.055 5.07994 110.086 5.09529C108.177 5.09529 105.953 6.29762 104.185 9.40338ZM47.156 25.0829L47.9401 27.7366H53.7673V10.7072C53.7673 6.94952 50.8122 5.09529 45.9537 5.09529C42.6972 5.09529 38.6905 5.99627 35.9353 6.90032L35.6278 10.7564L36.0306 10.9563C41.2397 7.45075 42.7956 6.65125 44.3946 6.65125C46.2396 6.65125 46.9992 7.6045 46.9992 9.60634V14.2189C39.287 15.8209 34.5761 16.9864 34.5761 22.2323C34.5761 25.8393 36.9808 28.244 40.8399 28.244C43.8012 28.2379 46.0029 26.8356 47.156 25.0829ZM41.295 20.9747C41.295 17.5675 42.4481 16.7158 47.0053 15.7656V24.2926C46.1821 24.9481 45.151 25.2863 44.0994 25.2459C42.1468 25.2336 41.295 24.1296 41.295 20.9747Z" fill="#494949"/>
<path d="M17.6043 13.4378C19.897 13.4378 21.7555 11.5792 21.7555 9.28652C21.7555 6.99384 19.897 5.13525 17.6043 5.13525C15.3116 5.13525 13.453 6.99384 13.453 9.28652C13.453 11.5792 15.3116 13.4378 17.6043 13.4378Z" fill="#494949"/>
<path d="M13.0349 27.7367L15.2028 22.8689L7.51216 5.59656H0.23053L10.089 27.7367H13.0349Z" fill="#494949"/>
</g>
<defs>
<clipPath id="clip0_176_1839">
<rect width="113.4" height="28.1764" fill="white"/>
</clipPath>
</defs>
</svg>
