<svg width="45" height="30" viewBox="0 0 45 30" fill="none" xmlns="http://www.w3.org/2000/svg">
<rect width="45" height="30" rx="2.72727" fill="white"/>
<g clip-path="url(#clip0_176_2001)">
<path d="M19.9998 20.894H16.9619L18.862 9.14502H21.8998L19.9998 20.894Z" fill="#00579F"/>
<path d="M31.0124 9.43184C30.4131 9.19412 29.4627 8.93164 28.2876 8.93164C25.2875 8.93164 23.1749 10.5314 23.162 12.8186C23.137 14.5061 24.6745 15.4434 25.8244 16.0061C26.9998 16.581 27.3993 16.9563 27.3993 17.4688C27.3873 18.2559 26.4496 18.6187 25.5749 18.6187C24.362 18.6187 23.7122 18.4317 22.7246 17.9937L22.3245 17.806L21.8994 20.4434C22.6119 20.768 23.9246 21.0561 25.2875 21.0687C28.4751 21.0687 30.5504 19.4937 30.575 17.0563C30.5871 15.7188 29.7752 14.694 28.0249 13.8566C26.9624 13.319 26.3117 12.9565 26.3117 12.4065C26.3241 11.9064 26.8621 11.3943 28.0615 11.3943C29.0491 11.3692 29.7747 11.6066 30.3244 11.8441L30.5992 11.9689L31.0124 9.43184Z" fill="#00579F"/>
<path d="M35.0508 16.7318C35.3009 16.0568 36.2636 13.4445 36.2636 13.4445C36.251 13.4696 36.5133 12.7571 36.6633 12.3197L36.8756 13.332C36.8756 13.332 37.4509 16.1444 37.5759 16.7318C37.1011 16.7318 35.6508 16.7318 35.0508 16.7318ZM38.8007 9.14502H36.4509C35.7262 9.14502 35.1757 9.35733 34.863 10.1198L30.3506 20.8939H33.5382C33.5382 20.8939 34.063 19.4438 34.1758 19.1314C34.5255 19.1314 37.6264 19.1314 38.0762 19.1314C38.1634 19.5439 38.4387 20.8939 38.4387 20.8939H41.2515L38.8007 9.14502Z" fill="#00579F"/>
<path d="M14.4242 9.14502L11.4491 17.1567L11.124 15.5319C10.5739 13.657 8.84888 11.6199 6.92383 10.6071L9.64894 20.8816H12.8615L17.6366 9.14502H14.4242Z" fill="#00579F"/>
<path d="M8.68675 9.14502H3.79903L3.74902 9.38241C7.56175 10.3574 10.0869 12.7076 11.1243 15.5324L10.0618 10.1326C9.88684 9.38225 9.34926 9.16977 8.68675 9.14502Z" fill="#FAA61A"/>
</g>
<defs>
<clipPath id="clip0_176_2001">
<rect width="37.502" height="12.1371" fill="white" transform="translate(3.74902 8.93164)"/>
</clipPath>
</defs>
</svg>
