<svg width="18" height="18" viewBox="0 0 18 18" fill="none" xmlns="http://www.w3.org/2000/svg">
<g clip-path="url(#clip0_713_1748)">
<path d="M9.02325 4.629C6.6375 4.629 4.698 6.5685 4.69725 8.9535C4.6965 9.927 4.98225 10.656 5.4615 11.4188L5.025 13.0148L6.6615 12.585C7.395 13.02 8.09475 13.281 9.02025 13.2817C11.4038 13.2817 13.3455 11.3415 13.3463 8.95725C13.347 6.567 11.415 4.62975 9.02325 4.629ZM11.5673 10.812C11.4593 11.1158 10.9395 11.3925 10.6898 11.43C10.4655 11.4637 10.182 11.4773 9.87075 11.3783C9.68175 11.3182 9.4395 11.238 9.12975 11.1045C7.8255 10.5413 6.97425 9.228 6.909 9.14175C6.84375 9.05475 6.378 8.43675 6.378 7.797C6.378 7.15725 6.714 6.84225 6.83325 6.7125C6.9525 6.58275 7.09275 6.54975 7.17975 6.54975L7.42875 6.55425C7.50825 6.558 7.6155 6.52425 7.72125 6.77775C7.82925 7.038 8.0895 7.67775 8.12175 7.743C8.154 7.80825 8.17575 7.884 8.13225 7.971C8.08875 8.058 8.067 8.112 8.0025 8.18775L7.8075 8.41575C7.74225 8.48025 7.67475 8.55075 7.7505 8.68125C7.82625 8.81175 8.08725 9.237 8.4735 9.582C8.97 10.0252 9.38925 10.1625 9.519 10.227C9.64875 10.2915 9.7245 10.281 9.801 10.1947C9.87675 10.1077 10.1257 9.81525 10.2127 9.68475C10.2997 9.555 10.386 9.576 10.5052 9.6195C10.6245 9.663 11.2635 9.97725 11.3932 10.0425C11.523 10.1078 11.61 10.14 11.6423 10.194C11.676 10.248 11.676 10.5083 11.5673 10.812ZM9 0C4.02975 0 0 4.02975 0 9C0 13.9703 4.02975 18 9 18C13.9703 18 18 13.9703 18 9C18 4.02975 13.9703 0 9 0ZM9.02175 14.16C8.151 14.16 7.293 13.941 6.53325 13.527L3.7755 14.25L4.5135 11.5538C4.05825 10.7647 3.81825 9.86925 3.819 8.95275C3.81975 6.084 6.15375 3.75 9.02175 3.75C10.4138 3.75075 11.7203 4.29225 12.702 5.2755C13.6845 6.25875 14.2252 7.566 14.2245 8.9565C14.2238 11.8253 11.8898 14.16 9.02175 14.16Z" fill="#FFF7E5"/>
</g>
<defs>
<clipPath id="clip0_713_1748">
<rect width="18" height="18" fill="white"/>
</clipPath>
</defs>
</svg>
