<svg width="14" height="14" viewBox="0 0 14 14" fill="none" xmlns="http://www.w3.org/2000/svg">
<g clip-path="url(#clip0_176_2119)">
<path d="M7.01808 3.60033C5.1625 3.60033 3.654 5.10883 3.65342 6.96383C3.65283 7.721 3.87508 8.288 4.24783 8.88125L3.90833 10.1226L5.18117 9.78833C5.75167 10.1267 6.29592 10.3297 7.01575 10.3302C8.86958 10.3302 10.3798 8.82117 10.3804 6.96675C10.381 5.10767 8.87833 3.60092 7.01808 3.60033ZM8.99675 8.40933C8.91275 8.64558 8.5085 8.86083 8.31425 8.89C8.13983 8.91625 7.91933 8.92675 7.67725 8.84975C7.53025 8.80308 7.34183 8.74067 7.10092 8.63683C6.0865 8.19875 5.42442 7.17733 5.37367 7.11025C5.32292 7.04258 4.96067 6.56192 4.96067 6.06433C4.96067 5.56675 5.222 5.32175 5.31475 5.22083C5.4075 5.11992 5.51658 5.09425 5.58425 5.09425L5.77792 5.09775C5.83975 5.10067 5.92317 5.07442 6.00542 5.27158C6.08942 5.474 6.29183 5.97158 6.31692 6.02233C6.342 6.07308 6.35892 6.132 6.32508 6.19967C6.29125 6.26733 6.27433 6.30933 6.22417 6.36825L6.0725 6.54558C6.02175 6.59575 5.96925 6.65058 6.02817 6.75208C6.08708 6.85358 6.29008 7.18433 6.5905 7.45267C6.97667 7.79742 7.30275 7.90417 7.40367 7.95433C7.50458 8.0045 7.5635 7.99633 7.623 7.92925C7.68192 7.86158 7.87558 7.63408 7.94325 7.53258C8.01092 7.43167 8.078 7.448 8.17075 7.48183C8.2635 7.51567 8.7605 7.76008 8.86142 7.81083C8.96233 7.86158 9.03 7.88667 9.05508 7.92867C9.08133 7.97067 9.08133 8.17308 8.99675 8.40933ZM7 0C3.13425 0 0 3.13425 0 7C0 10.8657 3.13425 14 7 14C10.8657 14 14 10.8657 14 7C14 3.13425 10.8657 0 7 0ZM7.01692 11.0133C6.33967 11.0133 5.67233 10.843 5.08142 10.521L2.9365 11.0833L3.5105 8.98625C3.15642 8.37258 2.96975 7.67608 2.97033 6.96325C2.97092 4.732 4.78625 2.91667 7.01692 2.91667C8.09958 2.91725 9.11575 3.33842 9.87933 4.10317C10.6435 4.86792 11.0641 5.88467 11.0635 6.96617C11.0629 9.19742 9.24758 11.0133 7.01692 11.0133Z" fill="#151517"/>
</g>
<defs>
<clipPath id="clip0_176_2119">
<rect width="14" height="14" fill="white"/>
</clipPath>
</defs>
</svg>
